<svg xmlns="http://www.w3.org/2000/svg" width="1300" height="560">
<rect x="0" y="0" width="1300" height="560" fill="#ffffff"/>
<text x="70" y="30" font-size="20" font-family="Arial" fill="#111">Morphology Lint Trend by Issue Type</text>
<line x1="70" y1="490" x2="1040" y2="490" stroke="#e6e6e6" stroke-width="1"/>
<text x="62" y="494" font-size="11" font-family="Arial" fill="#333" text-anchor="end">0</text>
<line x1="70" y1="402" x2="1040" y2="402" stroke="#e6e6e6" stroke-width="1"/>
<text x="62" y="406" font-size="11" font-family="Arial" fill="#333" text-anchor="end">1237</text>
<line x1="70" y1="314" x2="1040" y2="314" stroke="#e6e6e6" stroke-width="1"/>
<text x="62" y="318" font-size="11" font-family="Arial" fill="#333" text-anchor="end">2473</text>
<line x1="70" y1="226" x2="1040" y2="226" stroke="#e6e6e6" stroke-width="1"/>
<text x="62" y="230" font-size="11" font-family="Arial" fill="#333" text-anchor="end">3710</text>
<line x1="70" y1="138" x2="1040" y2="138" stroke="#e6e6e6" stroke-width="1"/>
<text x="62" y="142" font-size="11" font-family="Arial" fill="#333" text-anchor="end">4946</text>
<line x1="70" y1="50" x2="1040" y2="50" stroke="#e6e6e6" stroke-width="1"/>
<text x="62" y="54" font-size="11" font-family="Arial" fill="#333" text-anchor="end">6183</text>
<line x1="70" y1="490" x2="1040" y2="490" stroke="#333" stroke-width="1.2"/>
<line x1="70" y1="50" x2="70" y2="490" stroke="#333" stroke-width="1.2"/>
<line x1="70" y1="490" x2="70" y2="494" stroke="#666" stroke-width="1"/>
<text x="70" y="508" font-size="10" font-family="Arial" fill="#333" text-anchor="middle">1</text>
<line x1="152" y1="490" x2="152" y2="494" stroke="#666" stroke-width="1"/>
<text x="152" y="508" font-size="10" font-family="Arial" fill="#333" text-anchor="middle">6</text>
<line x1="234" y1="490" x2="234" y2="494" stroke="#666" stroke-width="1"/>
<text x="234" y="508" font-size="10" font-family="Arial" fill="#333" text-anchor="middle">11</text>
<line x1="317" y1="490" x2="317" y2="494" stroke="#666" stroke-width="1"/>
<text x="317" y="508" font-size="10" font-family="Arial" fill="#333" text-anchor="middle">16</text>
<line x1="399" y1="490" x2="399" y2="494" stroke="#666" stroke-width="1"/>
<text x="399" y="508" font-size="10" font-family="Arial" fill="#333" text-anchor="middle">21</text>
<line x1="481" y1="490" x2="481" y2="494" stroke="#666" stroke-width="1"/>
<text x="481" y="508" font-size="10" font-family="Arial" fill="#333" text-anchor="middle">26</text>
<line x1="563" y1="490" x2="563" y2="494" stroke="#666" stroke-width="1"/>
<text x="563" y="508" font-size="10" font-family="Arial" fill="#333" text-anchor="middle">31</text>
<line x1="645" y1="490" x2="645" y2="494" stroke="#666" stroke-width="1"/>
<text x="645" y="508" font-size="10" font-family="Arial" fill="#333" text-anchor="middle">36</text>
<line x1="728" y1="490" x2="728" y2="494" stroke="#666" stroke-width="1"/>
<text x="728" y="508" font-size="10" font-family="Arial" fill="#333" text-anchor="middle">41</text>
<line x1="810" y1="490" x2="810" y2="494" stroke="#666" stroke-width="1"/>
<text x="810" y="508" font-size="10" font-family="Arial" fill="#333" text-anchor="middle">46</text>
<line x1="892" y1="490" x2="892" y2="494" stroke="#666" stroke-width="1"/>
<text x="892" y="508" font-size="10" font-family="Arial" fill="#333" text-anchor="middle">51</text>
<line x1="974" y1="490" x2="974" y2="494" stroke="#666" stroke-width="1"/>
<text x="974" y="508" font-size="10" font-family="Arial" fill="#333" text-anchor="middle">56</text>
<line x1="1040" y1="490" x2="1040" y2="494" stroke="#666" stroke-width="1"/>
<text x="1040" y="508" font-size="10" font-family="Arial" fill="#333" text-anchor="middle">60</text>
<polyline fill="none" stroke="#d62728" stroke-width="2.2" points="70,176 86,177 103,177 119,177 136,177 152,177 169,177 185,182 202,182 218,183 234,183 251,185 267,185 284,185 300,490 317,186 333,189 349,190 366,194 382,204 399,204 415,204 432,204 448,209 465,209 481,99 497,218 514,218 530,218 547,218 563,218 580,218 596,218 613,218 629,218 645,218 662,218 678,218 695,218 711,203 728,203 744,203 761,203 777,203 793,218 810,193 826,204 843,204 859,239 876,239 892,236 908,236 925,237 941,241 958,244 974,258 991,258 1007,258 1024,258 1040,258"/>
<circle cx="70" cy="176" r="2.5" fill="#d62728"/>
<circle cx="86" cy="177" r="2.5" fill="#d62728"/>
<circle cx="103" cy="177" r="2.5" fill="#d62728"/>
<circle cx="119" cy="177" r="2.5" fill="#d62728"/>
<circle cx="136" cy="177" r="2.5" fill="#d62728"/>
<circle cx="152" cy="177" r="2.5" fill="#d62728"/>
<circle cx="169" cy="177" r="2.5" fill="#d62728"/>
<circle cx="185" cy="182" r="2.5" fill="#d62728"/>
<circle cx="202" cy="182" r="2.5" fill="#d62728"/>
<circle cx="218" cy="183" r="2.5" fill="#d62728"/>
<circle cx="234" cy="183" r="2.5" fill="#d62728"/>
<circle cx="251" cy="185" r="2.5" fill="#d62728"/>
<circle cx="267" cy="185" r="2.5" fill="#d62728"/>
<circle cx="284" cy="185" r="2.5" fill="#d62728"/>
<circle cx="300" cy="490" r="2.5" fill="#d62728"/>
<circle cx="317" cy="186" r="2.5" fill="#d62728"/>
<circle cx="333" cy="189" r="2.5" fill="#d62728"/>
<circle cx="349" cy="190" r="2.5" fill="#d62728"/>
<circle cx="366" cy="194" r="2.5" fill="#d62728"/>
<circle cx="382" cy="204" r="2.5" fill="#d62728"/>
<circle cx="399" cy="204" r="2.5" fill="#d62728"/>
<circle cx="415" cy="204" r="2.5" fill="#d62728"/>
<circle cx="432" cy="204" r="2.5" fill="#d62728"/>
<circle cx="448" cy="209" r="2.5" fill="#d62728"/>
<circle cx="465" cy="209" r="2.5" fill="#d62728"/>
<circle cx="481" cy="99" r="2.5" fill="#d62728"/>
<circle cx="497" cy="218" r="2.5" fill="#d62728"/>
<circle cx="514" cy="218" r="2.5" fill="#d62728"/>
<circle cx="530" cy="218" r="2.5" fill="#d62728"/>
<circle cx="547" cy="218" r="2.5" fill="#d62728"/>
<circle cx="563" cy="218" r="2.5" fill="#d62728"/>
<circle cx="580" cy="218" r="2.5" fill="#d62728"/>
<circle cx="596" cy="218" r="2.5" fill="#d62728"/>
<circle cx="613" cy="218" r="2.5" fill="#d62728"/>
<circle cx="629" cy="218" r="2.5" fill="#d62728"/>
<circle cx="645" cy="218" r="2.5" fill="#d62728"/>
<circle cx="662" cy="218" r="2.5" fill="#d62728"/>
<circle cx="678" cy="218" r="2.5" fill="#d62728"/>
<circle cx="695" cy="218" r="2.5" fill="#d62728"/>
<circle cx="711" cy="203" r="2.5" fill="#d62728"/>
<circle cx="728" cy="203" r="2.5" fill="#d62728"/>
<circle cx="744" cy="203" r="2.5" fill="#d62728"/>
<circle cx="761" cy="203" r="2.5" fill="#d62728"/>
<circle cx="777" cy="203" r="2.5" fill="#d62728"/>
<circle cx="793" cy="218" r="2.5" fill="#d62728"/>
<circle cx="810" cy="193" r="2.5" fill="#d62728"/>
<circle cx="826" cy="204" r="2.5" fill="#d62728"/>
<circle cx="843" cy="204" r="2.5" fill="#d62728"/>
<circle cx="859" cy="239" r="2.5" fill="#d62728"/>
<circle cx="876" cy="239" r="2.5" fill="#d62728"/>
<circle cx="892" cy="236" r="2.5" fill="#d62728"/>
<circle cx="908" cy="236" r="2.5" fill="#d62728"/>
<circle cx="925" cy="237" r="2.5" fill="#d62728"/>
<circle cx="941" cy="241" r="2.5" fill="#d62728"/>
<circle cx="958" cy="244" r="2.5" fill="#d62728"/>
<circle cx="974" cy="258" r="2.5" fill="#d62728"/>
<circle cx="991" cy="258" r="2.5" fill="#d62728"/>
<circle cx="1007" cy="258" r="2.5" fill="#d62728"/>
<circle cx="1024" cy="258" r="2.5" fill="#d62728"/>
<circle cx="1040" cy="258" r="2.5" fill="#d62728"/>
<line x1="1060" y1="74" x2="1082" y2="74" stroke="#d62728" stroke-width="2.5"/>
<text x="1088" y="78" font-size="11" font-family="Arial" fill="#111">Analysis does not reconstruct to surface</text>
<polyline fill="none" stroke="#ff7f0e" stroke-width="2.2" points="70,382 86,382 103,382 119,382 136,382 152,382 169,382 185,382 202,382 218,382 234,382 251,382 267,382 284,382 300,490 317,382 333,382 349,382 366,382 382,382 399,382 415,382 432,382 448,377 465,377 481,375 497,375 514,375 530,375 547,375 563,375 580,375 596,375 613,375 629,375 645,375 662,375 678,375 695,375 711,375 728,375 744,375 761,375 777,375 793,375 810,375 826,375 843,375 859,375 876,375 892,375 908,375 925,375 941,375 958,375 974,375 991,375 1007,374 1024,374 1040,374"/>
<circle cx="70" cy="382" r="2.5" fill="#ff7f0e"/>
<circle cx="86" cy="382" r="2.5" fill="#ff7f0e"/>
<circle cx="103" cy="382" r="2.5" fill="#ff7f0e"/>
<circle cx="119" cy="382" r="2.5" fill="#ff7f0e"/>
<circle cx="136" cy="382" r="2.5" fill="#ff7f0e"/>
<circle cx="152" cy="382" r="2.5" fill="#ff7f0e"/>
<circle cx="169" cy="382" r="2.5" fill="#ff7f0e"/>
<circle cx="185" cy="382" r="2.5" fill="#ff7f0e"/>
<circle cx="202" cy="382" r="2.5" fill="#ff7f0e"/>
<circle cx="218" cy="382" r="2.5" fill="#ff7f0e"/>
<circle cx="234" cy="382" r="2.5" fill="#ff7f0e"/>
<circle cx="251" cy="382" r="2.5" fill="#ff7f0e"/>
<circle cx="267" cy="382" r="2.5" fill="#ff7f0e"/>
<circle cx="284" cy="382" r="2.5" fill="#ff7f0e"/>
<circle cx="300" cy="490" r="2.5" fill="#ff7f0e"/>
<circle cx="317" cy="382" r="2.5" fill="#ff7f0e"/>
<circle cx="333" cy="382" r="2.5" fill="#ff7f0e"/>
<circle cx="349" cy="382" r="2.5" fill="#ff7f0e"/>
<circle cx="366" cy="382" r="2.5" fill="#ff7f0e"/>
<circle cx="382" cy="382" r="2.5" fill="#ff7f0e"/>
<circle cx="399" cy="382" r="2.5" fill="#ff7f0e"/>
<circle cx="415" cy="382" r="2.5" fill="#ff7f0e"/>
<circle cx="432" cy="382" r="2.5" fill="#ff7f0e"/>
<circle cx="448" cy="377" r="2.5" fill="#ff7f0e"/>
<circle cx="465" cy="377" r="2.5" fill="#ff7f0e"/>
<circle cx="481" cy="375" r="2.5" fill="#ff7f0e"/>
<circle cx="497" cy="375" r="2.5" fill="#ff7f0e"/>
<circle cx="514" cy="375" r="2.5" fill="#ff7f0e"/>
<circle cx="530" cy="375" r="2.5" fill="#ff7f0e"/>
<circle cx="547" cy="375" r="2.5" fill="#ff7f0e"/>
<circle cx="563" cy="375" r="2.5" fill="#ff7f0e"/>
<circle cx="580" cy="375" r="2.5" fill="#ff7f0e"/>
<circle cx="596" cy="375" r="2.5" fill="#ff7f0e"/>
<circle cx="613" cy="375" r="2.5" fill="#ff7f0e"/>
<circle cx="629" cy="375" r="2.5" fill="#ff7f0e"/>
<circle cx="645" cy="375" r="2.5" fill="#ff7f0e"/>
<circle cx="662" cy="375" r="2.5" fill="#ff7f0e"/>
<circle cx="678" cy="375" r="2.5" fill="#ff7f0e"/>
<circle cx="695" cy="375" r="2.5" fill="#ff7f0e"/>
<circle cx="711" cy="375" r="2.5" fill="#ff7f0e"/>
<circle cx="728" cy="375" r="2.5" fill="#ff7f0e"/>
<circle cx="744" cy="375" r="2.5" fill="#ff7f0e"/>
<circle cx="761" cy="375" r="2.5" fill="#ff7f0e"/>
<circle cx="777" cy="375" r="2.5" fill="#ff7f0e"/>
<circle cx="793" cy="375" r="2.5" fill="#ff7f0e"/>
<circle cx="810" cy="375" r="2.5" fill="#ff7f0e"/>
<circle cx="826" cy="375" r="2.5" fill="#ff7f0e"/>
<circle cx="843" cy="375" r="2.5" fill="#ff7f0e"/>
<circle cx="859" cy="375" r="2.5" fill="#ff7f0e"/>
<circle cx="876" cy="375" r="2.5" fill="#ff7f0e"/>
<circle cx="892" cy="375" r="2.5" fill="#ff7f0e"/>
<circle cx="908" cy="375" r="2.5" fill="#ff7f0e"/>
<circle cx="925" cy="375" r="2.5" fill="#ff7f0e"/>
<circle cx="941" cy="375" r="2.5" fill="#ff7f0e"/>
<circle cx="958" cy="375" r="2.5" fill="#ff7f0e"/>
<circle cx="974" cy="375" r="2.5" fill="#ff7f0e"/>
<circle cx="991" cy="375" r="2.5" fill="#ff7f0e"/>
<circle cx="1007" cy="374" r="2.5" fill="#ff7f0e"/>
<circle cx="1024" cy="374" r="2.5" fill="#ff7f0e"/>
<circle cx="1040" cy="374" r="2.5" fill="#ff7f0e"/>
<line x1="1060" y1="94" x2="1082" y2="94" stroke="#ff7f0e" stroke-width="2.5"/>
<text x="1088" y="98" font-size="11" font-family="Arial" fill="#111">Surface not found in UDB concordance</text>
<polyline fill="none" stroke="#1f77b4" stroke-width="2.2" points="70,427 86,427 103,427 119,427 136,427 152,427 169,427 185,427 202,427 218,427 234,427 251,427 267,427 284,427 300,490 317,427 333,427 349,427 366,427 382,427 399,427 415,427 432,427 448,422 465,453 481,400 497,458 514,458 530,458 547,458 563,458 580,458 596,457 613,454 629,452 645,452 662,50 678,56 695,458 711,400 728,456 744,456 761,456 777,456 793,456 810,458 826,459 843,459 859,459 876,459 892,459 908,459 925,459 941,459 958,459 974,459 991,459 1007,459 1024,459 1040,459"/>
<circle cx="70" cy="427" r="2.5" fill="#1f77b4"/>
<circle cx="86" cy="427" r="2.5" fill="#1f77b4"/>
<circle cx="103" cy="427" r="2.5" fill="#1f77b4"/>
<circle cx="119" cy="427" r="2.5" fill="#1f77b4"/>
<circle cx="136" cy="427" r="2.5" fill="#1f77b4"/>
<circle cx="152" cy="427" r="2.5" fill="#1f77b4"/>
<circle cx="169" cy="427" r="2.5" fill="#1f77b4"/>
<circle cx="185" cy="427" r="2.5" fill="#1f77b4"/>
<circle cx="202" cy="427" r="2.5" fill="#1f77b4"/>
<circle cx="218" cy="427" r="2.5" fill="#1f77b4"/>
<circle cx="234" cy="427" r="2.5" fill="#1f77b4"/>
<circle cx="251" cy="427" r="2.5" fill="#1f77b4"/>
<circle cx="267" cy="427" r="2.5" fill="#1f77b4"/>
<circle cx="284" cy="427" r="2.5" fill="#1f77b4"/>
<circle cx="300" cy="490" r="2.5" fill="#1f77b4"/>
<circle cx="317" cy="427" r="2.5" fill="#1f77b4"/>
<circle cx="333" cy="427" r="2.5" fill="#1f77b4"/>
<circle cx="349" cy="427" r="2.5" fill="#1f77b4"/>
<circle cx="366" cy="427" r="2.5" fill="#1f77b4"/>
<circle cx="382" cy="427" r="2.5" fill="#1f77b4"/>
<circle cx="399" cy="427" r="2.5" fill="#1f77b4"/>
<circle cx="415" cy="427" r="2.5" fill="#1f77b4"/>
<circle cx="432" cy="427" r="2.5" fill="#1f77b4"/>
<circle cx="448" cy="422" r="2.5" fill="#1f77b4"/>
<circle cx="465" cy="453" r="2.5" fill="#1f77b4"/>
<circle cx="481" cy="400" r="2.5" fill="#1f77b4"/>
<circle cx="497" cy="458" r="2.5" fill="#1f77b4"/>
<circle cx="514" cy="458" r="2.5" fill="#1f77b4"/>
<circle cx="530" cy="458" r="2.5" fill="#1f77b4"/>
<circle cx="547" cy="458" r="2.5" fill="#1f77b4"/>
<circle cx="563" cy="458" r="2.5" fill="#1f77b4"/>
<circle cx="580" cy="458" r="2.5" fill="#1f77b4"/>
<circle cx="596" cy="457" r="2.5" fill="#1f77b4"/>
<circle cx="613" cy="454" r="2.5" fill="#1f77b4"/>
<circle cx="629" cy="452" r="2.5" fill="#1f77b4"/>
<circle cx="645" cy="452" r="2.5" fill="#1f77b4"/>
<circle cx="662" cy="50" r="2.5" fill="#1f77b4"/>
<circle cx="678" cy="56" r="2.5" fill="#1f77b4"/>
<circle cx="695" cy="458" r="2.5" fill="#1f77b4"/>
<circle cx="711" cy="400" r="2.5" fill="#1f77b4"/>
<circle cx="728" cy="456" r="2.5" fill="#1f77b4"/>
<circle cx="744" cy="456" r="2.5" fill="#1f77b4"/>
<circle cx="761" cy="456" r="2.5" fill="#1f77b4"/>
<circle cx="777" cy="456" r="2.5" fill="#1f77b4"/>
<circle cx="793" cy="456" r="2.5" fill="#1f77b4"/>
<circle cx="810" cy="458" r="2.5" fill="#1f77b4"/>
<circle cx="826" cy="459" r="2.5" fill="#1f77b4"/>
<circle cx="843" cy="459" r="2.5" fill="#1f77b4"/>
<circle cx="859" cy="459" r="2.5" fill="#1f77b4"/>
<circle cx="876" cy="459" r="2.5" fill="#1f77b4"/>
<circle cx="892" cy="459" r="2.5" fill="#1f77b4"/>
<circle cx="908" cy="459" r="2.5" fill="#1f77b4"/>
<circle cx="925" cy="459" r="2.5" fill="#1f77b4"/>
<circle cx="941" cy="459" r="2.5" fill="#1f77b4"/>
<circle cx="958" cy="459" r="2.5" fill="#1f77b4"/>
<circle cx="974" cy="459" r="2.5" fill="#1f77b4"/>
<circle cx="991" cy="459" r="2.5" fill="#1f77b4"/>
<circle cx="1007" cy="459" r="2.5" fill="#1f77b4"/>
<circle cx="1024" cy="459" r="2.5" fill="#1f77b4"/>
<circle cx="1040" cy="459" r="2.5" fill="#1f77b4"/>
<line x1="1060" y1="114" x2="1082" y2="114" stroke="#1f77b4" stroke-width="2.5"/>
<text x="1088" y="118" font-size="11" font-family="Arial" fill="#111">POS token not allowed for declared DULAT entry</text>
<polyline fill="none" stroke="#2ca02c" stroke-width="2.2" points="70,462 86,462 103,462 119,462 136,462 152,462 169,462 185,462 202,462 218,462 234,462 251,462 267,462 284,462 300,490 317,462 333,462 349,462 366,462 382,462 399,462 415,462 432,462 448,460 465,460 481,460 497,460 514,460 530,460 547,460 563,460 580,460 596,460 613,460 629,460 645,460 662,460 678,460 695,460 711,473 728,473 744,473 761,473 777,473 793,460 810,458 826,473 843,473 859,477 876,477 892,468 908,468 925,468 941,472 958,472 974,472 991,472 1007,472 1024,472 1040,472"/>
<circle cx="70" cy="462" r="2.5" fill="#2ca02c"/>
<circle cx="86" cy="462" r="2.5" fill="#2ca02c"/>
<circle cx="103" cy="462" r="2.5" fill="#2ca02c"/>
<circle cx="119" cy="462" r="2.5" fill="#2ca02c"/>
<circle cx="136" cy="462" r="2.5" fill="#2ca02c"/>
<circle cx="152" cy="462" r="2.5" fill="#2ca02c"/>
<circle cx="169" cy="462" r="2.5" fill="#2ca02c"/>
<circle cx="185" cy="462" r="2.5" fill="#2ca02c"/>
<circle cx="202" cy="462" r="2.5" fill="#2ca02c"/>
<circle cx="218" cy="462" r="2.5" fill="#2ca02c"/>
<circle cx="234" cy="462" r="2.5" fill="#2ca02c"/>
<circle cx="251" cy="462" r="2.5" fill="#2ca02c"/>
<circle cx="267" cy="462" r="2.5" fill="#2ca02c"/>
<circle cx="284" cy="462" r="2.5" fill="#2ca02c"/>
<circle cx="300" cy="490" r="2.5" fill="#2ca02c"/>
<circle cx="317" cy="462" r="2.5" fill="#2ca02c"/>
<circle cx="333" cy="462" r="2.5" fill="#2ca02c"/>
<circle cx="349" cy="462" r="2.5" fill="#2ca02c"/>
<circle cx="366" cy="462" r="2.5" fill="#2ca02c"/>
<circle cx="382" cy="462" r="2.5" fill="#2ca02c"/>
<circle cx="399" cy="462" r="2.5" fill="#2ca02c"/>
<circle cx="415" cy="462" r="2.5" fill="#2ca02c"/>
<circle cx="432" cy="462" r="2.5" fill="#2ca02c"/>
<circle cx="448" cy="460" r="2.5" fill="#2ca02c"/>
<circle cx="465" cy="460" r="2.5" fill="#2ca02c"/>
<circle cx="481" cy="460" r="2.5" fill="#2ca02c"/>
<circle cx="497" cy="460" r="2.5" fill="#2ca02c"/>
<circle cx="514" cy="460" r="2.5" fill="#2ca02c"/>
<circle cx="530" cy="460" r="2.5" fill="#2ca02c"/>
<circle cx="547" cy="460" r="2.5" fill="#2ca02c"/>
<circle cx="563" cy="460" r="2.5" fill="#2ca02c"/>
<circle cx="580" cy="460" r="2.5" fill="#2ca02c"/>
<circle cx="596" cy="460" r="2.5" fill="#2ca02c"/>
<circle cx="613" cy="460" r="2.5" fill="#2ca02c"/>
<circle cx="629" cy="460" r="2.5" fill="#2ca02c"/>
<circle cx="645" cy="460" r="2.5" fill="#2ca02c"/>
<circle cx="662" cy="460" r="2.5" fill="#2ca02c"/>
<circle cx="678" cy="460" r="2.5" fill="#2ca02c"/>
<circle cx="695" cy="460" r="2.5" fill="#2ca02c"/>
<circle cx="711" cy="473" r="2.5" fill="#2ca02c"/>
<circle cx="728" cy="473" r="2.5" fill="#2ca02c"/>
<circle cx="744" cy="473" r="2.5" fill="#2ca02c"/>
<circle cx="761" cy="473" r="2.5" fill="#2ca02c"/>
<circle cx="777" cy="473" r="2.5" fill="#2ca02c"/>
<circle cx="793" cy="460" r="2.5" fill="#2ca02c"/>
<circle cx="810" cy="458" r="2.5" fill="#2ca02c"/>
<circle cx="826" cy="473" r="2.5" fill="#2ca02c"/>
<circle cx="843" cy="473" r="2.5" fill="#2ca02c"/>
<circle cx="859" cy="477" r="2.5" fill="#2ca02c"/>
<circle cx="876" cy="477" r="2.5" fill="#2ca02c"/>
<circle cx="892" cy="468" r="2.5" fill="#2ca02c"/>
<circle cx="908" cy="468" r="2.5" fill="#2ca02c"/>
<circle cx="925" cy="468" r="2.5" fill="#2ca02c"/>
<circle cx="941" cy="472" r="2.5" fill="#2ca02c"/>
<circle cx="958" cy="472" r="2.5" fill="#2ca02c"/>
<circle cx="974" cy="472" r="2.5" fill="#2ca02c"/>
<circle cx="991" cy="472" r="2.5" fill="#2ca02c"/>
<circle cx="1007" cy="472" r="2.5" fill="#2ca02c"/>
<circle cx="1024" cy="472" r="2.5" fill="#2ca02c"/>
<circle cx="1040" cy="472" r="2.5" fill="#2ca02c"/>
<line x1="1060" y1="134" x2="1082" y2="134" stroke="#2ca02c" stroke-width="2.5"/>
<text x="1088" y="138" font-size="11" font-family="Arial" fill="#111">ʔ must be preceded by '(' in column 3</text>
<polyline fill="none" stroke="#9467bd" stroke-width="2.2" points="70,477 86,477 103,477 119,477 136,477 152,478 169,478 185,478 202,478 218,478 234,478 251,478 267,478 284,478 300,490 317,478 333,478 349,478 366,478 382,478 399,478 415,478 432,478 448,467 465,467 481,427 497,465 514,465 530,465 547,465 563,465 580,465 596,465 613,465 629,465 645,465 662,465 678,465 695,465 711,472 728,472 744,472 761,472 777,472 793,465 810,466 826,472 843,472 859,472 876,472 892,472 908,472 925,472 941,472 958,472 974,472 991,472 1007,472 1024,472 1040,472"/>
<circle cx="70" cy="477" r="2.5" fill="#9467bd"/>
<circle cx="86" cy="477" r="2.5" fill="#9467bd"/>
<circle cx="103" cy="477" r="2.5" fill="#9467bd"/>
<circle cx="119" cy="477" r="2.5" fill="#9467bd"/>
<circle cx="136" cy="477" r="2.5" fill="#9467bd"/>
<circle cx="152" cy="478" r="2.5" fill="#9467bd"/>
<circle cx="169" cy="478" r="2.5" fill="#9467bd"/>
<circle cx="185" cy="478" r="2.5" fill="#9467bd"/>
<circle cx="202" cy="478" r="2.5" fill="#9467bd"/>
<circle cx="218" cy="478" r="2.5" fill="#9467bd"/>
<circle cx="234" cy="478" r="2.5" fill="#9467bd"/>
<circle cx="251" cy="478" r="2.5" fill="#9467bd"/>
<circle cx="267" cy="478" r="2.5" fill="#9467bd"/>
<circle cx="284" cy="478" r="2.5" fill="#9467bd"/>
<circle cx="300" cy="490" r="2.5" fill="#9467bd"/>
<circle cx="317" cy="478" r="2.5" fill="#9467bd"/>
<circle cx="333" cy="478" r="2.5" fill="#9467bd"/>
<circle cx="349" cy="478" r="2.5" fill="#9467bd"/>
<circle cx="366" cy="478" r="2.5" fill="#9467bd"/>
<circle cx="382" cy="478" r="2.5" fill="#9467bd"/>
<circle cx="399" cy="478" r="2.5" fill="#9467bd"/>
<circle cx="415" cy="478" r="2.5" fill="#9467bd"/>
<circle cx="432" cy="478" r="2.5" fill="#9467bd"/>
<circle cx="448" cy="467" r="2.5" fill="#9467bd"/>
<circle cx="465" cy="467" r="2.5" fill="#9467bd"/>
<circle cx="481" cy="427" r="2.5" fill="#9467bd"/>
<circle cx="497" cy="465" r="2.5" fill="#9467bd"/>
<circle cx="514" cy="465" r="2.5" fill="#9467bd"/>
<circle cx="530" cy="465" r="2.5" fill="#9467bd"/>
<circle cx="547" cy="465" r="2.5" fill="#9467bd"/>
<circle cx="563" cy="465" r="2.5" fill="#9467bd"/>
<circle cx="580" cy="465" r="2.5" fill="#9467bd"/>
<circle cx="596" cy="465" r="2.5" fill="#9467bd"/>
<circle cx="613" cy="465" r="2.5" fill="#9467bd"/>
<circle cx="629" cy="465" r="2.5" fill="#9467bd"/>
<circle cx="645" cy="465" r="2.5" fill="#9467bd"/>
<circle cx="662" cy="465" r="2.5" fill="#9467bd"/>
<circle cx="678" cy="465" r="2.5" fill="#9467bd"/>
<circle cx="695" cy="465" r="2.5" fill="#9467bd"/>
<circle cx="711" cy="472" r="2.5" fill="#9467bd"/>
<circle cx="728" cy="472" r="2.5" fill="#9467bd"/>
<circle cx="744" cy="472" r="2.5" fill="#9467bd"/>
<circle cx="761" cy="472" r="2.5" fill="#9467bd"/>
<circle cx="777" cy="472" r="2.5" fill="#9467bd"/>
<circle cx="793" cy="465" r="2.5" fill="#9467bd"/>
<circle cx="810" cy="466" r="2.5" fill="#9467bd"/>
<circle cx="826" cy="472" r="2.5" fill="#9467bd"/>
<circle cx="843" cy="472" r="2.5" fill="#9467bd"/>
<circle cx="859" cy="472" r="2.5" fill="#9467bd"/>
<circle cx="876" cy="472" r="2.5" fill="#9467bd"/>
<circle cx="892" cy="472" r="2.5" fill="#9467bd"/>
<circle cx="908" cy="472" r="2.5" fill="#9467bd"/>
<circle cx="925" cy="472" r="2.5" fill="#9467bd"/>
<circle cx="941" cy="472" r="2.5" fill="#9467bd"/>
<circle cx="958" cy="472" r="2.5" fill="#9467bd"/>
<circle cx="974" cy="472" r="2.5" fill="#9467bd"/>
<circle cx="991" cy="472" r="2.5" fill="#9467bd"/>
<circle cx="1007" cy="472" r="2.5" fill="#9467bd"/>
<circle cx="1024" cy="472" r="2.5" fill="#9467bd"/>
<circle cx="1040" cy="472" r="2.5" fill="#9467bd"/>
<line x1="1060" y1="154" x2="1082" y2="154" stroke="#9467bd" stroke-width="2.5"/>
<text x="1088" y="158" font-size="11" font-family="Arial" fill="#111">DULAT comment does not match candidates</text>
<polyline fill="none" stroke="#8c564b" stroke-width="2.2" points="70,481 86,482 103,482 119,482 136,482 152,482 169,482 185,482 202,482 218,482 234,482 251,482 267,482 284,482 300,490 317,482 333,482 349,482 366,482 382,482 399,482 415,482 432,482 448,470 465,470 481,420 497,467 514,467 530,467 547,467 563,467 580,467 596,467 613,467 629,467 645,467 662,467 678,467 695,467 711,468 728,468 744,468 761,468 777,468 793,467 810,467 826,468 843,468 859,467 876,467 892,466 908,466 925,466 941,466 958,466 974,467 991,467 1007,467 1024,467 1040,467"/>
<circle cx="70" cy="481" r="2.5" fill="#8c564b"/>
<circle cx="86" cy="482" r="2.5" fill="#8c564b"/>
<circle cx="103" cy="482" r="2.5" fill="#8c564b"/>
<circle cx="119" cy="482" r="2.5" fill="#8c564b"/>
<circle cx="136" cy="482" r="2.5" fill="#8c564b"/>
<circle cx="152" cy="482" r="2.5" fill="#8c564b"/>
<circle cx="169" cy="482" r="2.5" fill="#8c564b"/>
<circle cx="185" cy="482" r="2.5" fill="#8c564b"/>
<circle cx="202" cy="482" r="2.5" fill="#8c564b"/>
<circle cx="218" cy="482" r="2.5" fill="#8c564b"/>
<circle cx="234" cy="482" r="2.5" fill="#8c564b"/>
<circle cx="251" cy="482" r="2.5" fill="#8c564b"/>
<circle cx="267" cy="482" r="2.5" fill="#8c564b"/>
<circle cx="284" cy="482" r="2.5" fill="#8c564b"/>
<circle cx="300" cy="490" r="2.5" fill="#8c564b"/>
<circle cx="317" cy="482" r="2.5" fill="#8c564b"/>
<circle cx="333" cy="482" r="2.5" fill="#8c564b"/>
<circle cx="349" cy="482" r="2.5" fill="#8c564b"/>
<circle cx="366" cy="482" r="2.5" fill="#8c564b"/>
<circle cx="382" cy="482" r="2.5" fill="#8c564b"/>
<circle cx="399" cy="482" r="2.5" fill="#8c564b"/>
<circle cx="415" cy="482" r="2.5" fill="#8c564b"/>
<circle cx="432" cy="482" r="2.5" fill="#8c564b"/>
<circle cx="448" cy="470" r="2.5" fill="#8c564b"/>
<circle cx="465" cy="470" r="2.5" fill="#8c564b"/>
<circle cx="481" cy="420" r="2.5" fill="#8c564b"/>
<circle cx="497" cy="467" r="2.5" fill="#8c564b"/>
<circle cx="514" cy="467" r="2.5" fill="#8c564b"/>
<circle cx="530" cy="467" r="2.5" fill="#8c564b"/>
<circle cx="547" cy="467" r="2.5" fill="#8c564b"/>
<circle cx="563" cy="467" r="2.5" fill="#8c564b"/>
<circle cx="580" cy="467" r="2.5" fill="#8c564b"/>
<circle cx="596" cy="467" r="2.5" fill="#8c564b"/>
<circle cx="613" cy="467" r="2.5" fill="#8c564b"/>
<circle cx="629" cy="467" r="2.5" fill="#8c564b"/>
<circle cx="645" cy="467" r="2.5" fill="#8c564b"/>
<circle cx="662" cy="467" r="2.5" fill="#8c564b"/>
<circle cx="678" cy="467" r="2.5" fill="#8c564b"/>
<circle cx="695" cy="467" r="2.5" fill="#8c564b"/>
<circle cx="711" cy="468" r="2.5" fill="#8c564b"/>
<circle cx="728" cy="468" r="2.5" fill="#8c564b"/>
<circle cx="744" cy="468" r="2.5" fill="#8c564b"/>
<circle cx="761" cy="468" r="2.5" fill="#8c564b"/>
<circle cx="777" cy="468" r="2.5" fill="#8c564b"/>
<circle cx="793" cy="467" r="2.5" fill="#8c564b"/>
<circle cx="810" cy="467" r="2.5" fill="#8c564b"/>
<circle cx="826" cy="468" r="2.5" fill="#8c564b"/>
<circle cx="843" cy="468" r="2.5" fill="#8c564b"/>
<circle cx="859" cy="467" r="2.5" fill="#8c564b"/>
<circle cx="876" cy="467" r="2.5" fill="#8c564b"/>
<circle cx="892" cy="466" r="2.5" fill="#8c564b"/>
<circle cx="908" cy="466" r="2.5" fill="#8c564b"/>
<circle cx="925" cy="466" r="2.5" fill="#8c564b"/>
<circle cx="941" cy="466" r="2.5" fill="#8c564b"/>
<circle cx="958" cy="466" r="2.5" fill="#8c564b"/>
<circle cx="974" cy="467" r="2.5" fill="#8c564b"/>
<circle cx="991" cy="467" r="2.5" fill="#8c564b"/>
<circle cx="1007" cy="467" r="2.5" fill="#8c564b"/>
<circle cx="1024" cy="467" r="2.5" fill="#8c564b"/>
<circle cx="1040" cy="467" r="2.5" fill="#8c564b"/>
<line x1="1060" y1="174" x2="1082" y2="174" stroke="#8c564b" stroke-width="2.5"/>
<text x="1088" y="178" font-size="11" font-family="Arial" fill="#111">No DULAT entry found for clitic part</text>
<polyline fill="none" stroke="#e377c2" stroke-width="2.2" points="70,481 86,481 103,481 119,481 136,481 152,481 169,481 185,481 202,481 218,481 234,481 251,481 267,481 284,481 300,490 317,481 333,481 349,481 366,481 382,481 399,481 415,481 432,481 448,471 465,471 481,444 497,470 514,470 530,470 547,470 563,470 580,470 596,471 613,471 629,471 645,471 662,470 678,470 695,470 711,469 728,469 744,469 761,469 777,469 793,470 810,469 826,469 843,469 859,469 876,469 892,469 908,469 925,469 941,469 958,469 974,469 991,469 1007,469 1024,469 1040,469"/>
<circle cx="70" cy="481" r="2.5" fill="#e377c2"/>
<circle cx="86" cy="481" r="2.5" fill="#e377c2"/>
<circle cx="103" cy="481" r="2.5" fill="#e377c2"/>
<circle cx="119" cy="481" r="2.5" fill="#e377c2"/>
<circle cx="136" cy="481" r="2.5" fill="#e377c2"/>
<circle cx="152" cy="481" r="2.5" fill="#e377c2"/>
<circle cx="169" cy="481" r="2.5" fill="#e377c2"/>
<circle cx="185" cy="481" r="2.5" fill="#e377c2"/>
<circle cx="202" cy="481" r="2.5" fill="#e377c2"/>
<circle cx="218" cy="481" r="2.5" fill="#e377c2"/>
<circle cx="234" cy="481" r="2.5" fill="#e377c2"/>
<circle cx="251" cy="481" r="2.5" fill="#e377c2"/>
<circle cx="267" cy="481" r="2.5" fill="#e377c2"/>
<circle cx="284" cy="481" r="2.5" fill="#e377c2"/>
<circle cx="300" cy="490" r="2.5" fill="#e377c2"/>
<circle cx="317" cy="481" r="2.5" fill="#e377c2"/>
<circle cx="333" cy="481" r="2.5" fill="#e377c2"/>
<circle cx="349" cy="481" r="2.5" fill="#e377c2"/>
<circle cx="366" cy="481" r="2.5" fill="#e377c2"/>
<circle cx="382" cy="481" r="2.5" fill="#e377c2"/>
<circle cx="399" cy="481" r="2.5" fill="#e377c2"/>
<circle cx="415" cy="481" r="2.5" fill="#e377c2"/>
<circle cx="432" cy="481" r="2.5" fill="#e377c2"/>
<circle cx="448" cy="471" r="2.5" fill="#e377c2"/>
<circle cx="465" cy="471" r="2.5" fill="#e377c2"/>
<circle cx="481" cy="444" r="2.5" fill="#e377c2"/>
<circle cx="497" cy="470" r="2.5" fill="#e377c2"/>
<circle cx="514" cy="470" r="2.5" fill="#e377c2"/>
<circle cx="530" cy="470" r="2.5" fill="#e377c2"/>
<circle cx="547" cy="470" r="2.5" fill="#e377c2"/>
<circle cx="563" cy="470" r="2.5" fill="#e377c2"/>
<circle cx="580" cy="470" r="2.5" fill="#e377c2"/>
<circle cx="596" cy="471" r="2.5" fill="#e377c2"/>
<circle cx="613" cy="471" r="2.5" fill="#e377c2"/>
<circle cx="629" cy="471" r="2.5" fill="#e377c2"/>
<circle cx="645" cy="471" r="2.5" fill="#e377c2"/>
<circle cx="662" cy="470" r="2.5" fill="#e377c2"/>
<circle cx="678" cy="470" r="2.5" fill="#e377c2"/>
<circle cx="695" cy="470" r="2.5" fill="#e377c2"/>
<circle cx="711" cy="469" r="2.5" fill="#e377c2"/>
<circle cx="728" cy="469" r="2.5" fill="#e377c2"/>
<circle cx="744" cy="469" r="2.5" fill="#e377c2"/>
<circle cx="761" cy="469" r="2.5" fill="#e377c2"/>
<circle cx="777" cy="469" r="2.5" fill="#e377c2"/>
<circle cx="793" cy="470" r="2.5" fill="#e377c2"/>
<circle cx="810" cy="469" r="2.5" fill="#e377c2"/>
<circle cx="826" cy="469" r="2.5" fill="#e377c2"/>
<circle cx="843" cy="469" r="2.5" fill="#e377c2"/>
<circle cx="859" cy="469" r="2.5" fill="#e377c2"/>
<circle cx="876" cy="469" r="2.5" fill="#e377c2"/>
<circle cx="892" cy="469" r="2.5" fill="#e377c2"/>
<circle cx="908" cy="469" r="2.5" fill="#e377c2"/>
<circle cx="925" cy="469" r="2.5" fill="#e377c2"/>
<circle cx="941" cy="469" r="2.5" fill="#e377c2"/>
<circle cx="958" cy="469" r="2.5" fill="#e377c2"/>
<circle cx="974" cy="469" r="2.5" fill="#e377c2"/>
<circle cx="991" cy="469" r="2.5" fill="#e377c2"/>
<circle cx="1007" cy="469" r="2.5" fill="#e377c2"/>
<circle cx="1024" cy="469" r="2.5" fill="#e377c2"/>
<circle cx="1040" cy="469" r="2.5" fill="#e377c2"/>
<line x1="1060" y1="194" x2="1082" y2="194" stroke="#e377c2" stroke-width="2.5"/>
<text x="1088" y="198" font-size="11" font-family="Arial" fill="#111">Non-G stem in DULAT requires stem marker</text>
<polyline fill="none" stroke="#7f7f7f" stroke-width="2.2" points="70,457 86,457 103,457 119,457 136,457 152,457 169,457 185,457 202,457 218,457 234,457 251,457 267,457 284,457 300,490 317,457 333,457 349,457 366,457 382,457 399,457 415,457 432,457 448,485 465,485 481,490 497,490 514,490 530,490 547,490 563,490 580,490 596,490 613,490 629,490 645,490 662,490 678,490 695,490 711,490 728,490 744,490 761,490 777,490 793,490 810,490 826,490 843,490 859,490 876,490 892,490 908,490 925,490 941,490 958,490 974,490 991,490 1007,490 1024,490 1040,490"/>
<circle cx="70" cy="457" r="2.5" fill="#7f7f7f"/>
<circle cx="86" cy="457" r="2.5" fill="#7f7f7f"/>
<circle cx="103" cy="457" r="2.5" fill="#7f7f7f"/>
<circle cx="119" cy="457" r="2.5" fill="#7f7f7f"/>
<circle cx="136" cy="457" r="2.5" fill="#7f7f7f"/>
<circle cx="152" cy="457" r="2.5" fill="#7f7f7f"/>
<circle cx="169" cy="457" r="2.5" fill="#7f7f7f"/>
<circle cx="185" cy="457" r="2.5" fill="#7f7f7f"/>
<circle cx="202" cy="457" r="2.5" fill="#7f7f7f"/>
<circle cx="218" cy="457" r="2.5" fill="#7f7f7f"/>
<circle cx="234" cy="457" r="2.5" fill="#7f7f7f"/>
<circle cx="251" cy="457" r="2.5" fill="#7f7f7f"/>
<circle cx="267" cy="457" r="2.5" fill="#7f7f7f"/>
<circle cx="284" cy="457" r="2.5" fill="#7f7f7f"/>
<circle cx="300" cy="490" r="2.5" fill="#7f7f7f"/>
<circle cx="317" cy="457" r="2.5" fill="#7f7f7f"/>
<circle cx="333" cy="457" r="2.5" fill="#7f7f7f"/>
<circle cx="349" cy="457" r="2.5" fill="#7f7f7f"/>
<circle cx="366" cy="457" r="2.5" fill="#7f7f7f"/>
<circle cx="382" cy="457" r="2.5" fill="#7f7f7f"/>
<circle cx="399" cy="457" r="2.5" fill="#7f7f7f"/>
<circle cx="415" cy="457" r="2.5" fill="#7f7f7f"/>
<circle cx="432" cy="457" r="2.5" fill="#7f7f7f"/>
<circle cx="448" cy="485" r="2.5" fill="#7f7f7f"/>
<circle cx="465" cy="485" r="2.5" fill="#7f7f7f"/>
<circle cx="481" cy="490" r="2.5" fill="#7f7f7f"/>
<circle cx="497" cy="490" r="2.5" fill="#7f7f7f"/>
<circle cx="514" cy="490" r="2.5" fill="#7f7f7f"/>
<circle cx="530" cy="490" r="2.5" fill="#7f7f7f"/>
<circle cx="547" cy="490" r="2.5" fill="#7f7f7f"/>
<circle cx="563" cy="490" r="2.5" fill="#7f7f7f"/>
<circle cx="580" cy="490" r="2.5" fill="#7f7f7f"/>
<circle cx="596" cy="490" r="2.5" fill="#7f7f7f"/>
<circle cx="613" cy="490" r="2.5" fill="#7f7f7f"/>
<circle cx="629" cy="490" r="2.5" fill="#7f7f7f"/>
<circle cx="645" cy="490" r="2.5" fill="#7f7f7f"/>
<circle cx="662" cy="490" r="2.5" fill="#7f7f7f"/>
<circle cx="678" cy="490" r="2.5" fill="#7f7f7f"/>
<circle cx="695" cy="490" r="2.5" fill="#7f7f7f"/>
<circle cx="711" cy="490" r="2.5" fill="#7f7f7f"/>
<circle cx="728" cy="490" r="2.5" fill="#7f7f7f"/>
<circle cx="744" cy="490" r="2.5" fill="#7f7f7f"/>
<circle cx="761" cy="490" r="2.5" fill="#7f7f7f"/>
<circle cx="777" cy="490" r="2.5" fill="#7f7f7f"/>
<circle cx="793" cy="490" r="2.5" fill="#7f7f7f"/>
<circle cx="810" cy="490" r="2.5" fill="#7f7f7f"/>
<circle cx="826" cy="490" r="2.5" fill="#7f7f7f"/>
<circle cx="843" cy="490" r="2.5" fill="#7f7f7f"/>
<circle cx="859" cy="490" r="2.5" fill="#7f7f7f"/>
<circle cx="876" cy="490" r="2.5" fill="#7f7f7f"/>
<circle cx="892" cy="490" r="2.5" fill="#7f7f7f"/>
<circle cx="908" cy="490" r="2.5" fill="#7f7f7f"/>
<circle cx="925" cy="490" r="2.5" fill="#7f7f7f"/>
<circle cx="941" cy="490" r="2.5" fill="#7f7f7f"/>
<circle cx="958" cy="490" r="2.5" fill="#7f7f7f"/>
<circle cx="974" cy="490" r="2.5" fill="#7f7f7f"/>
<circle cx="991" cy="490" r="2.5" fill="#7f7f7f"/>
<circle cx="1007" cy="490" r="2.5" fill="#7f7f7f"/>
<circle cx="1024" cy="490" r="2.5" fill="#7f7f7f"/>
<circle cx="1040" cy="490" r="2.5" fill="#7f7f7f"/>
<line x1="1060" y1="214" x2="1082" y2="214" stroke="#7f7f7f" stroke-width="2.5"/>
<text x="1088" y="218" font-size="11" font-family="Arial" fill="#111">Column 5 count must match analysis variant count</text>
<text x="555" y="540" font-size="11" font-family="Arial" fill="#444">Run sequence</text>
</svg>
