<svg xmlns="http://www.w3.org/2000/svg" width="1300" height="560">
<rect x="0" y="0" width="1300" height="560" fill="#ffffff"/>
<text x="70" y="30" font-size="20" font-family="Arial" fill="#111">Morphology Lint Trend by Issue Type</text>
<line x1="70" y1="490" x2="1040" y2="490" stroke="#e6e6e6" stroke-width="1"/>
<text x="62" y="494" font-size="11" font-family="Arial" fill="#333" text-anchor="end">0</text>
<line x1="70" y1="402" x2="1040" y2="402" stroke="#e6e6e6" stroke-width="1"/>
<text x="62" y="406" font-size="11" font-family="Arial" fill="#333" text-anchor="end">1210</text>
<line x1="70" y1="314" x2="1040" y2="314" stroke="#e6e6e6" stroke-width="1"/>
<text x="62" y="318" font-size="11" font-family="Arial" fill="#333" text-anchor="end">2420</text>
<line x1="70" y1="226" x2="1040" y2="226" stroke="#e6e6e6" stroke-width="1"/>
<text x="62" y="230" font-size="11" font-family="Arial" fill="#333" text-anchor="end">3631</text>
<line x1="70" y1="138" x2="1040" y2="138" stroke="#e6e6e6" stroke-width="1"/>
<text x="62" y="142" font-size="11" font-family="Arial" fill="#333" text-anchor="end">4841</text>
<line x1="70" y1="50" x2="1040" y2="50" stroke="#e6e6e6" stroke-width="1"/>
<text x="62" y="54" font-size="11" font-family="Arial" fill="#333" text-anchor="end">6051</text>
<line x1="70" y1="490" x2="1040" y2="490" stroke="#333" stroke-width="1.2"/>
<line x1="70" y1="50" x2="70" y2="490" stroke="#333" stroke-width="1.2"/>
<line x1="70" y1="490" x2="70" y2="494" stroke="#666" stroke-width="1"/>
<text x="70" y="508" font-size="10" font-family="Arial" fill="#333" text-anchor="middle">1</text>
<line x1="151" y1="490" x2="151" y2="494" stroke="#666" stroke-width="1"/>
<text x="151" y="508" font-size="10" font-family="Arial" fill="#333" text-anchor="middle">5</text>
<line x1="232" y1="490" x2="232" y2="494" stroke="#666" stroke-width="1"/>
<text x="232" y="508" font-size="10" font-family="Arial" fill="#333" text-anchor="middle">9</text>
<line x1="312" y1="490" x2="312" y2="494" stroke="#666" stroke-width="1"/>
<text x="312" y="508" font-size="10" font-family="Arial" fill="#333" text-anchor="middle">13</text>
<line x1="393" y1="490" x2="393" y2="494" stroke="#666" stroke-width="1"/>
<text x="393" y="508" font-size="10" font-family="Arial" fill="#333" text-anchor="middle">17</text>
<line x1="474" y1="490" x2="474" y2="494" stroke="#666" stroke-width="1"/>
<text x="474" y="508" font-size="10" font-family="Arial" fill="#333" text-anchor="middle">21</text>
<line x1="555" y1="490" x2="555" y2="494" stroke="#666" stroke-width="1"/>
<text x="555" y="508" font-size="10" font-family="Arial" fill="#333" text-anchor="middle">25</text>
<line x1="636" y1="490" x2="636" y2="494" stroke="#666" stroke-width="1"/>
<text x="636" y="508" font-size="10" font-family="Arial" fill="#333" text-anchor="middle">29</text>
<line x1="717" y1="490" x2="717" y2="494" stroke="#666" stroke-width="1"/>
<text x="717" y="508" font-size="10" font-family="Arial" fill="#333" text-anchor="middle">33</text>
<line x1="798" y1="490" x2="798" y2="494" stroke="#666" stroke-width="1"/>
<text x="798" y="508" font-size="10" font-family="Arial" fill="#333" text-anchor="middle">37</text>
<line x1="878" y1="490" x2="878" y2="494" stroke="#666" stroke-width="1"/>
<text x="878" y="508" font-size="10" font-family="Arial" fill="#333" text-anchor="middle">41</text>
<line x1="959" y1="490" x2="959" y2="494" stroke="#666" stroke-width="1"/>
<text x="959" y="508" font-size="10" font-family="Arial" fill="#333" text-anchor="middle">45</text>
<line x1="1040" y1="490" x2="1040" y2="494" stroke="#666" stroke-width="1"/>
<text x="1040" y="508" font-size="10" font-family="Arial" fill="#333" text-anchor="middle">49</text>
<polyline fill="none" stroke="#d62728" stroke-width="2.2" points="70,477 90,477 110,175 131,175 151,175 171,175 191,175 211,175 232,175 252,175 272,50 292,175 312,213 333,213 353,214 373,246 393,246 414,246 434,246 454,248 474,248 494,248 515,248 535,248 555,248 575,248 595,248 616,248 636,248 656,248 676,248 696,251 717,251 737,251 757,251 777,251 798,251 818,251 838,251 858,251 878,251 899,237 919,251 939,251 959,251 979,251 1000,251 1020,251 1040,252"/>
<circle cx="70" cy="477" r="2.5" fill="#d62728"/>
<circle cx="90" cy="477" r="2.5" fill="#d62728"/>
<circle cx="110" cy="175" r="2.5" fill="#d62728"/>
<circle cx="131" cy="175" r="2.5" fill="#d62728"/>
<circle cx="151" cy="175" r="2.5" fill="#d62728"/>
<circle cx="171" cy="175" r="2.5" fill="#d62728"/>
<circle cx="191" cy="175" r="2.5" fill="#d62728"/>
<circle cx="211" cy="175" r="2.5" fill="#d62728"/>
<circle cx="232" cy="175" r="2.5" fill="#d62728"/>
<circle cx="252" cy="175" r="2.5" fill="#d62728"/>
<circle cx="272" cy="50" r="2.5" fill="#d62728"/>
<circle cx="292" cy="175" r="2.5" fill="#d62728"/>
<circle cx="312" cy="213" r="2.5" fill="#d62728"/>
<circle cx="333" cy="213" r="2.5" fill="#d62728"/>
<circle cx="353" cy="214" r="2.5" fill="#d62728"/>
<circle cx="373" cy="246" r="2.5" fill="#d62728"/>
<circle cx="393" cy="246" r="2.5" fill="#d62728"/>
<circle cx="414" cy="246" r="2.5" fill="#d62728"/>
<circle cx="434" cy="246" r="2.5" fill="#d62728"/>
<circle cx="454" cy="248" r="2.5" fill="#d62728"/>
<circle cx="474" cy="248" r="2.5" fill="#d62728"/>
<circle cx="494" cy="248" r="2.5" fill="#d62728"/>
<circle cx="515" cy="248" r="2.5" fill="#d62728"/>
<circle cx="535" cy="248" r="2.5" fill="#d62728"/>
<circle cx="555" cy="248" r="2.5" fill="#d62728"/>
<circle cx="575" cy="248" r="2.5" fill="#d62728"/>
<circle cx="595" cy="248" r="2.5" fill="#d62728"/>
<circle cx="616" cy="248" r="2.5" fill="#d62728"/>
<circle cx="636" cy="248" r="2.5" fill="#d62728"/>
<circle cx="656" cy="248" r="2.5" fill="#d62728"/>
<circle cx="676" cy="248" r="2.5" fill="#d62728"/>
<circle cx="696" cy="251" r="2.5" fill="#d62728"/>
<circle cx="717" cy="251" r="2.5" fill="#d62728"/>
<circle cx="737" cy="251" r="2.5" fill="#d62728"/>
<circle cx="757" cy="251" r="2.5" fill="#d62728"/>
<circle cx="777" cy="251" r="2.5" fill="#d62728"/>
<circle cx="798" cy="251" r="2.5" fill="#d62728"/>
<circle cx="818" cy="251" r="2.5" fill="#d62728"/>
<circle cx="838" cy="251" r="2.5" fill="#d62728"/>
<circle cx="858" cy="251" r="2.5" fill="#d62728"/>
<circle cx="878" cy="251" r="2.5" fill="#d62728"/>
<circle cx="899" cy="237" r="2.5" fill="#d62728"/>
<circle cx="919" cy="251" r="2.5" fill="#d62728"/>
<circle cx="939" cy="251" r="2.5" fill="#d62728"/>
<circle cx="959" cy="251" r="2.5" fill="#d62728"/>
<circle cx="979" cy="251" r="2.5" fill="#d62728"/>
<circle cx="1000" cy="251" r="2.5" fill="#d62728"/>
<circle cx="1020" cy="251" r="2.5" fill="#d62728"/>
<circle cx="1040" cy="252" r="2.5" fill="#d62728"/>
<line x1="1060" y1="74" x2="1082" y2="74" stroke="#d62728" stroke-width="2.5"/>
<text x="1088" y="78" font-size="11" font-family="Arial" fill="#111">Analysis does not reconstruct to surface</text>
<polyline fill="none" stroke="#ff7f0e" stroke-width="2.2" points="70,478 90,403 110,403 131,403 151,403 171,403 191,403 211,403 232,403 252,403 272,403 292,403 312,403 333,403 353,403 373,403 393,403 414,403 434,403 454,403 474,403 494,403 515,403 535,403 555,403 575,403 595,403 616,403 636,403 656,403 676,403 696,403 717,403 737,403 757,403 777,403 798,403 818,403 838,403 858,403 878,403 899,403 919,403 939,403 959,403 979,403 1000,403 1020,403 1040,403"/>
<circle cx="70" cy="478" r="2.5" fill="#ff7f0e"/>
<circle cx="90" cy="403" r="2.5" fill="#ff7f0e"/>
<circle cx="110" cy="403" r="2.5" fill="#ff7f0e"/>
<circle cx="131" cy="403" r="2.5" fill="#ff7f0e"/>
<circle cx="151" cy="403" r="2.5" fill="#ff7f0e"/>
<circle cx="171" cy="403" r="2.5" fill="#ff7f0e"/>
<circle cx="191" cy="403" r="2.5" fill="#ff7f0e"/>
<circle cx="211" cy="403" r="2.5" fill="#ff7f0e"/>
<circle cx="232" cy="403" r="2.5" fill="#ff7f0e"/>
<circle cx="252" cy="403" r="2.5" fill="#ff7f0e"/>
<circle cx="272" cy="403" r="2.5" fill="#ff7f0e"/>
<circle cx="292" cy="403" r="2.5" fill="#ff7f0e"/>
<circle cx="312" cy="403" r="2.5" fill="#ff7f0e"/>
<circle cx="333" cy="403" r="2.5" fill="#ff7f0e"/>
<circle cx="353" cy="403" r="2.5" fill="#ff7f0e"/>
<circle cx="373" cy="403" r="2.5" fill="#ff7f0e"/>
<circle cx="393" cy="403" r="2.5" fill="#ff7f0e"/>
<circle cx="414" cy="403" r="2.5" fill="#ff7f0e"/>
<circle cx="434" cy="403" r="2.5" fill="#ff7f0e"/>
<circle cx="454" cy="403" r="2.5" fill="#ff7f0e"/>
<circle cx="474" cy="403" r="2.5" fill="#ff7f0e"/>
<circle cx="494" cy="403" r="2.5" fill="#ff7f0e"/>
<circle cx="515" cy="403" r="2.5" fill="#ff7f0e"/>
<circle cx="535" cy="403" r="2.5" fill="#ff7f0e"/>
<circle cx="555" cy="403" r="2.5" fill="#ff7f0e"/>
<circle cx="575" cy="403" r="2.5" fill="#ff7f0e"/>
<circle cx="595" cy="403" r="2.5" fill="#ff7f0e"/>
<circle cx="616" cy="403" r="2.5" fill="#ff7f0e"/>
<circle cx="636" cy="403" r="2.5" fill="#ff7f0e"/>
<circle cx="656" cy="403" r="2.5" fill="#ff7f0e"/>
<circle cx="676" cy="403" r="2.5" fill="#ff7f0e"/>
<circle cx="696" cy="403" r="2.5" fill="#ff7f0e"/>
<circle cx="717" cy="403" r="2.5" fill="#ff7f0e"/>
<circle cx="737" cy="403" r="2.5" fill="#ff7f0e"/>
<circle cx="757" cy="403" r="2.5" fill="#ff7f0e"/>
<circle cx="777" cy="403" r="2.5" fill="#ff7f0e"/>
<circle cx="798" cy="403" r="2.5" fill="#ff7f0e"/>
<circle cx="818" cy="403" r="2.5" fill="#ff7f0e"/>
<circle cx="838" cy="403" r="2.5" fill="#ff7f0e"/>
<circle cx="858" cy="403" r="2.5" fill="#ff7f0e"/>
<circle cx="878" cy="403" r="2.5" fill="#ff7f0e"/>
<circle cx="899" cy="403" r="2.5" fill="#ff7f0e"/>
<circle cx="919" cy="403" r="2.5" fill="#ff7f0e"/>
<circle cx="939" cy="403" r="2.5" fill="#ff7f0e"/>
<circle cx="959" cy="403" r="2.5" fill="#ff7f0e"/>
<circle cx="979" cy="403" r="2.5" fill="#ff7f0e"/>
<circle cx="1000" cy="403" r="2.5" fill="#ff7f0e"/>
<circle cx="1020" cy="403" r="2.5" fill="#ff7f0e"/>
<circle cx="1040" cy="403" r="2.5" fill="#ff7f0e"/>
<line x1="1060" y1="94" x2="1082" y2="94" stroke="#ff7f0e" stroke-width="2.5"/>
<text x="1088" y="98" font-size="11" font-family="Arial" fill="#111">Surface not found in UDB concordance</text>
<polyline fill="none" stroke="#1f77b4" stroke-width="2.2" points="70,462 90,144 110,373 131,373 151,457 171,457 191,457 211,381 232,383 252,384 272,452 292,433 312,433 333,438 353,438 373,445 393,445 414,444 434,444 454,444 474,444 494,444 515,444 535,444 555,444 575,444 595,443 616,443 636,444 656,444 676,444 696,450 717,450 737,450 757,483 777,483 798,483 818,483 838,483 858,483 878,483 899,483 919,483 939,483 959,483 979,483 1000,483 1020,483 1040,483"/>
<circle cx="70" cy="462" r="2.5" fill="#1f77b4"/>
<circle cx="90" cy="144" r="2.5" fill="#1f77b4"/>
<circle cx="110" cy="373" r="2.5" fill="#1f77b4"/>
<circle cx="131" cy="373" r="2.5" fill="#1f77b4"/>
<circle cx="151" cy="457" r="2.5" fill="#1f77b4"/>
<circle cx="171" cy="457" r="2.5" fill="#1f77b4"/>
<circle cx="191" cy="457" r="2.5" fill="#1f77b4"/>
<circle cx="211" cy="381" r="2.5" fill="#1f77b4"/>
<circle cx="232" cy="383" r="2.5" fill="#1f77b4"/>
<circle cx="252" cy="384" r="2.5" fill="#1f77b4"/>
<circle cx="272" cy="452" r="2.5" fill="#1f77b4"/>
<circle cx="292" cy="433" r="2.5" fill="#1f77b4"/>
<circle cx="312" cy="433" r="2.5" fill="#1f77b4"/>
<circle cx="333" cy="438" r="2.5" fill="#1f77b4"/>
<circle cx="353" cy="438" r="2.5" fill="#1f77b4"/>
<circle cx="373" cy="445" r="2.5" fill="#1f77b4"/>
<circle cx="393" cy="445" r="2.5" fill="#1f77b4"/>
<circle cx="414" cy="444" r="2.5" fill="#1f77b4"/>
<circle cx="434" cy="444" r="2.5" fill="#1f77b4"/>
<circle cx="454" cy="444" r="2.5" fill="#1f77b4"/>
<circle cx="474" cy="444" r="2.5" fill="#1f77b4"/>
<circle cx="494" cy="444" r="2.5" fill="#1f77b4"/>
<circle cx="515" cy="444" r="2.5" fill="#1f77b4"/>
<circle cx="535" cy="444" r="2.5" fill="#1f77b4"/>
<circle cx="555" cy="444" r="2.5" fill="#1f77b4"/>
<circle cx="575" cy="444" r="2.5" fill="#1f77b4"/>
<circle cx="595" cy="443" r="2.5" fill="#1f77b4"/>
<circle cx="616" cy="443" r="2.5" fill="#1f77b4"/>
<circle cx="636" cy="444" r="2.5" fill="#1f77b4"/>
<circle cx="656" cy="444" r="2.5" fill="#1f77b4"/>
<circle cx="676" cy="444" r="2.5" fill="#1f77b4"/>
<circle cx="696" cy="450" r="2.5" fill="#1f77b4"/>
<circle cx="717" cy="450" r="2.5" fill="#1f77b4"/>
<circle cx="737" cy="450" r="2.5" fill="#1f77b4"/>
<circle cx="757" cy="483" r="2.5" fill="#1f77b4"/>
<circle cx="777" cy="483" r="2.5" fill="#1f77b4"/>
<circle cx="798" cy="483" r="2.5" fill="#1f77b4"/>
<circle cx="818" cy="483" r="2.5" fill="#1f77b4"/>
<circle cx="838" cy="483" r="2.5" fill="#1f77b4"/>
<circle cx="858" cy="483" r="2.5" fill="#1f77b4"/>
<circle cx="878" cy="483" r="2.5" fill="#1f77b4"/>
<circle cx="899" cy="483" r="2.5" fill="#1f77b4"/>
<circle cx="919" cy="483" r="2.5" fill="#1f77b4"/>
<circle cx="939" cy="483" r="2.5" fill="#1f77b4"/>
<circle cx="959" cy="483" r="2.5" fill="#1f77b4"/>
<circle cx="979" cy="483" r="2.5" fill="#1f77b4"/>
<circle cx="1000" cy="483" r="2.5" fill="#1f77b4"/>
<circle cx="1020" cy="483" r="2.5" fill="#1f77b4"/>
<circle cx="1040" cy="483" r="2.5" fill="#1f77b4"/>
<line x1="1060" y1="114" x2="1082" y2="114" stroke="#1f77b4" stroke-width="2.5"/>
<text x="1088" y="118" font-size="11" font-family="Arial" fill="#111">No DULAT entry found for lexeme/surface</text>
<polyline fill="none" stroke="#2ca02c" stroke-width="2.2" points="70,481 90,474 110,402 131,402 151,402 171,402 191,402 211,418 232,418 252,418 272,378 292,407 312,448 333,448 353,448 373,447 393,488 414,488 434,488 454,488 474,488 494,488 515,488 535,488 555,488 575,488 595,487 616,487 636,487 656,487 676,487 696,487 717,487 737,487 757,487 777,487 798,487 818,487 838,487 858,487 878,487 899,487 919,487 939,487 959,487 979,487 1000,487 1020,487 1040,487"/>
<circle cx="70" cy="481" r="2.5" fill="#2ca02c"/>
<circle cx="90" cy="474" r="2.5" fill="#2ca02c"/>
<circle cx="110" cy="402" r="2.5" fill="#2ca02c"/>
<circle cx="131" cy="402" r="2.5" fill="#2ca02c"/>
<circle cx="151" cy="402" r="2.5" fill="#2ca02c"/>
<circle cx="171" cy="402" r="2.5" fill="#2ca02c"/>
<circle cx="191" cy="402" r="2.5" fill="#2ca02c"/>
<circle cx="211" cy="418" r="2.5" fill="#2ca02c"/>
<circle cx="232" cy="418" r="2.5" fill="#2ca02c"/>
<circle cx="252" cy="418" r="2.5" fill="#2ca02c"/>
<circle cx="272" cy="378" r="2.5" fill="#2ca02c"/>
<circle cx="292" cy="407" r="2.5" fill="#2ca02c"/>
<circle cx="312" cy="448" r="2.5" fill="#2ca02c"/>
<circle cx="333" cy="448" r="2.5" fill="#2ca02c"/>
<circle cx="353" cy="448" r="2.5" fill="#2ca02c"/>
<circle cx="373" cy="447" r="2.5" fill="#2ca02c"/>
<circle cx="393" cy="488" r="2.5" fill="#2ca02c"/>
<circle cx="414" cy="488" r="2.5" fill="#2ca02c"/>
<circle cx="434" cy="488" r="2.5" fill="#2ca02c"/>
<circle cx="454" cy="488" r="2.5" fill="#2ca02c"/>
<circle cx="474" cy="488" r="2.5" fill="#2ca02c"/>
<circle cx="494" cy="488" r="2.5" fill="#2ca02c"/>
<circle cx="515" cy="488" r="2.5" fill="#2ca02c"/>
<circle cx="535" cy="488" r="2.5" fill="#2ca02c"/>
<circle cx="555" cy="488" r="2.5" fill="#2ca02c"/>
<circle cx="575" cy="488" r="2.5" fill="#2ca02c"/>
<circle cx="595" cy="487" r="2.5" fill="#2ca02c"/>
<circle cx="616" cy="487" r="2.5" fill="#2ca02c"/>
<circle cx="636" cy="487" r="2.5" fill="#2ca02c"/>
<circle cx="656" cy="487" r="2.5" fill="#2ca02c"/>
<circle cx="676" cy="487" r="2.5" fill="#2ca02c"/>
<circle cx="696" cy="487" r="2.5" fill="#2ca02c"/>
<circle cx="717" cy="487" r="2.5" fill="#2ca02c"/>
<circle cx="737" cy="487" r="2.5" fill="#2ca02c"/>
<circle cx="757" cy="487" r="2.5" fill="#2ca02c"/>
<circle cx="777" cy="487" r="2.5" fill="#2ca02c"/>
<circle cx="798" cy="487" r="2.5" fill="#2ca02c"/>
<circle cx="818" cy="487" r="2.5" fill="#2ca02c"/>
<circle cx="838" cy="487" r="2.5" fill="#2ca02c"/>
<circle cx="858" cy="487" r="2.5" fill="#2ca02c"/>
<circle cx="878" cy="487" r="2.5" fill="#2ca02c"/>
<circle cx="899" cy="487" r="2.5" fill="#2ca02c"/>
<circle cx="919" cy="487" r="2.5" fill="#2ca02c"/>
<circle cx="939" cy="487" r="2.5" fill="#2ca02c"/>
<circle cx="959" cy="487" r="2.5" fill="#2ca02c"/>
<circle cx="979" cy="487" r="2.5" fill="#2ca02c"/>
<circle cx="1000" cy="487" r="2.5" fill="#2ca02c"/>
<circle cx="1020" cy="487" r="2.5" fill="#2ca02c"/>
<circle cx="1040" cy="487" r="2.5" fill="#2ca02c"/>
<line x1="1060" y1="134" x2="1082" y2="134" stroke="#2ca02c" stroke-width="2.5"/>
<text x="1088" y="138" font-size="11" font-family="Arial" fill="#111">Suffix form without '+'</text>
<polyline fill="none" stroke="#9467bd" stroke-width="2.2" points="70,477 90,296 110,331 131,331 151,477 171,477 191,477 211,477 232,477 252,477 272,490 292,477 312,477 333,477 353,477 373,477 393,477 414,477 434,477 454,477 474,477 494,477 515,477 535,477 555,477 575,477 595,477 616,477 636,478 656,478 676,478 696,478 717,478 737,478 757,478 777,478 798,478 818,478 838,478 858,478 878,478 899,481 919,478 939,478 959,478 979,478 1000,478 1020,478 1040,478"/>
<circle cx="70" cy="477" r="2.5" fill="#9467bd"/>
<circle cx="90" cy="296" r="2.5" fill="#9467bd"/>
<circle cx="110" cy="331" r="2.5" fill="#9467bd"/>
<circle cx="131" cy="331" r="2.5" fill="#9467bd"/>
<circle cx="151" cy="477" r="2.5" fill="#9467bd"/>
<circle cx="171" cy="477" r="2.5" fill="#9467bd"/>
<circle cx="191" cy="477" r="2.5" fill="#9467bd"/>
<circle cx="211" cy="477" r="2.5" fill="#9467bd"/>
<circle cx="232" cy="477" r="2.5" fill="#9467bd"/>
<circle cx="252" cy="477" r="2.5" fill="#9467bd"/>
<circle cx="272" cy="490" r="2.5" fill="#9467bd"/>
<circle cx="292" cy="477" r="2.5" fill="#9467bd"/>
<circle cx="312" cy="477" r="2.5" fill="#9467bd"/>
<circle cx="333" cy="477" r="2.5" fill="#9467bd"/>
<circle cx="353" cy="477" r="2.5" fill="#9467bd"/>
<circle cx="373" cy="477" r="2.5" fill="#9467bd"/>
<circle cx="393" cy="477" r="2.5" fill="#9467bd"/>
<circle cx="414" cy="477" r="2.5" fill="#9467bd"/>
<circle cx="434" cy="477" r="2.5" fill="#9467bd"/>
<circle cx="454" cy="477" r="2.5" fill="#9467bd"/>
<circle cx="474" cy="477" r="2.5" fill="#9467bd"/>
<circle cx="494" cy="477" r="2.5" fill="#9467bd"/>
<circle cx="515" cy="477" r="2.5" fill="#9467bd"/>
<circle cx="535" cy="477" r="2.5" fill="#9467bd"/>
<circle cx="555" cy="477" r="2.5" fill="#9467bd"/>
<circle cx="575" cy="477" r="2.5" fill="#9467bd"/>
<circle cx="595" cy="477" r="2.5" fill="#9467bd"/>
<circle cx="616" cy="477" r="2.5" fill="#9467bd"/>
<circle cx="636" cy="478" r="2.5" fill="#9467bd"/>
<circle cx="656" cy="478" r="2.5" fill="#9467bd"/>
<circle cx="676" cy="478" r="2.5" fill="#9467bd"/>
<circle cx="696" cy="478" r="2.5" fill="#9467bd"/>
<circle cx="717" cy="478" r="2.5" fill="#9467bd"/>
<circle cx="737" cy="478" r="2.5" fill="#9467bd"/>
<circle cx="757" cy="478" r="2.5" fill="#9467bd"/>
<circle cx="777" cy="478" r="2.5" fill="#9467bd"/>
<circle cx="798" cy="478" r="2.5" fill="#9467bd"/>
<circle cx="818" cy="478" r="2.5" fill="#9467bd"/>
<circle cx="838" cy="478" r="2.5" fill="#9467bd"/>
<circle cx="858" cy="478" r="2.5" fill="#9467bd"/>
<circle cx="878" cy="478" r="2.5" fill="#9467bd"/>
<circle cx="899" cy="481" r="2.5" fill="#9467bd"/>
<circle cx="919" cy="478" r="2.5" fill="#9467bd"/>
<circle cx="939" cy="478" r="2.5" fill="#9467bd"/>
<circle cx="959" cy="478" r="2.5" fill="#9467bd"/>
<circle cx="979" cy="478" r="2.5" fill="#9467bd"/>
<circle cx="1000" cy="478" r="2.5" fill="#9467bd"/>
<circle cx="1020" cy="478" r="2.5" fill="#9467bd"/>
<circle cx="1040" cy="478" r="2.5" fill="#9467bd"/>
<line x1="1060" y1="154" x2="1082" y2="154" stroke="#9467bd" stroke-width="2.5"/>
<text x="1088" y="158" font-size="11" font-family="Arial" fill="#111">Missing DULAT entry token(s) in column 4</text>
<polyline fill="none" stroke="#8c564b" stroke-width="2.2" points="70,490 90,490 110,470 131,470 151,470 171,470 191,470 211,470 232,470 252,470 272,463 292,470 312,470 333,470 353,470 373,470 393,470 414,470 434,470 454,470 474,470 494,470 515,470 535,470 555,470 575,470 595,468 616,468 636,468 656,468 676,468 696,468 717,468 737,468 757,468 777,468 798,468 818,468 838,468 858,468 878,468 899,467 919,468 939,468 959,468 979,468 1000,468 1020,468 1040,468"/>
<circle cx="70" cy="490" r="2.5" fill="#8c564b"/>
<circle cx="90" cy="490" r="2.5" fill="#8c564b"/>
<circle cx="110" cy="470" r="2.5" fill="#8c564b"/>
<circle cx="131" cy="470" r="2.5" fill="#8c564b"/>
<circle cx="151" cy="470" r="2.5" fill="#8c564b"/>
<circle cx="171" cy="470" r="2.5" fill="#8c564b"/>
<circle cx="191" cy="470" r="2.5" fill="#8c564b"/>
<circle cx="211" cy="470" r="2.5" fill="#8c564b"/>
<circle cx="232" cy="470" r="2.5" fill="#8c564b"/>
<circle cx="252" cy="470" r="2.5" fill="#8c564b"/>
<circle cx="272" cy="463" r="2.5" fill="#8c564b"/>
<circle cx="292" cy="470" r="2.5" fill="#8c564b"/>
<circle cx="312" cy="470" r="2.5" fill="#8c564b"/>
<circle cx="333" cy="470" r="2.5" fill="#8c564b"/>
<circle cx="353" cy="470" r="2.5" fill="#8c564b"/>
<circle cx="373" cy="470" r="2.5" fill="#8c564b"/>
<circle cx="393" cy="470" r="2.5" fill="#8c564b"/>
<circle cx="414" cy="470" r="2.5" fill="#8c564b"/>
<circle cx="434" cy="470" r="2.5" fill="#8c564b"/>
<circle cx="454" cy="470" r="2.5" fill="#8c564b"/>
<circle cx="474" cy="470" r="2.5" fill="#8c564b"/>
<circle cx="494" cy="470" r="2.5" fill="#8c564b"/>
<circle cx="515" cy="470" r="2.5" fill="#8c564b"/>
<circle cx="535" cy="470" r="2.5" fill="#8c564b"/>
<circle cx="555" cy="470" r="2.5" fill="#8c564b"/>
<circle cx="575" cy="470" r="2.5" fill="#8c564b"/>
<circle cx="595" cy="468" r="2.5" fill="#8c564b"/>
<circle cx="616" cy="468" r="2.5" fill="#8c564b"/>
<circle cx="636" cy="468" r="2.5" fill="#8c564b"/>
<circle cx="656" cy="468" r="2.5" fill="#8c564b"/>
<circle cx="676" cy="468" r="2.5" fill="#8c564b"/>
<circle cx="696" cy="468" r="2.5" fill="#8c564b"/>
<circle cx="717" cy="468" r="2.5" fill="#8c564b"/>
<circle cx="737" cy="468" r="2.5" fill="#8c564b"/>
<circle cx="757" cy="468" r="2.5" fill="#8c564b"/>
<circle cx="777" cy="468" r="2.5" fill="#8c564b"/>
<circle cx="798" cy="468" r="2.5" fill="#8c564b"/>
<circle cx="818" cy="468" r="2.5" fill="#8c564b"/>
<circle cx="838" cy="468" r="2.5" fill="#8c564b"/>
<circle cx="858" cy="468" r="2.5" fill="#8c564b"/>
<circle cx="878" cy="468" r="2.5" fill="#8c564b"/>
<circle cx="899" cy="467" r="2.5" fill="#8c564b"/>
<circle cx="919" cy="468" r="2.5" fill="#8c564b"/>
<circle cx="939" cy="468" r="2.5" fill="#8c564b"/>
<circle cx="959" cy="468" r="2.5" fill="#8c564b"/>
<circle cx="979" cy="468" r="2.5" fill="#8c564b"/>
<circle cx="1000" cy="468" r="2.5" fill="#8c564b"/>
<circle cx="1020" cy="468" r="2.5" fill="#8c564b"/>
<circle cx="1040" cy="468" r="2.5" fill="#8c564b"/>
<line x1="1060" y1="174" x2="1082" y2="174" stroke="#8c564b" stroke-width="2.5"/>
<text x="1088" y="178" font-size="11" font-family="Arial" fill="#111">ʔ must be preceded by '(' in column 3</text>
<polyline fill="none" stroke="#e377c2" stroke-width="2.2" points="70,485 90,461 110,426 131,426 151,426 171,426 191,426 211,454 232,454 252,454 272,438 292,454 312,454 333,454 353,454 373,477 393,489 414,489 434,489 454,489 474,489 494,489 515,489 535,489 555,489 575,489 595,489 616,489 636,489 656,489 676,489 696,489 717,489 737,489 757,489 777,489 798,489 818,489 838,489 858,489 878,489 899,489 919,489 939,489 959,489 979,489 1000,489 1020,489 1040,489"/>
<circle cx="70" cy="485" r="2.5" fill="#e377c2"/>
<circle cx="90" cy="461" r="2.5" fill="#e377c2"/>
<circle cx="110" cy="426" r="2.5" fill="#e377c2"/>
<circle cx="131" cy="426" r="2.5" fill="#e377c2"/>
<circle cx="151" cy="426" r="2.5" fill="#e377c2"/>
<circle cx="171" cy="426" r="2.5" fill="#e377c2"/>
<circle cx="191" cy="426" r="2.5" fill="#e377c2"/>
<circle cx="211" cy="454" r="2.5" fill="#e377c2"/>
<circle cx="232" cy="454" r="2.5" fill="#e377c2"/>
<circle cx="252" cy="454" r="2.5" fill="#e377c2"/>
<circle cx="272" cy="438" r="2.5" fill="#e377c2"/>
<circle cx="292" cy="454" r="2.5" fill="#e377c2"/>
<circle cx="312" cy="454" r="2.5" fill="#e377c2"/>
<circle cx="333" cy="454" r="2.5" fill="#e377c2"/>
<circle cx="353" cy="454" r="2.5" fill="#e377c2"/>
<circle cx="373" cy="477" r="2.5" fill="#e377c2"/>
<circle cx="393" cy="489" r="2.5" fill="#e377c2"/>
<circle cx="414" cy="489" r="2.5" fill="#e377c2"/>
<circle cx="434" cy="489" r="2.5" fill="#e377c2"/>
<circle cx="454" cy="489" r="2.5" fill="#e377c2"/>
<circle cx="474" cy="489" r="2.5" fill="#e377c2"/>
<circle cx="494" cy="489" r="2.5" fill="#e377c2"/>
<circle cx="515" cy="489" r="2.5" fill="#e377c2"/>
<circle cx="535" cy="489" r="2.5" fill="#e377c2"/>
<circle cx="555" cy="489" r="2.5" fill="#e377c2"/>
<circle cx="575" cy="489" r="2.5" fill="#e377c2"/>
<circle cx="595" cy="489" r="2.5" fill="#e377c2"/>
<circle cx="616" cy="489" r="2.5" fill="#e377c2"/>
<circle cx="636" cy="489" r="2.5" fill="#e377c2"/>
<circle cx="656" cy="489" r="2.5" fill="#e377c2"/>
<circle cx="676" cy="489" r="2.5" fill="#e377c2"/>
<circle cx="696" cy="489" r="2.5" fill="#e377c2"/>
<circle cx="717" cy="489" r="2.5" fill="#e377c2"/>
<circle cx="737" cy="489" r="2.5" fill="#e377c2"/>
<circle cx="757" cy="489" r="2.5" fill="#e377c2"/>
<circle cx="777" cy="489" r="2.5" fill="#e377c2"/>
<circle cx="798" cy="489" r="2.5" fill="#e377c2"/>
<circle cx="818" cy="489" r="2.5" fill="#e377c2"/>
<circle cx="838" cy="489" r="2.5" fill="#e377c2"/>
<circle cx="858" cy="489" r="2.5" fill="#e377c2"/>
<circle cx="878" cy="489" r="2.5" fill="#e377c2"/>
<circle cx="899" cy="489" r="2.5" fill="#e377c2"/>
<circle cx="919" cy="489" r="2.5" fill="#e377c2"/>
<circle cx="939" cy="489" r="2.5" fill="#e377c2"/>
<circle cx="959" cy="489" r="2.5" fill="#e377c2"/>
<circle cx="979" cy="489" r="2.5" fill="#e377c2"/>
<circle cx="1000" cy="489" r="2.5" fill="#e377c2"/>
<circle cx="1020" cy="489" r="2.5" fill="#e377c2"/>
<circle cx="1040" cy="489" r="2.5" fill="#e377c2"/>
<line x1="1060" y1="194" x2="1082" y2="194" stroke="#e377c2" stroke-width="2.5"/>
<text x="1088" y="198" font-size="11" font-family="Arial" fill="#111">Plural form missing split ending</text>
<polyline fill="none" stroke="#7f7f7f" stroke-width="2.2" points="70,485 90,432 110,444 131,444 151,485 171,485 191,485 211,485 232,485 252,485 272,490 292,485 312,485 333,485 353,485 373,485 393,485 414,485 434,485 454,485 474,485 494,485 515,485 535,485 555,485 575,485 595,485 616,485 636,485 656,485 676,485 696,485 717,485 737,485 757,485 777,485 798,485 818,485 838,485 858,485 878,485 899,486 919,485 939,485 959,485 979,485 1000,485 1020,485 1040,485"/>
<circle cx="70" cy="485" r="2.5" fill="#7f7f7f"/>
<circle cx="90" cy="432" r="2.5" fill="#7f7f7f"/>
<circle cx="110" cy="444" r="2.5" fill="#7f7f7f"/>
<circle cx="131" cy="444" r="2.5" fill="#7f7f7f"/>
<circle cx="151" cy="485" r="2.5" fill="#7f7f7f"/>
<circle cx="171" cy="485" r="2.5" fill="#7f7f7f"/>
<circle cx="191" cy="485" r="2.5" fill="#7f7f7f"/>
<circle cx="211" cy="485" r="2.5" fill="#7f7f7f"/>
<circle cx="232" cy="485" r="2.5" fill="#7f7f7f"/>
<circle cx="252" cy="485" r="2.5" fill="#7f7f7f"/>
<circle cx="272" cy="490" r="2.5" fill="#7f7f7f"/>
<circle cx="292" cy="485" r="2.5" fill="#7f7f7f"/>
<circle cx="312" cy="485" r="2.5" fill="#7f7f7f"/>
<circle cx="333" cy="485" r="2.5" fill="#7f7f7f"/>
<circle cx="353" cy="485" r="2.5" fill="#7f7f7f"/>
<circle cx="373" cy="485" r="2.5" fill="#7f7f7f"/>
<circle cx="393" cy="485" r="2.5" fill="#7f7f7f"/>
<circle cx="414" cy="485" r="2.5" fill="#7f7f7f"/>
<circle cx="434" cy="485" r="2.5" fill="#7f7f7f"/>
<circle cx="454" cy="485" r="2.5" fill="#7f7f7f"/>
<circle cx="474" cy="485" r="2.5" fill="#7f7f7f"/>
<circle cx="494" cy="485" r="2.5" fill="#7f7f7f"/>
<circle cx="515" cy="485" r="2.5" fill="#7f7f7f"/>
<circle cx="535" cy="485" r="2.5" fill="#7f7f7f"/>
<circle cx="555" cy="485" r="2.5" fill="#7f7f7f"/>
<circle cx="575" cy="485" r="2.5" fill="#7f7f7f"/>
<circle cx="595" cy="485" r="2.5" fill="#7f7f7f"/>
<circle cx="616" cy="485" r="2.5" fill="#7f7f7f"/>
<circle cx="636" cy="485" r="2.5" fill="#7f7f7f"/>
<circle cx="656" cy="485" r="2.5" fill="#7f7f7f"/>
<circle cx="676" cy="485" r="2.5" fill="#7f7f7f"/>
<circle cx="696" cy="485" r="2.5" fill="#7f7f7f"/>
<circle cx="717" cy="485" r="2.5" fill="#7f7f7f"/>
<circle cx="737" cy="485" r="2.5" fill="#7f7f7f"/>
<circle cx="757" cy="485" r="2.5" fill="#7f7f7f"/>
<circle cx="777" cy="485" r="2.5" fill="#7f7f7f"/>
<circle cx="798" cy="485" r="2.5" fill="#7f7f7f"/>
<circle cx="818" cy="485" r="2.5" fill="#7f7f7f"/>
<circle cx="838" cy="485" r="2.5" fill="#7f7f7f"/>
<circle cx="858" cy="485" r="2.5" fill="#7f7f7f"/>
<circle cx="878" cy="485" r="2.5" fill="#7f7f7f"/>
<circle cx="899" cy="486" r="2.5" fill="#7f7f7f"/>
<circle cx="919" cy="485" r="2.5" fill="#7f7f7f"/>
<circle cx="939" cy="485" r="2.5" fill="#7f7f7f"/>
<circle cx="959" cy="485" r="2.5" fill="#7f7f7f"/>
<circle cx="979" cy="485" r="2.5" fill="#7f7f7f"/>
<circle cx="1000" cy="485" r="2.5" fill="#7f7f7f"/>
<circle cx="1020" cy="485" r="2.5" fill="#7f7f7f"/>
<circle cx="1040" cy="485" r="2.5" fill="#7f7f7f"/>
<line x1="1060" y1="214" x2="1082" y2="214" stroke="#7f7f7f" stroke-width="2.5"/>
<text x="1088" y="218" font-size="11" font-family="Arial" fill="#111">Noun/adjective lacks '/' ending</text>
<text x="555" y="540" font-size="11" font-family="Arial" fill="#444">Run sequence</text>
</svg>
