<svg xmlns="http://www.w3.org/2000/svg" width="1100" height="520">
<rect x="0" y="0" width="1100" height="520" fill="#ffffff"/>
<text x="70" y="30" font-size="20" font-family="Arial" fill="#111">Morphology Lint Trend by Severity</text>
<line x1="70" y1="450" x2="840" y2="450" stroke="#e6e6e6" stroke-width="1"/>
<text x="62" y="454" font-size="11" font-family="Arial" fill="#333" text-anchor="end">0</text>
<line x1="70" y1="370" x2="840" y2="370" stroke="#e6e6e6" stroke-width="1"/>
<text x="62" y="374" font-size="11" font-family="Arial" fill="#333" text-anchor="end">4865</text>
<line x1="70" y1="290" x2="840" y2="290" stroke="#e6e6e6" stroke-width="1"/>
<text x="62" y="294" font-size="11" font-family="Arial" fill="#333" text-anchor="end">9730</text>
<line x1="70" y1="210" x2="840" y2="210" stroke="#e6e6e6" stroke-width="1"/>
<text x="62" y="214" font-size="11" font-family="Arial" fill="#333" text-anchor="end">14596</text>
<line x1="70" y1="130" x2="840" y2="130" stroke="#e6e6e6" stroke-width="1"/>
<text x="62" y="134" font-size="11" font-family="Arial" fill="#333" text-anchor="end">19461</text>
<line x1="70" y1="50" x2="840" y2="50" stroke="#e6e6e6" stroke-width="1"/>
<text x="62" y="54" font-size="11" font-family="Arial" fill="#333" text-anchor="end">24326</text>
<line x1="70" y1="450" x2="840" y2="450" stroke="#333" stroke-width="1.2"/>
<line x1="70" y1="50" x2="70" y2="450" stroke="#333" stroke-width="1.2"/>
<line x1="70" y1="450" x2="70" y2="454" stroke="#666" stroke-width="1"/>
<text x="70" y="468" font-size="10" font-family="Arial" fill="#333" text-anchor="middle">1</text>
<line x1="135" y1="450" x2="135" y2="454" stroke="#666" stroke-width="1"/>
<text x="135" y="468" font-size="10" font-family="Arial" fill="#333" text-anchor="middle">6</text>
<line x1="201" y1="450" x2="201" y2="454" stroke="#666" stroke-width="1"/>
<text x="201" y="468" font-size="10" font-family="Arial" fill="#333" text-anchor="middle">11</text>
<line x1="266" y1="450" x2="266" y2="454" stroke="#666" stroke-width="1"/>
<text x="266" y="468" font-size="10" font-family="Arial" fill="#333" text-anchor="middle">16</text>
<line x1="331" y1="450" x2="331" y2="454" stroke="#666" stroke-width="1"/>
<text x="331" y="468" font-size="10" font-family="Arial" fill="#333" text-anchor="middle">21</text>
<line x1="396" y1="450" x2="396" y2="454" stroke="#666" stroke-width="1"/>
<text x="396" y="468" font-size="10" font-family="Arial" fill="#333" text-anchor="middle">26</text>
<line x1="462" y1="450" x2="462" y2="454" stroke="#666" stroke-width="1"/>
<text x="462" y="468" font-size="10" font-family="Arial" fill="#333" text-anchor="middle">31</text>
<line x1="527" y1="450" x2="527" y2="454" stroke="#666" stroke-width="1"/>
<text x="527" y="468" font-size="10" font-family="Arial" fill="#333" text-anchor="middle">36</text>
<line x1="592" y1="450" x2="592" y2="454" stroke="#666" stroke-width="1"/>
<text x="592" y="468" font-size="10" font-family="Arial" fill="#333" text-anchor="middle">41</text>
<line x1="657" y1="450" x2="657" y2="454" stroke="#666" stroke-width="1"/>
<text x="657" y="468" font-size="10" font-family="Arial" fill="#333" text-anchor="middle">46</text>
<line x1="723" y1="450" x2="723" y2="454" stroke="#666" stroke-width="1"/>
<text x="723" y="468" font-size="10" font-family="Arial" fill="#333" text-anchor="middle">51</text>
<line x1="788" y1="450" x2="788" y2="454" stroke="#666" stroke-width="1"/>
<text x="788" y="468" font-size="10" font-family="Arial" fill="#333" text-anchor="middle">56</text>
<line x1="840" y1="450" x2="840" y2="454" stroke="#666" stroke-width="1"/>
<text x="840" y="468" font-size="10" font-family="Arial" fill="#333" text-anchor="middle">60</text>
<polyline fill="none" stroke="#d62728" stroke-width="2.2" points="70,50 83,347 96,347 109,347 122,347 135,347 148,347 161,347 174,346 187,346 201,344 214,251 227,252 240,345 253,334 266,347 279,347 292,347 305,347 318,344 331,339 344,349 357,348 370,357 383,357 396,354 409,354 422,354 435,356 448,356 462,360 475,360 488,360 501,360 514,360 527,360 540,355 553,307 566,307 579,358 592,358 605,358 618,359 631,359 644,364 657,364 670,364 683,364 696,366 709,366 723,366 736,365 749,365 762,272 775,272 788,259 801,246 814,246 827,356 840,365"/>
<circle cx="70" cy="50" r="2.5" fill="#d62728"/>
<circle cx="83" cy="347" r="2.5" fill="#d62728"/>
<circle cx="96" cy="347" r="2.5" fill="#d62728"/>
<circle cx="109" cy="347" r="2.5" fill="#d62728"/>
<circle cx="122" cy="347" r="2.5" fill="#d62728"/>
<circle cx="135" cy="347" r="2.5" fill="#d62728"/>
<circle cx="148" cy="347" r="2.5" fill="#d62728"/>
<circle cx="161" cy="347" r="2.5" fill="#d62728"/>
<circle cx="174" cy="346" r="2.5" fill="#d62728"/>
<circle cx="187" cy="346" r="2.5" fill="#d62728"/>
<circle cx="201" cy="344" r="2.5" fill="#d62728"/>
<circle cx="214" cy="251" r="2.5" fill="#d62728"/>
<circle cx="227" cy="252" r="2.5" fill="#d62728"/>
<circle cx="240" cy="345" r="2.5" fill="#d62728"/>
<circle cx="253" cy="334" r="2.5" fill="#d62728"/>
<circle cx="266" cy="347" r="2.5" fill="#d62728"/>
<circle cx="279" cy="347" r="2.5" fill="#d62728"/>
<circle cx="292" cy="347" r="2.5" fill="#d62728"/>
<circle cx="305" cy="347" r="2.5" fill="#d62728"/>
<circle cx="318" cy="344" r="2.5" fill="#d62728"/>
<circle cx="331" cy="339" r="2.5" fill="#d62728"/>
<circle cx="344" cy="349" r="2.5" fill="#d62728"/>
<circle cx="357" cy="348" r="2.5" fill="#d62728"/>
<circle cx="370" cy="357" r="2.5" fill="#d62728"/>
<circle cx="383" cy="357" r="2.5" fill="#d62728"/>
<circle cx="396" cy="354" r="2.5" fill="#d62728"/>
<circle cx="409" cy="354" r="2.5" fill="#d62728"/>
<circle cx="422" cy="354" r="2.5" fill="#d62728"/>
<circle cx="435" cy="356" r="2.5" fill="#d62728"/>
<circle cx="448" cy="356" r="2.5" fill="#d62728"/>
<circle cx="462" cy="360" r="2.5" fill="#d62728"/>
<circle cx="475" cy="360" r="2.5" fill="#d62728"/>
<circle cx="488" cy="360" r="2.5" fill="#d62728"/>
<circle cx="501" cy="360" r="2.5" fill="#d62728"/>
<circle cx="514" cy="360" r="2.5" fill="#d62728"/>
<circle cx="527" cy="360" r="2.5" fill="#d62728"/>
<circle cx="540" cy="355" r="2.5" fill="#d62728"/>
<circle cx="553" cy="307" r="2.5" fill="#d62728"/>
<circle cx="566" cy="307" r="2.5" fill="#d62728"/>
<circle cx="579" cy="358" r="2.5" fill="#d62728"/>
<circle cx="592" cy="358" r="2.5" fill="#d62728"/>
<circle cx="605" cy="358" r="2.5" fill="#d62728"/>
<circle cx="618" cy="359" r="2.5" fill="#d62728"/>
<circle cx="631" cy="359" r="2.5" fill="#d62728"/>
<circle cx="644" cy="364" r="2.5" fill="#d62728"/>
<circle cx="657" cy="364" r="2.5" fill="#d62728"/>
<circle cx="670" cy="364" r="2.5" fill="#d62728"/>
<circle cx="683" cy="364" r="2.5" fill="#d62728"/>
<circle cx="696" cy="366" r="2.5" fill="#d62728"/>
<circle cx="709" cy="366" r="2.5" fill="#d62728"/>
<circle cx="723" cy="366" r="2.5" fill="#d62728"/>
<circle cx="736" cy="365" r="2.5" fill="#d62728"/>
<circle cx="749" cy="365" r="2.5" fill="#d62728"/>
<circle cx="762" cy="272" r="2.5" fill="#d62728"/>
<circle cx="775" cy="272" r="2.5" fill="#d62728"/>
<circle cx="788" cy="259" r="2.5" fill="#d62728"/>
<circle cx="801" cy="246" r="2.5" fill="#d62728"/>
<circle cx="814" cy="246" r="2.5" fill="#d62728"/>
<circle cx="827" cy="356" r="2.5" fill="#d62728"/>
<circle cx="840" cy="365" r="2.5" fill="#d62728"/>
<line x1="860" y1="74" x2="882" y2="74" stroke="#d62728" stroke-width="2.5"/>
<text x="888" y="78" font-size="11" font-family="Arial" fill="#111">ERROR</text>
<polyline fill="none" stroke="#ff7f0e" stroke-width="2.2" points="70,418 83,435 96,435 109,435 122,435 135,435 148,435 161,435 174,435 187,434 201,434 214,434 227,435 240,435 253,444 266,444 279,443 292,443 305,443 318,434 331,436 344,444 357,444 370,444 383,444 396,443 409,443 422,443 435,443 448,443 462,443 475,443 488,443 501,443 514,443 527,443 540,443 553,442 566,442 579,443 592,443 605,443 618,443 631,443 644,444 657,444 670,443 683,443 696,443 709,443 723,443 736,443 749,443 762,197 775,197 788,193 801,188 814,209 827,430 840,443"/>
<circle cx="70" cy="418" r="2.5" fill="#ff7f0e"/>
<circle cx="83" cy="435" r="2.5" fill="#ff7f0e"/>
<circle cx="96" cy="435" r="2.5" fill="#ff7f0e"/>
<circle cx="109" cy="435" r="2.5" fill="#ff7f0e"/>
<circle cx="122" cy="435" r="2.5" fill="#ff7f0e"/>
<circle cx="135" cy="435" r="2.5" fill="#ff7f0e"/>
<circle cx="148" cy="435" r="2.5" fill="#ff7f0e"/>
<circle cx="161" cy="435" r="2.5" fill="#ff7f0e"/>
<circle cx="174" cy="435" r="2.5" fill="#ff7f0e"/>
<circle cx="187" cy="434" r="2.5" fill="#ff7f0e"/>
<circle cx="201" cy="434" r="2.5" fill="#ff7f0e"/>
<circle cx="214" cy="434" r="2.5" fill="#ff7f0e"/>
<circle cx="227" cy="435" r="2.5" fill="#ff7f0e"/>
<circle cx="240" cy="435" r="2.5" fill="#ff7f0e"/>
<circle cx="253" cy="444" r="2.5" fill="#ff7f0e"/>
<circle cx="266" cy="444" r="2.5" fill="#ff7f0e"/>
<circle cx="279" cy="443" r="2.5" fill="#ff7f0e"/>
<circle cx="292" cy="443" r="2.5" fill="#ff7f0e"/>
<circle cx="305" cy="443" r="2.5" fill="#ff7f0e"/>
<circle cx="318" cy="434" r="2.5" fill="#ff7f0e"/>
<circle cx="331" cy="436" r="2.5" fill="#ff7f0e"/>
<circle cx="344" cy="444" r="2.5" fill="#ff7f0e"/>
<circle cx="357" cy="444" r="2.5" fill="#ff7f0e"/>
<circle cx="370" cy="444" r="2.5" fill="#ff7f0e"/>
<circle cx="383" cy="444" r="2.5" fill="#ff7f0e"/>
<circle cx="396" cy="443" r="2.5" fill="#ff7f0e"/>
<circle cx="409" cy="443" r="2.5" fill="#ff7f0e"/>
<circle cx="422" cy="443" r="2.5" fill="#ff7f0e"/>
<circle cx="435" cy="443" r="2.5" fill="#ff7f0e"/>
<circle cx="448" cy="443" r="2.5" fill="#ff7f0e"/>
<circle cx="462" cy="443" r="2.5" fill="#ff7f0e"/>
<circle cx="475" cy="443" r="2.5" fill="#ff7f0e"/>
<circle cx="488" cy="443" r="2.5" fill="#ff7f0e"/>
<circle cx="501" cy="443" r="2.5" fill="#ff7f0e"/>
<circle cx="514" cy="443" r="2.5" fill="#ff7f0e"/>
<circle cx="527" cy="443" r="2.5" fill="#ff7f0e"/>
<circle cx="540" cy="443" r="2.5" fill="#ff7f0e"/>
<circle cx="553" cy="442" r="2.5" fill="#ff7f0e"/>
<circle cx="566" cy="442" r="2.5" fill="#ff7f0e"/>
<circle cx="579" cy="443" r="2.5" fill="#ff7f0e"/>
<circle cx="592" cy="443" r="2.5" fill="#ff7f0e"/>
<circle cx="605" cy="443" r="2.5" fill="#ff7f0e"/>
<circle cx="618" cy="443" r="2.5" fill="#ff7f0e"/>
<circle cx="631" cy="443" r="2.5" fill="#ff7f0e"/>
<circle cx="644" cy="444" r="2.5" fill="#ff7f0e"/>
<circle cx="657" cy="444" r="2.5" fill="#ff7f0e"/>
<circle cx="670" cy="443" r="2.5" fill="#ff7f0e"/>
<circle cx="683" cy="443" r="2.5" fill="#ff7f0e"/>
<circle cx="696" cy="443" r="2.5" fill="#ff7f0e"/>
<circle cx="709" cy="443" r="2.5" fill="#ff7f0e"/>
<circle cx="723" cy="443" r="2.5" fill="#ff7f0e"/>
<circle cx="736" cy="443" r="2.5" fill="#ff7f0e"/>
<circle cx="749" cy="443" r="2.5" fill="#ff7f0e"/>
<circle cx="762" cy="197" r="2.5" fill="#ff7f0e"/>
<circle cx="775" cy="197" r="2.5" fill="#ff7f0e"/>
<circle cx="788" cy="193" r="2.5" fill="#ff7f0e"/>
<circle cx="801" cy="188" r="2.5" fill="#ff7f0e"/>
<circle cx="814" cy="209" r="2.5" fill="#ff7f0e"/>
<circle cx="827" cy="430" r="2.5" fill="#ff7f0e"/>
<circle cx="840" cy="443" r="2.5" fill="#ff7f0e"/>
<line x1="860" y1="94" x2="882" y2="94" stroke="#ff7f0e" stroke-width="2.5"/>
<text x="888" y="98" font-size="11" font-family="Arial" fill="#111">WARNING</text>
<polyline fill="none" stroke="#1f77b4" stroke-width="2.2" points="70,423 83,423 96,423 109,423 122,423 135,423 148,423 161,423 174,423 187,423 201,423 214,423 227,423 240,423 253,423 266,423 279,423 292,423 305,423 318,423 331,423 344,423 357,423 370,423 383,423 396,423 409,423 422,423 435,423 448,423 462,423 475,423 488,423 501,423 514,423 527,423 540,423 553,422 566,422 579,423 592,423 605,423 618,423 631,423 644,423 657,423 670,423 683,423 696,423 709,423 723,423 736,423 749,423 762,419 775,419 788,414 801,409 814,409 827,409 840,423"/>
<circle cx="70" cy="423" r="2.5" fill="#1f77b4"/>
<circle cx="83" cy="423" r="2.5" fill="#1f77b4"/>
<circle cx="96" cy="423" r="2.5" fill="#1f77b4"/>
<circle cx="109" cy="423" r="2.5" fill="#1f77b4"/>
<circle cx="122" cy="423" r="2.5" fill="#1f77b4"/>
<circle cx="135" cy="423" r="2.5" fill="#1f77b4"/>
<circle cx="148" cy="423" r="2.5" fill="#1f77b4"/>
<circle cx="161" cy="423" r="2.5" fill="#1f77b4"/>
<circle cx="174" cy="423" r="2.5" fill="#1f77b4"/>
<circle cx="187" cy="423" r="2.5" fill="#1f77b4"/>
<circle cx="201" cy="423" r="2.5" fill="#1f77b4"/>
<circle cx="214" cy="423" r="2.5" fill="#1f77b4"/>
<circle cx="227" cy="423" r="2.5" fill="#1f77b4"/>
<circle cx="240" cy="423" r="2.5" fill="#1f77b4"/>
<circle cx="253" cy="423" r="2.5" fill="#1f77b4"/>
<circle cx="266" cy="423" r="2.5" fill="#1f77b4"/>
<circle cx="279" cy="423" r="2.5" fill="#1f77b4"/>
<circle cx="292" cy="423" r="2.5" fill="#1f77b4"/>
<circle cx="305" cy="423" r="2.5" fill="#1f77b4"/>
<circle cx="318" cy="423" r="2.5" fill="#1f77b4"/>
<circle cx="331" cy="423" r="2.5" fill="#1f77b4"/>
<circle cx="344" cy="423" r="2.5" fill="#1f77b4"/>
<circle cx="357" cy="423" r="2.5" fill="#1f77b4"/>
<circle cx="370" cy="423" r="2.5" fill="#1f77b4"/>
<circle cx="383" cy="423" r="2.5" fill="#1f77b4"/>
<circle cx="396" cy="423" r="2.5" fill="#1f77b4"/>
<circle cx="409" cy="423" r="2.5" fill="#1f77b4"/>
<circle cx="422" cy="423" r="2.5" fill="#1f77b4"/>
<circle cx="435" cy="423" r="2.5" fill="#1f77b4"/>
<circle cx="448" cy="423" r="2.5" fill="#1f77b4"/>
<circle cx="462" cy="423" r="2.5" fill="#1f77b4"/>
<circle cx="475" cy="423" r="2.5" fill="#1f77b4"/>
<circle cx="488" cy="423" r="2.5" fill="#1f77b4"/>
<circle cx="501" cy="423" r="2.5" fill="#1f77b4"/>
<circle cx="514" cy="423" r="2.5" fill="#1f77b4"/>
<circle cx="527" cy="423" r="2.5" fill="#1f77b4"/>
<circle cx="540" cy="423" r="2.5" fill="#1f77b4"/>
<circle cx="553" cy="422" r="2.5" fill="#1f77b4"/>
<circle cx="566" cy="422" r="2.5" fill="#1f77b4"/>
<circle cx="579" cy="423" r="2.5" fill="#1f77b4"/>
<circle cx="592" cy="423" r="2.5" fill="#1f77b4"/>
<circle cx="605" cy="423" r="2.5" fill="#1f77b4"/>
<circle cx="618" cy="423" r="2.5" fill="#1f77b4"/>
<circle cx="631" cy="423" r="2.5" fill="#1f77b4"/>
<circle cx="644" cy="423" r="2.5" fill="#1f77b4"/>
<circle cx="657" cy="423" r="2.5" fill="#1f77b4"/>
<circle cx="670" cy="423" r="2.5" fill="#1f77b4"/>
<circle cx="683" cy="423" r="2.5" fill="#1f77b4"/>
<circle cx="696" cy="423" r="2.5" fill="#1f77b4"/>
<circle cx="709" cy="423" r="2.5" fill="#1f77b4"/>
<circle cx="723" cy="423" r="2.5" fill="#1f77b4"/>
<circle cx="736" cy="423" r="2.5" fill="#1f77b4"/>
<circle cx="749" cy="423" r="2.5" fill="#1f77b4"/>
<circle cx="762" cy="419" r="2.5" fill="#1f77b4"/>
<circle cx="775" cy="419" r="2.5" fill="#1f77b4"/>
<circle cx="788" cy="414" r="2.5" fill="#1f77b4"/>
<circle cx="801" cy="409" r="2.5" fill="#1f77b4"/>
<circle cx="814" cy="409" r="2.5" fill="#1f77b4"/>
<circle cx="827" cy="409" r="2.5" fill="#1f77b4"/>
<circle cx="840" cy="423" r="2.5" fill="#1f77b4"/>
<line x1="860" y1="114" x2="882" y2="114" stroke="#1f77b4" stroke-width="2.5"/>
<text x="888" y="118" font-size="11" font-family="Arial" fill="#111">INFO</text>
<text x="455" y="500" font-size="11" font-family="Arial" fill="#444">Run sequence</text>
</svg>
