<svg xmlns="http://www.w3.org/2000/svg" width="1100" height="520">
<rect x="0" y="0" width="1100" height="520" fill="#ffffff"/>
<text x="70" y="30" font-size="20" font-family="Arial" fill="#111">Morphology Lint Trend by Severity</text>
<line x1="70" y1="450" x2="840" y2="450" stroke="#e6e6e6" stroke-width="1"/>
<text x="62" y="454" font-size="11" font-family="Arial" fill="#333" text-anchor="end">0</text>
<line x1="70" y1="370" x2="840" y2="370" stroke="#e6e6e6" stroke-width="1"/>
<text x="62" y="374" font-size="11" font-family="Arial" fill="#333" text-anchor="end">2377</text>
<line x1="70" y1="290" x2="840" y2="290" stroke="#e6e6e6" stroke-width="1"/>
<text x="62" y="294" font-size="11" font-family="Arial" fill="#333" text-anchor="end">4754</text>
<line x1="70" y1="210" x2="840" y2="210" stroke="#e6e6e6" stroke-width="1"/>
<text x="62" y="214" font-size="11" font-family="Arial" fill="#333" text-anchor="end">7131</text>
<line x1="70" y1="130" x2="840" y2="130" stroke="#e6e6e6" stroke-width="1"/>
<text x="62" y="134" font-size="11" font-family="Arial" fill="#333" text-anchor="end">9508</text>
<line x1="70" y1="50" x2="840" y2="50" stroke="#e6e6e6" stroke-width="1"/>
<text x="62" y="54" font-size="11" font-family="Arial" fill="#333" text-anchor="end">11885</text>
<line x1="70" y1="450" x2="840" y2="450" stroke="#333" stroke-width="1.2"/>
<line x1="70" y1="50" x2="70" y2="450" stroke="#333" stroke-width="1.2"/>
<line x1="70" y1="450" x2="70" y2="454" stroke="#666" stroke-width="1"/>
<text x="70" y="468" font-size="10" font-family="Arial" fill="#333" text-anchor="middle">1</text>
<line x1="118" y1="450" x2="118" y2="454" stroke="#666" stroke-width="1"/>
<text x="118" y="468" font-size="10" font-family="Arial" fill="#333" text-anchor="middle">2</text>
<line x1="166" y1="450" x2="166" y2="454" stroke="#666" stroke-width="1"/>
<text x="166" y="468" font-size="10" font-family="Arial" fill="#333" text-anchor="middle">3</text>
<line x1="214" y1="450" x2="214" y2="454" stroke="#666" stroke-width="1"/>
<text x="214" y="468" font-size="10" font-family="Arial" fill="#333" text-anchor="middle">4</text>
<line x1="262" y1="450" x2="262" y2="454" stroke="#666" stroke-width="1"/>
<text x="262" y="468" font-size="10" font-family="Arial" fill="#333" text-anchor="middle">5</text>
<line x1="311" y1="450" x2="311" y2="454" stroke="#666" stroke-width="1"/>
<text x="311" y="468" font-size="10" font-family="Arial" fill="#333" text-anchor="middle">6</text>
<line x1="359" y1="450" x2="359" y2="454" stroke="#666" stroke-width="1"/>
<text x="359" y="468" font-size="10" font-family="Arial" fill="#333" text-anchor="middle">7</text>
<line x1="407" y1="450" x2="407" y2="454" stroke="#666" stroke-width="1"/>
<text x="407" y="468" font-size="10" font-family="Arial" fill="#333" text-anchor="middle">8</text>
<line x1="455" y1="450" x2="455" y2="454" stroke="#666" stroke-width="1"/>
<text x="455" y="468" font-size="10" font-family="Arial" fill="#333" text-anchor="middle">9</text>
<line x1="503" y1="450" x2="503" y2="454" stroke="#666" stroke-width="1"/>
<text x="503" y="468" font-size="10" font-family="Arial" fill="#333" text-anchor="middle">10</text>
<line x1="551" y1="450" x2="551" y2="454" stroke="#666" stroke-width="1"/>
<text x="551" y="468" font-size="10" font-family="Arial" fill="#333" text-anchor="middle">11</text>
<line x1="599" y1="450" x2="599" y2="454" stroke="#666" stroke-width="1"/>
<text x="599" y="468" font-size="10" font-family="Arial" fill="#333" text-anchor="middle">12</text>
<line x1="648" y1="450" x2="648" y2="454" stroke="#666" stroke-width="1"/>
<text x="648" y="468" font-size="10" font-family="Arial" fill="#333" text-anchor="middle">13</text>
<line x1="696" y1="450" x2="696" y2="454" stroke="#666" stroke-width="1"/>
<text x="696" y="468" font-size="10" font-family="Arial" fill="#333" text-anchor="middle">14</text>
<line x1="744" y1="450" x2="744" y2="454" stroke="#666" stroke-width="1"/>
<text x="744" y="468" font-size="10" font-family="Arial" fill="#333" text-anchor="middle">15</text>
<line x1="792" y1="450" x2="792" y2="454" stroke="#666" stroke-width="1"/>
<text x="792" y="468" font-size="10" font-family="Arial" fill="#333" text-anchor="middle">16</text>
<line x1="840" y1="450" x2="840" y2="454" stroke="#666" stroke-width="1"/>
<text x="840" y="468" font-size="10" font-family="Arial" fill="#333" text-anchor="middle">17</text>
<polyline fill="none" stroke="#d62728" stroke-width="2.2" points="70,415 118,50 166,109 214,109 262,250 311,250 359,250 407,196 455,197 503,198 551,182 599,228 648,249 696,261 744,261 792,280 840,280"/>
<circle cx="70" cy="415" r="2.5" fill="#d62728"/>
<circle cx="118" cy="50" r="2.5" fill="#d62728"/>
<circle cx="166" cy="109" r="2.5" fill="#d62728"/>
<circle cx="214" cy="109" r="2.5" fill="#d62728"/>
<circle cx="262" cy="250" r="2.5" fill="#d62728"/>
<circle cx="311" cy="250" r="2.5" fill="#d62728"/>
<circle cx="359" cy="250" r="2.5" fill="#d62728"/>
<circle cx="407" cy="196" r="2.5" fill="#d62728"/>
<circle cx="455" cy="197" r="2.5" fill="#d62728"/>
<circle cx="503" cy="198" r="2.5" fill="#d62728"/>
<circle cx="551" cy="182" r="2.5" fill="#d62728"/>
<circle cx="599" cy="228" r="2.5" fill="#d62728"/>
<circle cx="648" cy="249" r="2.5" fill="#d62728"/>
<circle cx="696" cy="261" r="2.5" fill="#d62728"/>
<circle cx="744" cy="261" r="2.5" fill="#d62728"/>
<circle cx="792" cy="280" r="2.5" fill="#d62728"/>
<circle cx="840" cy="280" r="2.5" fill="#d62728"/>
<line x1="860" y1="74" x2="882" y2="74" stroke="#d62728" stroke-width="2.5"/>
<text x="888" y="78" font-size="11" font-family="Arial" fill="#111">ERROR</text>
<polyline fill="none" stroke="#ff7f0e" stroke-width="2.2" points="70,441 118,71 166,94 214,94 262,94 311,375 359,375 407,396 455,396 503,396 551,372 599,391 648,410 696,410 744,411 792,421 840,446"/>
<circle cx="70" cy="441" r="2.5" fill="#ff7f0e"/>
<circle cx="118" cy="71" r="2.5" fill="#ff7f0e"/>
<circle cx="166" cy="94" r="2.5" fill="#ff7f0e"/>
<circle cx="214" cy="94" r="2.5" fill="#ff7f0e"/>
<circle cx="262" cy="94" r="2.5" fill="#ff7f0e"/>
<circle cx="311" cy="375" r="2.5" fill="#ff7f0e"/>
<circle cx="359" cy="375" r="2.5" fill="#ff7f0e"/>
<circle cx="407" cy="396" r="2.5" fill="#ff7f0e"/>
<circle cx="455" cy="396" r="2.5" fill="#ff7f0e"/>
<circle cx="503" cy="396" r="2.5" fill="#ff7f0e"/>
<circle cx="551" cy="372" r="2.5" fill="#ff7f0e"/>
<circle cx="599" cy="391" r="2.5" fill="#ff7f0e"/>
<circle cx="648" cy="410" r="2.5" fill="#ff7f0e"/>
<circle cx="696" cy="410" r="2.5" fill="#ff7f0e"/>
<circle cx="744" cy="411" r="2.5" fill="#ff7f0e"/>
<circle cx="792" cy="421" r="2.5" fill="#ff7f0e"/>
<circle cx="840" cy="446" r="2.5" fill="#ff7f0e"/>
<line x1="860" y1="94" x2="882" y2="94" stroke="#ff7f0e" stroke-width="2.5"/>
<text x="888" y="98" font-size="11" font-family="Arial" fill="#111">WARNING</text>
<polyline fill="none" stroke="#1f77b4" stroke-width="2.2" points="70,445 118,410 166,410 214,410 262,410 311,410 359,410 407,410 455,410 503,410 551,410 599,410 648,410 696,410 744,410 792,410 840,410"/>
<circle cx="70" cy="445" r="2.5" fill="#1f77b4"/>
<circle cx="118" cy="410" r="2.5" fill="#1f77b4"/>
<circle cx="166" cy="410" r="2.5" fill="#1f77b4"/>
<circle cx="214" cy="410" r="2.5" fill="#1f77b4"/>
<circle cx="262" cy="410" r="2.5" fill="#1f77b4"/>
<circle cx="311" cy="410" r="2.5" fill="#1f77b4"/>
<circle cx="359" cy="410" r="2.5" fill="#1f77b4"/>
<circle cx="407" cy="410" r="2.5" fill="#1f77b4"/>
<circle cx="455" cy="410" r="2.5" fill="#1f77b4"/>
<circle cx="503" cy="410" r="2.5" fill="#1f77b4"/>
<circle cx="551" cy="410" r="2.5" fill="#1f77b4"/>
<circle cx="599" cy="410" r="2.5" fill="#1f77b4"/>
<circle cx="648" cy="410" r="2.5" fill="#1f77b4"/>
<circle cx="696" cy="410" r="2.5" fill="#1f77b4"/>
<circle cx="744" cy="410" r="2.5" fill="#1f77b4"/>
<circle cx="792" cy="410" r="2.5" fill="#1f77b4"/>
<circle cx="840" cy="410" r="2.5" fill="#1f77b4"/>
<line x1="860" y1="114" x2="882" y2="114" stroke="#1f77b4" stroke-width="2.5"/>
<text x="888" y="118" font-size="11" font-family="Arial" fill="#111">INFO</text>
<text x="455" y="500" font-size="11" font-family="Arial" fill="#444">Run sequence</text>
</svg>
