<svg xmlns="http://www.w3.org/2000/svg" width="1100" height="520">
<rect x="0" y="0" width="1100" height="520" fill="#ffffff"/>
<text x="70" y="30" font-size="20" font-family="Arial" fill="#111">Morphology Lint Trend by Severity</text>
<line x1="70" y1="450" x2="840" y2="450" stroke="#e6e6e6" stroke-width="1"/>
<text x="62" y="454" font-size="11" font-family="Arial" fill="#333" text-anchor="end">0</text>
<line x1="70" y1="370" x2="840" y2="370" stroke="#e6e6e6" stroke-width="1"/>
<text x="62" y="374" font-size="11" font-family="Arial" fill="#333" text-anchor="end">2377</text>
<line x1="70" y1="290" x2="840" y2="290" stroke="#e6e6e6" stroke-width="1"/>
<text x="62" y="294" font-size="11" font-family="Arial" fill="#333" text-anchor="end">4754</text>
<line x1="70" y1="210" x2="840" y2="210" stroke="#e6e6e6" stroke-width="1"/>
<text x="62" y="214" font-size="11" font-family="Arial" fill="#333" text-anchor="end">7131</text>
<line x1="70" y1="130" x2="840" y2="130" stroke="#e6e6e6" stroke-width="1"/>
<text x="62" y="134" font-size="11" font-family="Arial" fill="#333" text-anchor="end">9508</text>
<line x1="70" y1="50" x2="840" y2="50" stroke="#e6e6e6" stroke-width="1"/>
<text x="62" y="54" font-size="11" font-family="Arial" fill="#333" text-anchor="end">11885</text>
<line x1="70" y1="450" x2="840" y2="450" stroke="#333" stroke-width="1.2"/>
<line x1="70" y1="50" x2="70" y2="450" stroke="#333" stroke-width="1.2"/>
<line x1="70" y1="450" x2="70" y2="454" stroke="#666" stroke-width="1"/>
<text x="70" y="468" font-size="10" font-family="Arial" fill="#333" text-anchor="middle">1</text>
<line x1="118" y1="450" x2="118" y2="454" stroke="#666" stroke-width="1"/>
<text x="118" y="468" font-size="10" font-family="Arial" fill="#333" text-anchor="middle">3</text>
<line x1="166" y1="450" x2="166" y2="454" stroke="#666" stroke-width="1"/>
<text x="166" y="468" font-size="10" font-family="Arial" fill="#333" text-anchor="middle">5</text>
<line x1="214" y1="450" x2="214" y2="454" stroke="#666" stroke-width="1"/>
<text x="214" y="468" font-size="10" font-family="Arial" fill="#333" text-anchor="middle">7</text>
<line x1="262" y1="450" x2="262" y2="454" stroke="#666" stroke-width="1"/>
<text x="262" y="468" font-size="10" font-family="Arial" fill="#333" text-anchor="middle">9</text>
<line x1="311" y1="450" x2="311" y2="454" stroke="#666" stroke-width="1"/>
<text x="311" y="468" font-size="10" font-family="Arial" fill="#333" text-anchor="middle">11</text>
<line x1="359" y1="450" x2="359" y2="454" stroke="#666" stroke-width="1"/>
<text x="359" y="468" font-size="10" font-family="Arial" fill="#333" text-anchor="middle">13</text>
<line x1="407" y1="450" x2="407" y2="454" stroke="#666" stroke-width="1"/>
<text x="407" y="468" font-size="10" font-family="Arial" fill="#333" text-anchor="middle">15</text>
<line x1="455" y1="450" x2="455" y2="454" stroke="#666" stroke-width="1"/>
<text x="455" y="468" font-size="10" font-family="Arial" fill="#333" text-anchor="middle">17</text>
<line x1="503" y1="450" x2="503" y2="454" stroke="#666" stroke-width="1"/>
<text x="503" y="468" font-size="10" font-family="Arial" fill="#333" text-anchor="middle">19</text>
<line x1="551" y1="450" x2="551" y2="454" stroke="#666" stroke-width="1"/>
<text x="551" y="468" font-size="10" font-family="Arial" fill="#333" text-anchor="middle">21</text>
<line x1="599" y1="450" x2="599" y2="454" stroke="#666" stroke-width="1"/>
<text x="599" y="468" font-size="10" font-family="Arial" fill="#333" text-anchor="middle">23</text>
<line x1="648" y1="450" x2="648" y2="454" stroke="#666" stroke-width="1"/>
<text x="648" y="468" font-size="10" font-family="Arial" fill="#333" text-anchor="middle">25</text>
<line x1="696" y1="450" x2="696" y2="454" stroke="#666" stroke-width="1"/>
<text x="696" y="468" font-size="10" font-family="Arial" fill="#333" text-anchor="middle">27</text>
<line x1="744" y1="450" x2="744" y2="454" stroke="#666" stroke-width="1"/>
<text x="744" y="468" font-size="10" font-family="Arial" fill="#333" text-anchor="middle">29</text>
<line x1="792" y1="450" x2="792" y2="454" stroke="#666" stroke-width="1"/>
<text x="792" y="468" font-size="10" font-family="Arial" fill="#333" text-anchor="middle">31</text>
<line x1="840" y1="450" x2="840" y2="454" stroke="#666" stroke-width="1"/>
<text x="840" y="468" font-size="10" font-family="Arial" fill="#333" text-anchor="middle">33</text>
<polyline fill="none" stroke="#d62728" stroke-width="2.2" points="70,415 94,50 118,109 142,109 166,250 190,250 214,250 238,196 262,197 287,198 311,182 335,228 359,249 383,261 407,261 431,280 455,280 479,279 503,280 527,280 551,280 575,280 599,280 623,280 648,280 672,280 696,279 720,279 744,280 768,280 792,280 816,283 840,285"/>
<circle cx="70" cy="415" r="2.5" fill="#d62728"/>
<circle cx="94" cy="50" r="2.5" fill="#d62728"/>
<circle cx="118" cy="109" r="2.5" fill="#d62728"/>
<circle cx="142" cy="109" r="2.5" fill="#d62728"/>
<circle cx="166" cy="250" r="2.5" fill="#d62728"/>
<circle cx="190" cy="250" r="2.5" fill="#d62728"/>
<circle cx="214" cy="250" r="2.5" fill="#d62728"/>
<circle cx="238" cy="196" r="2.5" fill="#d62728"/>
<circle cx="262" cy="197" r="2.5" fill="#d62728"/>
<circle cx="287" cy="198" r="2.5" fill="#d62728"/>
<circle cx="311" cy="182" r="2.5" fill="#d62728"/>
<circle cx="335" cy="228" r="2.5" fill="#d62728"/>
<circle cx="359" cy="249" r="2.5" fill="#d62728"/>
<circle cx="383" cy="261" r="2.5" fill="#d62728"/>
<circle cx="407" cy="261" r="2.5" fill="#d62728"/>
<circle cx="431" cy="280" r="2.5" fill="#d62728"/>
<circle cx="455" cy="280" r="2.5" fill="#d62728"/>
<circle cx="479" cy="279" r="2.5" fill="#d62728"/>
<circle cx="503" cy="280" r="2.5" fill="#d62728"/>
<circle cx="527" cy="280" r="2.5" fill="#d62728"/>
<circle cx="551" cy="280" r="2.5" fill="#d62728"/>
<circle cx="575" cy="280" r="2.5" fill="#d62728"/>
<circle cx="599" cy="280" r="2.5" fill="#d62728"/>
<circle cx="623" cy="280" r="2.5" fill="#d62728"/>
<circle cx="648" cy="280" r="2.5" fill="#d62728"/>
<circle cx="672" cy="280" r="2.5" fill="#d62728"/>
<circle cx="696" cy="279" r="2.5" fill="#d62728"/>
<circle cx="720" cy="279" r="2.5" fill="#d62728"/>
<circle cx="744" cy="280" r="2.5" fill="#d62728"/>
<circle cx="768" cy="280" r="2.5" fill="#d62728"/>
<circle cx="792" cy="280" r="2.5" fill="#d62728"/>
<circle cx="816" cy="283" r="2.5" fill="#d62728"/>
<circle cx="840" cy="285" r="2.5" fill="#d62728"/>
<line x1="860" y1="74" x2="882" y2="74" stroke="#d62728" stroke-width="2.5"/>
<text x="888" y="78" font-size="11" font-family="Arial" fill="#111">ERROR</text>
<polyline fill="none" stroke="#ff7f0e" stroke-width="2.2" points="70,441 94,71 118,94 142,94 166,94 190,375 214,375 238,396 262,396 287,396 311,372 335,391 359,410 383,410 407,411 431,421 455,446 479,445 503,446 527,446 551,446 575,446 599,446 623,446 648,446 672,446 696,445 720,445 744,445 768,445 792,445 816,445 840,445"/>
<circle cx="70" cy="441" r="2.5" fill="#ff7f0e"/>
<circle cx="94" cy="71" r="2.5" fill="#ff7f0e"/>
<circle cx="118" cy="94" r="2.5" fill="#ff7f0e"/>
<circle cx="142" cy="94" r="2.5" fill="#ff7f0e"/>
<circle cx="166" cy="94" r="2.5" fill="#ff7f0e"/>
<circle cx="190" cy="375" r="2.5" fill="#ff7f0e"/>
<circle cx="214" cy="375" r="2.5" fill="#ff7f0e"/>
<circle cx="238" cy="396" r="2.5" fill="#ff7f0e"/>
<circle cx="262" cy="396" r="2.5" fill="#ff7f0e"/>
<circle cx="287" cy="396" r="2.5" fill="#ff7f0e"/>
<circle cx="311" cy="372" r="2.5" fill="#ff7f0e"/>
<circle cx="335" cy="391" r="2.5" fill="#ff7f0e"/>
<circle cx="359" cy="410" r="2.5" fill="#ff7f0e"/>
<circle cx="383" cy="410" r="2.5" fill="#ff7f0e"/>
<circle cx="407" cy="411" r="2.5" fill="#ff7f0e"/>
<circle cx="431" cy="421" r="2.5" fill="#ff7f0e"/>
<circle cx="455" cy="446" r="2.5" fill="#ff7f0e"/>
<circle cx="479" cy="445" r="2.5" fill="#ff7f0e"/>
<circle cx="503" cy="446" r="2.5" fill="#ff7f0e"/>
<circle cx="527" cy="446" r="2.5" fill="#ff7f0e"/>
<circle cx="551" cy="446" r="2.5" fill="#ff7f0e"/>
<circle cx="575" cy="446" r="2.5" fill="#ff7f0e"/>
<circle cx="599" cy="446" r="2.5" fill="#ff7f0e"/>
<circle cx="623" cy="446" r="2.5" fill="#ff7f0e"/>
<circle cx="648" cy="446" r="2.5" fill="#ff7f0e"/>
<circle cx="672" cy="446" r="2.5" fill="#ff7f0e"/>
<circle cx="696" cy="445" r="2.5" fill="#ff7f0e"/>
<circle cx="720" cy="445" r="2.5" fill="#ff7f0e"/>
<circle cx="744" cy="445" r="2.5" fill="#ff7f0e"/>
<circle cx="768" cy="445" r="2.5" fill="#ff7f0e"/>
<circle cx="792" cy="445" r="2.5" fill="#ff7f0e"/>
<circle cx="816" cy="445" r="2.5" fill="#ff7f0e"/>
<circle cx="840" cy="445" r="2.5" fill="#ff7f0e"/>
<line x1="860" y1="94" x2="882" y2="94" stroke="#ff7f0e" stroke-width="2.5"/>
<text x="888" y="98" font-size="11" font-family="Arial" fill="#111">WARNING</text>
<polyline fill="none" stroke="#1f77b4" stroke-width="2.2" points="70,445 94,410 118,410 142,410 166,410 190,410 214,410 238,410 262,410 287,410 311,410 335,410 359,410 383,410 407,410 431,410 455,410 479,410 503,410 527,410 551,410 575,410 599,410 623,410 648,410 672,410 696,410 720,410 744,410 768,410 792,410 816,410 840,410"/>
<circle cx="70" cy="445" r="2.5" fill="#1f77b4"/>
<circle cx="94" cy="410" r="2.5" fill="#1f77b4"/>
<circle cx="118" cy="410" r="2.5" fill="#1f77b4"/>
<circle cx="142" cy="410" r="2.5" fill="#1f77b4"/>
<circle cx="166" cy="410" r="2.5" fill="#1f77b4"/>
<circle cx="190" cy="410" r="2.5" fill="#1f77b4"/>
<circle cx="214" cy="410" r="2.5" fill="#1f77b4"/>
<circle cx="238" cy="410" r="2.5" fill="#1f77b4"/>
<circle cx="262" cy="410" r="2.5" fill="#1f77b4"/>
<circle cx="287" cy="410" r="2.5" fill="#1f77b4"/>
<circle cx="311" cy="410" r="2.5" fill="#1f77b4"/>
<circle cx="335" cy="410" r="2.5" fill="#1f77b4"/>
<circle cx="359" cy="410" r="2.5" fill="#1f77b4"/>
<circle cx="383" cy="410" r="2.5" fill="#1f77b4"/>
<circle cx="407" cy="410" r="2.5" fill="#1f77b4"/>
<circle cx="431" cy="410" r="2.5" fill="#1f77b4"/>
<circle cx="455" cy="410" r="2.5" fill="#1f77b4"/>
<circle cx="479" cy="410" r="2.5" fill="#1f77b4"/>
<circle cx="503" cy="410" r="2.5" fill="#1f77b4"/>
<circle cx="527" cy="410" r="2.5" fill="#1f77b4"/>
<circle cx="551" cy="410" r="2.5" fill="#1f77b4"/>
<circle cx="575" cy="410" r="2.5" fill="#1f77b4"/>
<circle cx="599" cy="410" r="2.5" fill="#1f77b4"/>
<circle cx="623" cy="410" r="2.5" fill="#1f77b4"/>
<circle cx="648" cy="410" r="2.5" fill="#1f77b4"/>
<circle cx="672" cy="410" r="2.5" fill="#1f77b4"/>
<circle cx="696" cy="410" r="2.5" fill="#1f77b4"/>
<circle cx="720" cy="410" r="2.5" fill="#1f77b4"/>
<circle cx="744" cy="410" r="2.5" fill="#1f77b4"/>
<circle cx="768" cy="410" r="2.5" fill="#1f77b4"/>
<circle cx="792" cy="410" r="2.5" fill="#1f77b4"/>
<circle cx="816" cy="410" r="2.5" fill="#1f77b4"/>
<circle cx="840" cy="410" r="2.5" fill="#1f77b4"/>
<line x1="860" y1="114" x2="882" y2="114" stroke="#1f77b4" stroke-width="2.5"/>
<text x="888" y="118" font-size="11" font-family="Arial" fill="#111">INFO</text>
<text x="455" y="500" font-size="11" font-family="Arial" fill="#444">Run sequence</text>
</svg>
