<svg xmlns="http://www.w3.org/2000/svg" width="1100" height="520">
<rect x="0" y="0" width="1100" height="520" fill="#ffffff"/>
<text x="70" y="30" font-size="20" font-family="Arial" fill="#111">Morphology Lint Trend by Severity</text>
<line x1="70" y1="450" x2="840" y2="450" stroke="#e6e6e6" stroke-width="1"/>
<text x="62" y="454" font-size="11" font-family="Arial" fill="#333" text-anchor="end">0</text>
<line x1="70" y1="370" x2="840" y2="370" stroke="#e6e6e6" stroke-width="1"/>
<text x="62" y="374" font-size="11" font-family="Arial" fill="#333" text-anchor="end">2377</text>
<line x1="70" y1="290" x2="840" y2="290" stroke="#e6e6e6" stroke-width="1"/>
<text x="62" y="294" font-size="11" font-family="Arial" fill="#333" text-anchor="end">4754</text>
<line x1="70" y1="210" x2="840" y2="210" stroke="#e6e6e6" stroke-width="1"/>
<text x="62" y="214" font-size="11" font-family="Arial" fill="#333" text-anchor="end">7131</text>
<line x1="70" y1="130" x2="840" y2="130" stroke="#e6e6e6" stroke-width="1"/>
<text x="62" y="134" font-size="11" font-family="Arial" fill="#333" text-anchor="end">9508</text>
<line x1="70" y1="50" x2="840" y2="50" stroke="#e6e6e6" stroke-width="1"/>
<text x="62" y="54" font-size="11" font-family="Arial" fill="#333" text-anchor="end">11885</text>
<line x1="70" y1="450" x2="840" y2="450" stroke="#333" stroke-width="1.2"/>
<line x1="70" y1="50" x2="70" y2="450" stroke="#333" stroke-width="1.2"/>
<line x1="70" y1="450" x2="70" y2="454" stroke="#666" stroke-width="1"/>
<text x="70" y="468" font-size="10" font-family="Arial" fill="#333" text-anchor="middle">1</text>
<line x1="107" y1="450" x2="107" y2="454" stroke="#666" stroke-width="1"/>
<text x="107" y="468" font-size="10" font-family="Arial" fill="#333" text-anchor="middle">2</text>
<line x1="143" y1="450" x2="143" y2="454" stroke="#666" stroke-width="1"/>
<text x="143" y="468" font-size="10" font-family="Arial" fill="#333" text-anchor="middle">3</text>
<line x1="180" y1="450" x2="180" y2="454" stroke="#666" stroke-width="1"/>
<text x="180" y="468" font-size="10" font-family="Arial" fill="#333" text-anchor="middle">4</text>
<line x1="217" y1="450" x2="217" y2="454" stroke="#666" stroke-width="1"/>
<text x="217" y="468" font-size="10" font-family="Arial" fill="#333" text-anchor="middle">5</text>
<line x1="253" y1="450" x2="253" y2="454" stroke="#666" stroke-width="1"/>
<text x="253" y="468" font-size="10" font-family="Arial" fill="#333" text-anchor="middle">6</text>
<line x1="290" y1="450" x2="290" y2="454" stroke="#666" stroke-width="1"/>
<text x="290" y="468" font-size="10" font-family="Arial" fill="#333" text-anchor="middle">7</text>
<line x1="327" y1="450" x2="327" y2="454" stroke="#666" stroke-width="1"/>
<text x="327" y="468" font-size="10" font-family="Arial" fill="#333" text-anchor="middle">8</text>
<line x1="363" y1="450" x2="363" y2="454" stroke="#666" stroke-width="1"/>
<text x="363" y="468" font-size="10" font-family="Arial" fill="#333" text-anchor="middle">9</text>
<line x1="400" y1="450" x2="400" y2="454" stroke="#666" stroke-width="1"/>
<text x="400" y="468" font-size="10" font-family="Arial" fill="#333" text-anchor="middle">10</text>
<line x1="437" y1="450" x2="437" y2="454" stroke="#666" stroke-width="1"/>
<text x="437" y="468" font-size="10" font-family="Arial" fill="#333" text-anchor="middle">11</text>
<line x1="473" y1="450" x2="473" y2="454" stroke="#666" stroke-width="1"/>
<text x="473" y="468" font-size="10" font-family="Arial" fill="#333" text-anchor="middle">12</text>
<line x1="510" y1="450" x2="510" y2="454" stroke="#666" stroke-width="1"/>
<text x="510" y="468" font-size="10" font-family="Arial" fill="#333" text-anchor="middle">13</text>
<line x1="547" y1="450" x2="547" y2="454" stroke="#666" stroke-width="1"/>
<text x="547" y="468" font-size="10" font-family="Arial" fill="#333" text-anchor="middle">14</text>
<line x1="583" y1="450" x2="583" y2="454" stroke="#666" stroke-width="1"/>
<text x="583" y="468" font-size="10" font-family="Arial" fill="#333" text-anchor="middle">15</text>
<line x1="620" y1="450" x2="620" y2="454" stroke="#666" stroke-width="1"/>
<text x="620" y="468" font-size="10" font-family="Arial" fill="#333" text-anchor="middle">16</text>
<line x1="657" y1="450" x2="657" y2="454" stroke="#666" stroke-width="1"/>
<text x="657" y="468" font-size="10" font-family="Arial" fill="#333" text-anchor="middle">17</text>
<line x1="693" y1="450" x2="693" y2="454" stroke="#666" stroke-width="1"/>
<text x="693" y="468" font-size="10" font-family="Arial" fill="#333" text-anchor="middle">18</text>
<line x1="730" y1="450" x2="730" y2="454" stroke="#666" stroke-width="1"/>
<text x="730" y="468" font-size="10" font-family="Arial" fill="#333" text-anchor="middle">19</text>
<line x1="767" y1="450" x2="767" y2="454" stroke="#666" stroke-width="1"/>
<text x="767" y="468" font-size="10" font-family="Arial" fill="#333" text-anchor="middle">20</text>
<line x1="803" y1="450" x2="803" y2="454" stroke="#666" stroke-width="1"/>
<text x="803" y="468" font-size="10" font-family="Arial" fill="#333" text-anchor="middle">21</text>
<line x1="840" y1="450" x2="840" y2="454" stroke="#666" stroke-width="1"/>
<text x="840" y="468" font-size="10" font-family="Arial" fill="#333" text-anchor="middle">22</text>
<polyline fill="none" stroke="#d62728" stroke-width="2.2" points="70,415 107,50 143,109 180,109 217,250 253,250 290,250 327,196 363,197 400,198 437,182 473,228 510,249 547,261 583,261 620,280 657,280 693,279 730,280 767,280 803,280 840,280"/>
<circle cx="70" cy="415" r="2.5" fill="#d62728"/>
<circle cx="107" cy="50" r="2.5" fill="#d62728"/>
<circle cx="143" cy="109" r="2.5" fill="#d62728"/>
<circle cx="180" cy="109" r="2.5" fill="#d62728"/>
<circle cx="217" cy="250" r="2.5" fill="#d62728"/>
<circle cx="253" cy="250" r="2.5" fill="#d62728"/>
<circle cx="290" cy="250" r="2.5" fill="#d62728"/>
<circle cx="327" cy="196" r="2.5" fill="#d62728"/>
<circle cx="363" cy="197" r="2.5" fill="#d62728"/>
<circle cx="400" cy="198" r="2.5" fill="#d62728"/>
<circle cx="437" cy="182" r="2.5" fill="#d62728"/>
<circle cx="473" cy="228" r="2.5" fill="#d62728"/>
<circle cx="510" cy="249" r="2.5" fill="#d62728"/>
<circle cx="547" cy="261" r="2.5" fill="#d62728"/>
<circle cx="583" cy="261" r="2.5" fill="#d62728"/>
<circle cx="620" cy="280" r="2.5" fill="#d62728"/>
<circle cx="657" cy="280" r="2.5" fill="#d62728"/>
<circle cx="693" cy="279" r="2.5" fill="#d62728"/>
<circle cx="730" cy="280" r="2.5" fill="#d62728"/>
<circle cx="767" cy="280" r="2.5" fill="#d62728"/>
<circle cx="803" cy="280" r="2.5" fill="#d62728"/>
<circle cx="840" cy="280" r="2.5" fill="#d62728"/>
<line x1="860" y1="74" x2="882" y2="74" stroke="#d62728" stroke-width="2.5"/>
<text x="888" y="78" font-size="11" font-family="Arial" fill="#111">ERROR</text>
<polyline fill="none" stroke="#ff7f0e" stroke-width="2.2" points="70,441 107,71 143,94 180,94 217,94 253,375 290,375 327,396 363,396 400,396 437,372 473,391 510,410 547,410 583,411 620,421 657,446 693,445 730,446 767,446 803,446 840,446"/>
<circle cx="70" cy="441" r="2.5" fill="#ff7f0e"/>
<circle cx="107" cy="71" r="2.5" fill="#ff7f0e"/>
<circle cx="143" cy="94" r="2.5" fill="#ff7f0e"/>
<circle cx="180" cy="94" r="2.5" fill="#ff7f0e"/>
<circle cx="217" cy="94" r="2.5" fill="#ff7f0e"/>
<circle cx="253" cy="375" r="2.5" fill="#ff7f0e"/>
<circle cx="290" cy="375" r="2.5" fill="#ff7f0e"/>
<circle cx="327" cy="396" r="2.5" fill="#ff7f0e"/>
<circle cx="363" cy="396" r="2.5" fill="#ff7f0e"/>
<circle cx="400" cy="396" r="2.5" fill="#ff7f0e"/>
<circle cx="437" cy="372" r="2.5" fill="#ff7f0e"/>
<circle cx="473" cy="391" r="2.5" fill="#ff7f0e"/>
<circle cx="510" cy="410" r="2.5" fill="#ff7f0e"/>
<circle cx="547" cy="410" r="2.5" fill="#ff7f0e"/>
<circle cx="583" cy="411" r="2.5" fill="#ff7f0e"/>
<circle cx="620" cy="421" r="2.5" fill="#ff7f0e"/>
<circle cx="657" cy="446" r="2.5" fill="#ff7f0e"/>
<circle cx="693" cy="445" r="2.5" fill="#ff7f0e"/>
<circle cx="730" cy="446" r="2.5" fill="#ff7f0e"/>
<circle cx="767" cy="446" r="2.5" fill="#ff7f0e"/>
<circle cx="803" cy="446" r="2.5" fill="#ff7f0e"/>
<circle cx="840" cy="446" r="2.5" fill="#ff7f0e"/>
<line x1="860" y1="94" x2="882" y2="94" stroke="#ff7f0e" stroke-width="2.5"/>
<text x="888" y="98" font-size="11" font-family="Arial" fill="#111">WARNING</text>
<polyline fill="none" stroke="#1f77b4" stroke-width="2.2" points="70,445 107,410 143,410 180,410 217,410 253,410 290,410 327,410 363,410 400,410 437,410 473,410 510,410 547,410 583,410 620,410 657,410 693,410 730,410 767,410 803,410 840,410"/>
<circle cx="70" cy="445" r="2.5" fill="#1f77b4"/>
<circle cx="107" cy="410" r="2.5" fill="#1f77b4"/>
<circle cx="143" cy="410" r="2.5" fill="#1f77b4"/>
<circle cx="180" cy="410" r="2.5" fill="#1f77b4"/>
<circle cx="217" cy="410" r="2.5" fill="#1f77b4"/>
<circle cx="253" cy="410" r="2.5" fill="#1f77b4"/>
<circle cx="290" cy="410" r="2.5" fill="#1f77b4"/>
<circle cx="327" cy="410" r="2.5" fill="#1f77b4"/>
<circle cx="363" cy="410" r="2.5" fill="#1f77b4"/>
<circle cx="400" cy="410" r="2.5" fill="#1f77b4"/>
<circle cx="437" cy="410" r="2.5" fill="#1f77b4"/>
<circle cx="473" cy="410" r="2.5" fill="#1f77b4"/>
<circle cx="510" cy="410" r="2.5" fill="#1f77b4"/>
<circle cx="547" cy="410" r="2.5" fill="#1f77b4"/>
<circle cx="583" cy="410" r="2.5" fill="#1f77b4"/>
<circle cx="620" cy="410" r="2.5" fill="#1f77b4"/>
<circle cx="657" cy="410" r="2.5" fill="#1f77b4"/>
<circle cx="693" cy="410" r="2.5" fill="#1f77b4"/>
<circle cx="730" cy="410" r="2.5" fill="#1f77b4"/>
<circle cx="767" cy="410" r="2.5" fill="#1f77b4"/>
<circle cx="803" cy="410" r="2.5" fill="#1f77b4"/>
<circle cx="840" cy="410" r="2.5" fill="#1f77b4"/>
<line x1="860" y1="114" x2="882" y2="114" stroke="#1f77b4" stroke-width="2.5"/>
<text x="888" y="118" font-size="11" font-family="Arial" fill="#111">INFO</text>
<text x="455" y="500" font-size="11" font-family="Arial" fill="#444">Run sequence</text>
</svg>
