<svg xmlns="http://www.w3.org/2000/svg" width="1300" height="560">
<rect x="0" y="0" width="1300" height="560" fill="#ffffff"/>
<text x="70" y="30" font-size="20" font-family="Arial" fill="#111">Morphology Lint Trend by Issue Type</text>
<line x1="70" y1="490" x2="1040" y2="490" stroke="#e6e6e6" stroke-width="1"/>
<text x="62" y="494" font-size="11" font-family="Arial" fill="#333" text-anchor="end">0</text>
<line x1="70" y1="402" x2="1040" y2="402" stroke="#e6e6e6" stroke-width="1"/>
<text x="62" y="406" font-size="11" font-family="Arial" fill="#333" text-anchor="end">1271</text>
<line x1="70" y1="314" x2="1040" y2="314" stroke="#e6e6e6" stroke-width="1"/>
<text x="62" y="318" font-size="11" font-family="Arial" fill="#333" text-anchor="end">2542</text>
<line x1="70" y1="226" x2="1040" y2="226" stroke="#e6e6e6" stroke-width="1"/>
<text x="62" y="230" font-size="11" font-family="Arial" fill="#333" text-anchor="end">3814</text>
<line x1="70" y1="138" x2="1040" y2="138" stroke="#e6e6e6" stroke-width="1"/>
<text x="62" y="142" font-size="11" font-family="Arial" fill="#333" text-anchor="end">5085</text>
<line x1="70" y1="50" x2="1040" y2="50" stroke="#e6e6e6" stroke-width="1"/>
<text x="62" y="54" font-size="11" font-family="Arial" fill="#333" text-anchor="end">6356</text>
<line x1="70" y1="490" x2="1040" y2="490" stroke="#333" stroke-width="1.2"/>
<line x1="70" y1="50" x2="70" y2="490" stroke="#333" stroke-width="1.2"/>
<line x1="70" y1="490" x2="70" y2="494" stroke="#666" stroke-width="1"/>
<text x="70" y="508" font-size="10" font-family="Arial" fill="#333" text-anchor="middle">1</text>
<line x1="152" y1="490" x2="152" y2="494" stroke="#666" stroke-width="1"/>
<text x="152" y="508" font-size="10" font-family="Arial" fill="#333" text-anchor="middle">6</text>
<line x1="234" y1="490" x2="234" y2="494" stroke="#666" stroke-width="1"/>
<text x="234" y="508" font-size="10" font-family="Arial" fill="#333" text-anchor="middle">11</text>
<line x1="317" y1="490" x2="317" y2="494" stroke="#666" stroke-width="1"/>
<text x="317" y="508" font-size="10" font-family="Arial" fill="#333" text-anchor="middle">16</text>
<line x1="399" y1="490" x2="399" y2="494" stroke="#666" stroke-width="1"/>
<text x="399" y="508" font-size="10" font-family="Arial" fill="#333" text-anchor="middle">21</text>
<line x1="481" y1="490" x2="481" y2="494" stroke="#666" stroke-width="1"/>
<text x="481" y="508" font-size="10" font-family="Arial" fill="#333" text-anchor="middle">26</text>
<line x1="563" y1="490" x2="563" y2="494" stroke="#666" stroke-width="1"/>
<text x="563" y="508" font-size="10" font-family="Arial" fill="#333" text-anchor="middle">31</text>
<line x1="645" y1="490" x2="645" y2="494" stroke="#666" stroke-width="1"/>
<text x="645" y="508" font-size="10" font-family="Arial" fill="#333" text-anchor="middle">36</text>
<line x1="728" y1="490" x2="728" y2="494" stroke="#666" stroke-width="1"/>
<text x="728" y="508" font-size="10" font-family="Arial" fill="#333" text-anchor="middle">41</text>
<line x1="810" y1="490" x2="810" y2="494" stroke="#666" stroke-width="1"/>
<text x="810" y="508" font-size="10" font-family="Arial" fill="#333" text-anchor="middle">46</text>
<line x1="892" y1="490" x2="892" y2="494" stroke="#666" stroke-width="1"/>
<text x="892" y="508" font-size="10" font-family="Arial" fill="#333" text-anchor="middle">51</text>
<line x1="974" y1="490" x2="974" y2="494" stroke="#666" stroke-width="1"/>
<text x="974" y="508" font-size="10" font-family="Arial" fill="#333" text-anchor="middle">56</text>
<line x1="1040" y1="490" x2="1040" y2="494" stroke="#666" stroke-width="1"/>
<text x="1040" y="508" font-size="10" font-family="Arial" fill="#333" text-anchor="middle">60</text>
<polyline fill="none" stroke="#d62728" stroke-width="2.2" points="70,212 86,212 103,212 119,212 136,217 152,217 169,110 185,225 202,225 218,225 234,225 251,225 267,225 284,225 300,225 317,225 333,225 349,225 366,225 382,225 399,211 415,211 432,211 448,211 465,211 481,225 497,201 514,212 530,212 547,246 563,246 580,243 596,243 613,244 629,248 645,251 662,264 678,265 695,265 711,265 728,265 744,265 761,245 777,50 793,50 810,259 826,259 843,259 859,262 876,262 892,262 908,262 925,263 941,263 958,266 974,266 991,268 1007,268 1024,268 1040,262"/>
<circle cx="70" cy="212" r="2.5" fill="#d62728"/>
<circle cx="86" cy="212" r="2.5" fill="#d62728"/>
<circle cx="103" cy="212" r="2.5" fill="#d62728"/>
<circle cx="119" cy="212" r="2.5" fill="#d62728"/>
<circle cx="136" cy="217" r="2.5" fill="#d62728"/>
<circle cx="152" cy="217" r="2.5" fill="#d62728"/>
<circle cx="169" cy="110" r="2.5" fill="#d62728"/>
<circle cx="185" cy="225" r="2.5" fill="#d62728"/>
<circle cx="202" cy="225" r="2.5" fill="#d62728"/>
<circle cx="218" cy="225" r="2.5" fill="#d62728"/>
<circle cx="234" cy="225" r="2.5" fill="#d62728"/>
<circle cx="251" cy="225" r="2.5" fill="#d62728"/>
<circle cx="267" cy="225" r="2.5" fill="#d62728"/>
<circle cx="284" cy="225" r="2.5" fill="#d62728"/>
<circle cx="300" cy="225" r="2.5" fill="#d62728"/>
<circle cx="317" cy="225" r="2.5" fill="#d62728"/>
<circle cx="333" cy="225" r="2.5" fill="#d62728"/>
<circle cx="349" cy="225" r="2.5" fill="#d62728"/>
<circle cx="366" cy="225" r="2.5" fill="#d62728"/>
<circle cx="382" cy="225" r="2.5" fill="#d62728"/>
<circle cx="399" cy="211" r="2.5" fill="#d62728"/>
<circle cx="415" cy="211" r="2.5" fill="#d62728"/>
<circle cx="432" cy="211" r="2.5" fill="#d62728"/>
<circle cx="448" cy="211" r="2.5" fill="#d62728"/>
<circle cx="465" cy="211" r="2.5" fill="#d62728"/>
<circle cx="481" cy="225" r="2.5" fill="#d62728"/>
<circle cx="497" cy="201" r="2.5" fill="#d62728"/>
<circle cx="514" cy="212" r="2.5" fill="#d62728"/>
<circle cx="530" cy="212" r="2.5" fill="#d62728"/>
<circle cx="547" cy="246" r="2.5" fill="#d62728"/>
<circle cx="563" cy="246" r="2.5" fill="#d62728"/>
<circle cx="580" cy="243" r="2.5" fill="#d62728"/>
<circle cx="596" cy="243" r="2.5" fill="#d62728"/>
<circle cx="613" cy="244" r="2.5" fill="#d62728"/>
<circle cx="629" cy="248" r="2.5" fill="#d62728"/>
<circle cx="645" cy="251" r="2.5" fill="#d62728"/>
<circle cx="662" cy="264" r="2.5" fill="#d62728"/>
<circle cx="678" cy="265" r="2.5" fill="#d62728"/>
<circle cx="695" cy="265" r="2.5" fill="#d62728"/>
<circle cx="711" cy="265" r="2.5" fill="#d62728"/>
<circle cx="728" cy="265" r="2.5" fill="#d62728"/>
<circle cx="744" cy="265" r="2.5" fill="#d62728"/>
<circle cx="761" cy="245" r="2.5" fill="#d62728"/>
<circle cx="777" cy="50" r="2.5" fill="#d62728"/>
<circle cx="793" cy="50" r="2.5" fill="#d62728"/>
<circle cx="810" cy="259" r="2.5" fill="#d62728"/>
<circle cx="826" cy="259" r="2.5" fill="#d62728"/>
<circle cx="843" cy="259" r="2.5" fill="#d62728"/>
<circle cx="859" cy="262" r="2.5" fill="#d62728"/>
<circle cx="876" cy="262" r="2.5" fill="#d62728"/>
<circle cx="892" cy="262" r="2.5" fill="#d62728"/>
<circle cx="908" cy="262" r="2.5" fill="#d62728"/>
<circle cx="925" cy="263" r="2.5" fill="#d62728"/>
<circle cx="941" cy="263" r="2.5" fill="#d62728"/>
<circle cx="958" cy="266" r="2.5" fill="#d62728"/>
<circle cx="974" cy="266" r="2.5" fill="#d62728"/>
<circle cx="991" cy="268" r="2.5" fill="#d62728"/>
<circle cx="1007" cy="268" r="2.5" fill="#d62728"/>
<circle cx="1024" cy="268" r="2.5" fill="#d62728"/>
<circle cx="1040" cy="262" r="2.5" fill="#d62728"/>
<line x1="1060" y1="74" x2="1082" y2="74" stroke="#d62728" stroke-width="2.5"/>
<text x="1088" y="78" font-size="11" font-family="Arial" fill="#111">Analysis does not reconstruct to surface</text>
<polyline fill="none" stroke="#ff7f0e" stroke-width="2.2" points="70,385 86,385 103,385 119,385 136,380 152,380 169,378 185,378 202,378 218,378 234,378 251,378 267,378 284,378 300,378 317,378 333,378 349,378 366,378 382,378 399,378 415,378 432,378 448,378 465,378 481,378 497,378 514,378 530,378 547,378 563,378 580,378 596,378 613,378 629,378 645,378 662,378 678,378 695,378 711,378 728,378 744,378 761,377 777,373 793,373 810,378 826,378 843,378 859,378 876,378 892,378 908,378 925,378 941,378 958,378 974,378 991,378 1007,378 1024,377 1040,358"/>
<circle cx="70" cy="385" r="2.5" fill="#ff7f0e"/>
<circle cx="86" cy="385" r="2.5" fill="#ff7f0e"/>
<circle cx="103" cy="385" r="2.5" fill="#ff7f0e"/>
<circle cx="119" cy="385" r="2.5" fill="#ff7f0e"/>
<circle cx="136" cy="380" r="2.5" fill="#ff7f0e"/>
<circle cx="152" cy="380" r="2.5" fill="#ff7f0e"/>
<circle cx="169" cy="378" r="2.5" fill="#ff7f0e"/>
<circle cx="185" cy="378" r="2.5" fill="#ff7f0e"/>
<circle cx="202" cy="378" r="2.5" fill="#ff7f0e"/>
<circle cx="218" cy="378" r="2.5" fill="#ff7f0e"/>
<circle cx="234" cy="378" r="2.5" fill="#ff7f0e"/>
<circle cx="251" cy="378" r="2.5" fill="#ff7f0e"/>
<circle cx="267" cy="378" r="2.5" fill="#ff7f0e"/>
<circle cx="284" cy="378" r="2.5" fill="#ff7f0e"/>
<circle cx="300" cy="378" r="2.5" fill="#ff7f0e"/>
<circle cx="317" cy="378" r="2.5" fill="#ff7f0e"/>
<circle cx="333" cy="378" r="2.5" fill="#ff7f0e"/>
<circle cx="349" cy="378" r="2.5" fill="#ff7f0e"/>
<circle cx="366" cy="378" r="2.5" fill="#ff7f0e"/>
<circle cx="382" cy="378" r="2.5" fill="#ff7f0e"/>
<circle cx="399" cy="378" r="2.5" fill="#ff7f0e"/>
<circle cx="415" cy="378" r="2.5" fill="#ff7f0e"/>
<circle cx="432" cy="378" r="2.5" fill="#ff7f0e"/>
<circle cx="448" cy="378" r="2.5" fill="#ff7f0e"/>
<circle cx="465" cy="378" r="2.5" fill="#ff7f0e"/>
<circle cx="481" cy="378" r="2.5" fill="#ff7f0e"/>
<circle cx="497" cy="378" r="2.5" fill="#ff7f0e"/>
<circle cx="514" cy="378" r="2.5" fill="#ff7f0e"/>
<circle cx="530" cy="378" r="2.5" fill="#ff7f0e"/>
<circle cx="547" cy="378" r="2.5" fill="#ff7f0e"/>
<circle cx="563" cy="378" r="2.5" fill="#ff7f0e"/>
<circle cx="580" cy="378" r="2.5" fill="#ff7f0e"/>
<circle cx="596" cy="378" r="2.5" fill="#ff7f0e"/>
<circle cx="613" cy="378" r="2.5" fill="#ff7f0e"/>
<circle cx="629" cy="378" r="2.5" fill="#ff7f0e"/>
<circle cx="645" cy="378" r="2.5" fill="#ff7f0e"/>
<circle cx="662" cy="378" r="2.5" fill="#ff7f0e"/>
<circle cx="678" cy="378" r="2.5" fill="#ff7f0e"/>
<circle cx="695" cy="378" r="2.5" fill="#ff7f0e"/>
<circle cx="711" cy="378" r="2.5" fill="#ff7f0e"/>
<circle cx="728" cy="378" r="2.5" fill="#ff7f0e"/>
<circle cx="744" cy="378" r="2.5" fill="#ff7f0e"/>
<circle cx="761" cy="377" r="2.5" fill="#ff7f0e"/>
<circle cx="777" cy="373" r="2.5" fill="#ff7f0e"/>
<circle cx="793" cy="373" r="2.5" fill="#ff7f0e"/>
<circle cx="810" cy="378" r="2.5" fill="#ff7f0e"/>
<circle cx="826" cy="378" r="2.5" fill="#ff7f0e"/>
<circle cx="843" cy="378" r="2.5" fill="#ff7f0e"/>
<circle cx="859" cy="378" r="2.5" fill="#ff7f0e"/>
<circle cx="876" cy="378" r="2.5" fill="#ff7f0e"/>
<circle cx="892" cy="378" r="2.5" fill="#ff7f0e"/>
<circle cx="908" cy="378" r="2.5" fill="#ff7f0e"/>
<circle cx="925" cy="378" r="2.5" fill="#ff7f0e"/>
<circle cx="941" cy="378" r="2.5" fill="#ff7f0e"/>
<circle cx="958" cy="378" r="2.5" fill="#ff7f0e"/>
<circle cx="974" cy="378" r="2.5" fill="#ff7f0e"/>
<circle cx="991" cy="378" r="2.5" fill="#ff7f0e"/>
<circle cx="1007" cy="378" r="2.5" fill="#ff7f0e"/>
<circle cx="1024" cy="377" r="2.5" fill="#ff7f0e"/>
<circle cx="1040" cy="358" r="2.5" fill="#ff7f0e"/>
<line x1="1060" y1="94" x2="1082" y2="94" stroke="#ff7f0e" stroke-width="2.5"/>
<text x="1088" y="98" font-size="11" font-family="Arial" fill="#111">Surface not found in UDB concordance</text>
<polyline fill="none" stroke="#1f77b4" stroke-width="2.2" points="70,428 86,428 103,428 119,428 136,424 152,454 169,403 185,459 202,459 218,459 234,459 251,459 267,459 284,458 300,455 317,454 333,454 349,62 366,68 382,459 399,402 415,457 432,457 448,457 465,457 481,457 497,459 514,460 530,460 547,460 563,460 580,460 596,460 613,460 629,460 645,460 662,460 678,460 695,460 711,460 728,460 744,460 761,460 777,460 793,460 810,460 826,460 843,460 859,460 876,460 892,460 908,460 925,460 941,460 958,460 974,460 991,460 1007,460 1024,460 1040,460"/>
<circle cx="70" cy="428" r="2.5" fill="#1f77b4"/>
<circle cx="86" cy="428" r="2.5" fill="#1f77b4"/>
<circle cx="103" cy="428" r="2.5" fill="#1f77b4"/>
<circle cx="119" cy="428" r="2.5" fill="#1f77b4"/>
<circle cx="136" cy="424" r="2.5" fill="#1f77b4"/>
<circle cx="152" cy="454" r="2.5" fill="#1f77b4"/>
<circle cx="169" cy="403" r="2.5" fill="#1f77b4"/>
<circle cx="185" cy="459" r="2.5" fill="#1f77b4"/>
<circle cx="202" cy="459" r="2.5" fill="#1f77b4"/>
<circle cx="218" cy="459" r="2.5" fill="#1f77b4"/>
<circle cx="234" cy="459" r="2.5" fill="#1f77b4"/>
<circle cx="251" cy="459" r="2.5" fill="#1f77b4"/>
<circle cx="267" cy="459" r="2.5" fill="#1f77b4"/>
<circle cx="284" cy="458" r="2.5" fill="#1f77b4"/>
<circle cx="300" cy="455" r="2.5" fill="#1f77b4"/>
<circle cx="317" cy="454" r="2.5" fill="#1f77b4"/>
<circle cx="333" cy="454" r="2.5" fill="#1f77b4"/>
<circle cx="349" cy="62" r="2.5" fill="#1f77b4"/>
<circle cx="366" cy="68" r="2.5" fill="#1f77b4"/>
<circle cx="382" cy="459" r="2.5" fill="#1f77b4"/>
<circle cx="399" cy="402" r="2.5" fill="#1f77b4"/>
<circle cx="415" cy="457" r="2.5" fill="#1f77b4"/>
<circle cx="432" cy="457" r="2.5" fill="#1f77b4"/>
<circle cx="448" cy="457" r="2.5" fill="#1f77b4"/>
<circle cx="465" cy="457" r="2.5" fill="#1f77b4"/>
<circle cx="481" cy="457" r="2.5" fill="#1f77b4"/>
<circle cx="497" cy="459" r="2.5" fill="#1f77b4"/>
<circle cx="514" cy="460" r="2.5" fill="#1f77b4"/>
<circle cx="530" cy="460" r="2.5" fill="#1f77b4"/>
<circle cx="547" cy="460" r="2.5" fill="#1f77b4"/>
<circle cx="563" cy="460" r="2.5" fill="#1f77b4"/>
<circle cx="580" cy="460" r="2.5" fill="#1f77b4"/>
<circle cx="596" cy="460" r="2.5" fill="#1f77b4"/>
<circle cx="613" cy="460" r="2.5" fill="#1f77b4"/>
<circle cx="629" cy="460" r="2.5" fill="#1f77b4"/>
<circle cx="645" cy="460" r="2.5" fill="#1f77b4"/>
<circle cx="662" cy="460" r="2.5" fill="#1f77b4"/>
<circle cx="678" cy="460" r="2.5" fill="#1f77b4"/>
<circle cx="695" cy="460" r="2.5" fill="#1f77b4"/>
<circle cx="711" cy="460" r="2.5" fill="#1f77b4"/>
<circle cx="728" cy="460" r="2.5" fill="#1f77b4"/>
<circle cx="744" cy="460" r="2.5" fill="#1f77b4"/>
<circle cx="761" cy="460" r="2.5" fill="#1f77b4"/>
<circle cx="777" cy="460" r="2.5" fill="#1f77b4"/>
<circle cx="793" cy="460" r="2.5" fill="#1f77b4"/>
<circle cx="810" cy="460" r="2.5" fill="#1f77b4"/>
<circle cx="826" cy="460" r="2.5" fill="#1f77b4"/>
<circle cx="843" cy="460" r="2.5" fill="#1f77b4"/>
<circle cx="859" cy="460" r="2.5" fill="#1f77b4"/>
<circle cx="876" cy="460" r="2.5" fill="#1f77b4"/>
<circle cx="892" cy="460" r="2.5" fill="#1f77b4"/>
<circle cx="908" cy="460" r="2.5" fill="#1f77b4"/>
<circle cx="925" cy="460" r="2.5" fill="#1f77b4"/>
<circle cx="941" cy="460" r="2.5" fill="#1f77b4"/>
<circle cx="958" cy="460" r="2.5" fill="#1f77b4"/>
<circle cx="974" cy="460" r="2.5" fill="#1f77b4"/>
<circle cx="991" cy="460" r="2.5" fill="#1f77b4"/>
<circle cx="1007" cy="460" r="2.5" fill="#1f77b4"/>
<circle cx="1024" cy="460" r="2.5" fill="#1f77b4"/>
<circle cx="1040" cy="460" r="2.5" fill="#1f77b4"/>
<line x1="1060" y1="114" x2="1082" y2="114" stroke="#1f77b4" stroke-width="2.5"/>
<text x="1088" y="118" font-size="11" font-family="Arial" fill="#111">POS token not allowed for declared DULAT entry</text>
<polyline fill="none" stroke="#2ca02c" stroke-width="2.2" points="70,482 86,482 103,482 119,482 136,471 152,471 169,422 185,468 202,468 218,468 234,468 251,468 267,468 284,468 300,468 317,468 333,468 349,468 366,468 382,468 399,469 415,469 432,469 448,469 465,469 481,468 497,468 514,469 530,469 547,467 563,467 580,467 596,467 613,467 629,467 645,467 662,467 678,467 695,467 711,467 728,467 744,468 761,468 777,467 793,467 810,467 826,467 843,467 859,467 876,467 892,468 908,468 925,468 941,468 958,468 974,468 991,468 1007,468 1024,468 1040,468"/>
<circle cx="70" cy="482" r="2.5" fill="#2ca02c"/>
<circle cx="86" cy="482" r="2.5" fill="#2ca02c"/>
<circle cx="103" cy="482" r="2.5" fill="#2ca02c"/>
<circle cx="119" cy="482" r="2.5" fill="#2ca02c"/>
<circle cx="136" cy="471" r="2.5" fill="#2ca02c"/>
<circle cx="152" cy="471" r="2.5" fill="#2ca02c"/>
<circle cx="169" cy="422" r="2.5" fill="#2ca02c"/>
<circle cx="185" cy="468" r="2.5" fill="#2ca02c"/>
<circle cx="202" cy="468" r="2.5" fill="#2ca02c"/>
<circle cx="218" cy="468" r="2.5" fill="#2ca02c"/>
<circle cx="234" cy="468" r="2.5" fill="#2ca02c"/>
<circle cx="251" cy="468" r="2.5" fill="#2ca02c"/>
<circle cx="267" cy="468" r="2.5" fill="#2ca02c"/>
<circle cx="284" cy="468" r="2.5" fill="#2ca02c"/>
<circle cx="300" cy="468" r="2.5" fill="#2ca02c"/>
<circle cx="317" cy="468" r="2.5" fill="#2ca02c"/>
<circle cx="333" cy="468" r="2.5" fill="#2ca02c"/>
<circle cx="349" cy="468" r="2.5" fill="#2ca02c"/>
<circle cx="366" cy="468" r="2.5" fill="#2ca02c"/>
<circle cx="382" cy="468" r="2.5" fill="#2ca02c"/>
<circle cx="399" cy="469" r="2.5" fill="#2ca02c"/>
<circle cx="415" cy="469" r="2.5" fill="#2ca02c"/>
<circle cx="432" cy="469" r="2.5" fill="#2ca02c"/>
<circle cx="448" cy="469" r="2.5" fill="#2ca02c"/>
<circle cx="465" cy="469" r="2.5" fill="#2ca02c"/>
<circle cx="481" cy="468" r="2.5" fill="#2ca02c"/>
<circle cx="497" cy="468" r="2.5" fill="#2ca02c"/>
<circle cx="514" cy="469" r="2.5" fill="#2ca02c"/>
<circle cx="530" cy="469" r="2.5" fill="#2ca02c"/>
<circle cx="547" cy="467" r="2.5" fill="#2ca02c"/>
<circle cx="563" cy="467" r="2.5" fill="#2ca02c"/>
<circle cx="580" cy="467" r="2.5" fill="#2ca02c"/>
<circle cx="596" cy="467" r="2.5" fill="#2ca02c"/>
<circle cx="613" cy="467" r="2.5" fill="#2ca02c"/>
<circle cx="629" cy="467" r="2.5" fill="#2ca02c"/>
<circle cx="645" cy="467" r="2.5" fill="#2ca02c"/>
<circle cx="662" cy="467" r="2.5" fill="#2ca02c"/>
<circle cx="678" cy="467" r="2.5" fill="#2ca02c"/>
<circle cx="695" cy="467" r="2.5" fill="#2ca02c"/>
<circle cx="711" cy="467" r="2.5" fill="#2ca02c"/>
<circle cx="728" cy="467" r="2.5" fill="#2ca02c"/>
<circle cx="744" cy="468" r="2.5" fill="#2ca02c"/>
<circle cx="761" cy="468" r="2.5" fill="#2ca02c"/>
<circle cx="777" cy="467" r="2.5" fill="#2ca02c"/>
<circle cx="793" cy="467" r="2.5" fill="#2ca02c"/>
<circle cx="810" cy="467" r="2.5" fill="#2ca02c"/>
<circle cx="826" cy="467" r="2.5" fill="#2ca02c"/>
<circle cx="843" cy="467" r="2.5" fill="#2ca02c"/>
<circle cx="859" cy="467" r="2.5" fill="#2ca02c"/>
<circle cx="876" cy="467" r="2.5" fill="#2ca02c"/>
<circle cx="892" cy="468" r="2.5" fill="#2ca02c"/>
<circle cx="908" cy="468" r="2.5" fill="#2ca02c"/>
<circle cx="925" cy="468" r="2.5" fill="#2ca02c"/>
<circle cx="941" cy="468" r="2.5" fill="#2ca02c"/>
<circle cx="958" cy="468" r="2.5" fill="#2ca02c"/>
<circle cx="974" cy="468" r="2.5" fill="#2ca02c"/>
<circle cx="991" cy="468" r="2.5" fill="#2ca02c"/>
<circle cx="1007" cy="468" r="2.5" fill="#2ca02c"/>
<circle cx="1024" cy="468" r="2.5" fill="#2ca02c"/>
<circle cx="1040" cy="468" r="2.5" fill="#2ca02c"/>
<line x1="1060" y1="134" x2="1082" y2="134" stroke="#2ca02c" stroke-width="2.5"/>
<text x="1088" y="138" font-size="11" font-family="Arial" fill="#111">No DULAT entry found for clitic part</text>
<polyline fill="none" stroke="#9467bd" stroke-width="2.2" points="70,463 86,463 103,463 119,463 136,461 152,461 169,460 185,460 202,460 218,460 234,460 251,460 267,460 284,460 300,460 317,460 333,460 349,460 366,460 382,460 399,473 415,473 432,473 448,473 465,473 481,460 497,459 514,473 530,473 547,478 563,478 580,468 596,468 613,468 629,473 645,473 662,473 678,473 695,473 711,473 728,473 744,473 761,473 777,473 793,473 810,473 826,473 843,473 859,473 876,473 892,473 908,473 925,473 941,473 958,476 974,476 991,476 1007,476 1024,476 1040,477"/>
<circle cx="70" cy="463" r="2.5" fill="#9467bd"/>
<circle cx="86" cy="463" r="2.5" fill="#9467bd"/>
<circle cx="103" cy="463" r="2.5" fill="#9467bd"/>
<circle cx="119" cy="463" r="2.5" fill="#9467bd"/>
<circle cx="136" cy="461" r="2.5" fill="#9467bd"/>
<circle cx="152" cy="461" r="2.5" fill="#9467bd"/>
<circle cx="169" cy="460" r="2.5" fill="#9467bd"/>
<circle cx="185" cy="460" r="2.5" fill="#9467bd"/>
<circle cx="202" cy="460" r="2.5" fill="#9467bd"/>
<circle cx="218" cy="460" r="2.5" fill="#9467bd"/>
<circle cx="234" cy="460" r="2.5" fill="#9467bd"/>
<circle cx="251" cy="460" r="2.5" fill="#9467bd"/>
<circle cx="267" cy="460" r="2.5" fill="#9467bd"/>
<circle cx="284" cy="460" r="2.5" fill="#9467bd"/>
<circle cx="300" cy="460" r="2.5" fill="#9467bd"/>
<circle cx="317" cy="460" r="2.5" fill="#9467bd"/>
<circle cx="333" cy="460" r="2.5" fill="#9467bd"/>
<circle cx="349" cy="460" r="2.5" fill="#9467bd"/>
<circle cx="366" cy="460" r="2.5" fill="#9467bd"/>
<circle cx="382" cy="460" r="2.5" fill="#9467bd"/>
<circle cx="399" cy="473" r="2.5" fill="#9467bd"/>
<circle cx="415" cy="473" r="2.5" fill="#9467bd"/>
<circle cx="432" cy="473" r="2.5" fill="#9467bd"/>
<circle cx="448" cy="473" r="2.5" fill="#9467bd"/>
<circle cx="465" cy="473" r="2.5" fill="#9467bd"/>
<circle cx="481" cy="460" r="2.5" fill="#9467bd"/>
<circle cx="497" cy="459" r="2.5" fill="#9467bd"/>
<circle cx="514" cy="473" r="2.5" fill="#9467bd"/>
<circle cx="530" cy="473" r="2.5" fill="#9467bd"/>
<circle cx="547" cy="478" r="2.5" fill="#9467bd"/>
<circle cx="563" cy="478" r="2.5" fill="#9467bd"/>
<circle cx="580" cy="468" r="2.5" fill="#9467bd"/>
<circle cx="596" cy="468" r="2.5" fill="#9467bd"/>
<circle cx="613" cy="468" r="2.5" fill="#9467bd"/>
<circle cx="629" cy="473" r="2.5" fill="#9467bd"/>
<circle cx="645" cy="473" r="2.5" fill="#9467bd"/>
<circle cx="662" cy="473" r="2.5" fill="#9467bd"/>
<circle cx="678" cy="473" r="2.5" fill="#9467bd"/>
<circle cx="695" cy="473" r="2.5" fill="#9467bd"/>
<circle cx="711" cy="473" r="2.5" fill="#9467bd"/>
<circle cx="728" cy="473" r="2.5" fill="#9467bd"/>
<circle cx="744" cy="473" r="2.5" fill="#9467bd"/>
<circle cx="761" cy="473" r="2.5" fill="#9467bd"/>
<circle cx="777" cy="473" r="2.5" fill="#9467bd"/>
<circle cx="793" cy="473" r="2.5" fill="#9467bd"/>
<circle cx="810" cy="473" r="2.5" fill="#9467bd"/>
<circle cx="826" cy="473" r="2.5" fill="#9467bd"/>
<circle cx="843" cy="473" r="2.5" fill="#9467bd"/>
<circle cx="859" cy="473" r="2.5" fill="#9467bd"/>
<circle cx="876" cy="473" r="2.5" fill="#9467bd"/>
<circle cx="892" cy="473" r="2.5" fill="#9467bd"/>
<circle cx="908" cy="473" r="2.5" fill="#9467bd"/>
<circle cx="925" cy="473" r="2.5" fill="#9467bd"/>
<circle cx="941" cy="473" r="2.5" fill="#9467bd"/>
<circle cx="958" cy="476" r="2.5" fill="#9467bd"/>
<circle cx="974" cy="476" r="2.5" fill="#9467bd"/>
<circle cx="991" cy="476" r="2.5" fill="#9467bd"/>
<circle cx="1007" cy="476" r="2.5" fill="#9467bd"/>
<circle cx="1024" cy="476" r="2.5" fill="#9467bd"/>
<circle cx="1040" cy="477" r="2.5" fill="#9467bd"/>
<line x1="1060" y1="154" x2="1082" y2="154" stroke="#9467bd" stroke-width="2.5"/>
<text x="1088" y="158" font-size="11" font-family="Arial" fill="#111">ʔ must be preceded by '(' in column 3</text>
<polyline fill="none" stroke="#8c564b" stroke-width="2.2" points="70,479 86,479 103,479 119,479 136,468 152,468 169,429 185,466 202,466 218,466 234,466 251,466 267,466 284,466 300,466 317,466 333,466 349,466 366,466 382,466 399,472 415,472 432,472 448,472 465,472 481,466 497,467 514,472 530,472 547,472 563,472 580,472 596,472 613,472 629,472 645,472 662,472 678,472 695,472 711,472 728,472 744,472 761,471 777,467 793,467 810,471 826,470 843,470 859,472 876,472 892,472 908,472 925,472 941,472 958,472 974,472 991,472 1007,472 1024,472 1040,472"/>
<circle cx="70" cy="479" r="2.5" fill="#8c564b"/>
<circle cx="86" cy="479" r="2.5" fill="#8c564b"/>
<circle cx="103" cy="479" r="2.5" fill="#8c564b"/>
<circle cx="119" cy="479" r="2.5" fill="#8c564b"/>
<circle cx="136" cy="468" r="2.5" fill="#8c564b"/>
<circle cx="152" cy="468" r="2.5" fill="#8c564b"/>
<circle cx="169" cy="429" r="2.5" fill="#8c564b"/>
<circle cx="185" cy="466" r="2.5" fill="#8c564b"/>
<circle cx="202" cy="466" r="2.5" fill="#8c564b"/>
<circle cx="218" cy="466" r="2.5" fill="#8c564b"/>
<circle cx="234" cy="466" r="2.5" fill="#8c564b"/>
<circle cx="251" cy="466" r="2.5" fill="#8c564b"/>
<circle cx="267" cy="466" r="2.5" fill="#8c564b"/>
<circle cx="284" cy="466" r="2.5" fill="#8c564b"/>
<circle cx="300" cy="466" r="2.5" fill="#8c564b"/>
<circle cx="317" cy="466" r="2.5" fill="#8c564b"/>
<circle cx="333" cy="466" r="2.5" fill="#8c564b"/>
<circle cx="349" cy="466" r="2.5" fill="#8c564b"/>
<circle cx="366" cy="466" r="2.5" fill="#8c564b"/>
<circle cx="382" cy="466" r="2.5" fill="#8c564b"/>
<circle cx="399" cy="472" r="2.5" fill="#8c564b"/>
<circle cx="415" cy="472" r="2.5" fill="#8c564b"/>
<circle cx="432" cy="472" r="2.5" fill="#8c564b"/>
<circle cx="448" cy="472" r="2.5" fill="#8c564b"/>
<circle cx="465" cy="472" r="2.5" fill="#8c564b"/>
<circle cx="481" cy="466" r="2.5" fill="#8c564b"/>
<circle cx="497" cy="467" r="2.5" fill="#8c564b"/>
<circle cx="514" cy="472" r="2.5" fill="#8c564b"/>
<circle cx="530" cy="472" r="2.5" fill="#8c564b"/>
<circle cx="547" cy="472" r="2.5" fill="#8c564b"/>
<circle cx="563" cy="472" r="2.5" fill="#8c564b"/>
<circle cx="580" cy="472" r="2.5" fill="#8c564b"/>
<circle cx="596" cy="472" r="2.5" fill="#8c564b"/>
<circle cx="613" cy="472" r="2.5" fill="#8c564b"/>
<circle cx="629" cy="472" r="2.5" fill="#8c564b"/>
<circle cx="645" cy="472" r="2.5" fill="#8c564b"/>
<circle cx="662" cy="472" r="2.5" fill="#8c564b"/>
<circle cx="678" cy="472" r="2.5" fill="#8c564b"/>
<circle cx="695" cy="472" r="2.5" fill="#8c564b"/>
<circle cx="711" cy="472" r="2.5" fill="#8c564b"/>
<circle cx="728" cy="472" r="2.5" fill="#8c564b"/>
<circle cx="744" cy="472" r="2.5" fill="#8c564b"/>
<circle cx="761" cy="471" r="2.5" fill="#8c564b"/>
<circle cx="777" cy="467" r="2.5" fill="#8c564b"/>
<circle cx="793" cy="467" r="2.5" fill="#8c564b"/>
<circle cx="810" cy="471" r="2.5" fill="#8c564b"/>
<circle cx="826" cy="470" r="2.5" fill="#8c564b"/>
<circle cx="843" cy="470" r="2.5" fill="#8c564b"/>
<circle cx="859" cy="472" r="2.5" fill="#8c564b"/>
<circle cx="876" cy="472" r="2.5" fill="#8c564b"/>
<circle cx="892" cy="472" r="2.5" fill="#8c564b"/>
<circle cx="908" cy="472" r="2.5" fill="#8c564b"/>
<circle cx="925" cy="472" r="2.5" fill="#8c564b"/>
<circle cx="941" cy="472" r="2.5" fill="#8c564b"/>
<circle cx="958" cy="472" r="2.5" fill="#8c564b"/>
<circle cx="974" cy="472" r="2.5" fill="#8c564b"/>
<circle cx="991" cy="472" r="2.5" fill="#8c564b"/>
<circle cx="1007" cy="472" r="2.5" fill="#8c564b"/>
<circle cx="1024" cy="472" r="2.5" fill="#8c564b"/>
<circle cx="1040" cy="472" r="2.5" fill="#8c564b"/>
<line x1="1060" y1="174" x2="1082" y2="174" stroke="#8c564b" stroke-width="2.5"/>
<text x="1088" y="178" font-size="11" font-family="Arial" fill="#111">DULAT comment does not match candidates</text>
<polyline fill="none" stroke="#e377c2" stroke-width="2.2" points="70,481 86,481 103,481 119,481 136,472 152,472 169,446 185,470 202,470 218,471 234,471 251,471 267,471 284,471 300,471 317,471 333,471 349,471 366,471 382,471 399,469 415,469 432,469 448,469 465,469 481,471 497,469 514,469 530,469 547,469 563,469 580,469 596,469 613,469 629,469 645,469 662,469 678,469 695,469 711,469 728,469 744,469 761,469 777,467 793,467 810,469 826,469 843,469 859,469 876,469 892,488 908,488 925,488 941,488 958,488 974,488 991,488 1007,488 1024,488 1040,488"/>
<circle cx="70" cy="481" r="2.5" fill="#e377c2"/>
<circle cx="86" cy="481" r="2.5" fill="#e377c2"/>
<circle cx="103" cy="481" r="2.5" fill="#e377c2"/>
<circle cx="119" cy="481" r="2.5" fill="#e377c2"/>
<circle cx="136" cy="472" r="2.5" fill="#e377c2"/>
<circle cx="152" cy="472" r="2.5" fill="#e377c2"/>
<circle cx="169" cy="446" r="2.5" fill="#e377c2"/>
<circle cx="185" cy="470" r="2.5" fill="#e377c2"/>
<circle cx="202" cy="470" r="2.5" fill="#e377c2"/>
<circle cx="218" cy="471" r="2.5" fill="#e377c2"/>
<circle cx="234" cy="471" r="2.5" fill="#e377c2"/>
<circle cx="251" cy="471" r="2.5" fill="#e377c2"/>
<circle cx="267" cy="471" r="2.5" fill="#e377c2"/>
<circle cx="284" cy="471" r="2.5" fill="#e377c2"/>
<circle cx="300" cy="471" r="2.5" fill="#e377c2"/>
<circle cx="317" cy="471" r="2.5" fill="#e377c2"/>
<circle cx="333" cy="471" r="2.5" fill="#e377c2"/>
<circle cx="349" cy="471" r="2.5" fill="#e377c2"/>
<circle cx="366" cy="471" r="2.5" fill="#e377c2"/>
<circle cx="382" cy="471" r="2.5" fill="#e377c2"/>
<circle cx="399" cy="469" r="2.5" fill="#e377c2"/>
<circle cx="415" cy="469" r="2.5" fill="#e377c2"/>
<circle cx="432" cy="469" r="2.5" fill="#e377c2"/>
<circle cx="448" cy="469" r="2.5" fill="#e377c2"/>
<circle cx="465" cy="469" r="2.5" fill="#e377c2"/>
<circle cx="481" cy="471" r="2.5" fill="#e377c2"/>
<circle cx="497" cy="469" r="2.5" fill="#e377c2"/>
<circle cx="514" cy="469" r="2.5" fill="#e377c2"/>
<circle cx="530" cy="469" r="2.5" fill="#e377c2"/>
<circle cx="547" cy="469" r="2.5" fill="#e377c2"/>
<circle cx="563" cy="469" r="2.5" fill="#e377c2"/>
<circle cx="580" cy="469" r="2.5" fill="#e377c2"/>
<circle cx="596" cy="469" r="2.5" fill="#e377c2"/>
<circle cx="613" cy="469" r="2.5" fill="#e377c2"/>
<circle cx="629" cy="469" r="2.5" fill="#e377c2"/>
<circle cx="645" cy="469" r="2.5" fill="#e377c2"/>
<circle cx="662" cy="469" r="2.5" fill="#e377c2"/>
<circle cx="678" cy="469" r="2.5" fill="#e377c2"/>
<circle cx="695" cy="469" r="2.5" fill="#e377c2"/>
<circle cx="711" cy="469" r="2.5" fill="#e377c2"/>
<circle cx="728" cy="469" r="2.5" fill="#e377c2"/>
<circle cx="744" cy="469" r="2.5" fill="#e377c2"/>
<circle cx="761" cy="469" r="2.5" fill="#e377c2"/>
<circle cx="777" cy="467" r="2.5" fill="#e377c2"/>
<circle cx="793" cy="467" r="2.5" fill="#e377c2"/>
<circle cx="810" cy="469" r="2.5" fill="#e377c2"/>
<circle cx="826" cy="469" r="2.5" fill="#e377c2"/>
<circle cx="843" cy="469" r="2.5" fill="#e377c2"/>
<circle cx="859" cy="469" r="2.5" fill="#e377c2"/>
<circle cx="876" cy="469" r="2.5" fill="#e377c2"/>
<circle cx="892" cy="488" r="2.5" fill="#e377c2"/>
<circle cx="908" cy="488" r="2.5" fill="#e377c2"/>
<circle cx="925" cy="488" r="2.5" fill="#e377c2"/>
<circle cx="941" cy="488" r="2.5" fill="#e377c2"/>
<circle cx="958" cy="488" r="2.5" fill="#e377c2"/>
<circle cx="974" cy="488" r="2.5" fill="#e377c2"/>
<circle cx="991" cy="488" r="2.5" fill="#e377c2"/>
<circle cx="1007" cy="488" r="2.5" fill="#e377c2"/>
<circle cx="1024" cy="488" r="2.5" fill="#e377c2"/>
<circle cx="1040" cy="488" r="2.5" fill="#e377c2"/>
<line x1="1060" y1="194" x2="1082" y2="194" stroke="#e377c2" stroke-width="2.5"/>
<text x="1088" y="198" font-size="11" font-family="Arial" fill="#111">Non-G stem in DULAT requires stem marker</text>
<polyline fill="none" stroke="#7f7f7f" stroke-width="2.2" points="70,489 86,489 103,489 119,489 136,487 152,487 169,485 185,487 202,487 218,487 234,487 251,487 267,487 284,487 300,487 317,487 333,478 349,478 366,478 382,478 399,476 415,476 432,476 448,476 465,476 481,478 497,477 514,477 530,477 547,477 563,477 580,477 596,477 613,477 629,477 645,477 662,477 678,477 695,477 711,477 728,477 744,477 761,477 777,477 793,477 810,477 826,477 843,477 859,477 876,477 892,477 908,477 925,477 941,477 958,477 974,477 991,477 1007,477 1024,477 1040,477"/>
<circle cx="70" cy="489" r="2.5" fill="#7f7f7f"/>
<circle cx="86" cy="489" r="2.5" fill="#7f7f7f"/>
<circle cx="103" cy="489" r="2.5" fill="#7f7f7f"/>
<circle cx="119" cy="489" r="2.5" fill="#7f7f7f"/>
<circle cx="136" cy="487" r="2.5" fill="#7f7f7f"/>
<circle cx="152" cy="487" r="2.5" fill="#7f7f7f"/>
<circle cx="169" cy="485" r="2.5" fill="#7f7f7f"/>
<circle cx="185" cy="487" r="2.5" fill="#7f7f7f"/>
<circle cx="202" cy="487" r="2.5" fill="#7f7f7f"/>
<circle cx="218" cy="487" r="2.5" fill="#7f7f7f"/>
<circle cx="234" cy="487" r="2.5" fill="#7f7f7f"/>
<circle cx="251" cy="487" r="2.5" fill="#7f7f7f"/>
<circle cx="267" cy="487" r="2.5" fill="#7f7f7f"/>
<circle cx="284" cy="487" r="2.5" fill="#7f7f7f"/>
<circle cx="300" cy="487" r="2.5" fill="#7f7f7f"/>
<circle cx="317" cy="487" r="2.5" fill="#7f7f7f"/>
<circle cx="333" cy="478" r="2.5" fill="#7f7f7f"/>
<circle cx="349" cy="478" r="2.5" fill="#7f7f7f"/>
<circle cx="366" cy="478" r="2.5" fill="#7f7f7f"/>
<circle cx="382" cy="478" r="2.5" fill="#7f7f7f"/>
<circle cx="399" cy="476" r="2.5" fill="#7f7f7f"/>
<circle cx="415" cy="476" r="2.5" fill="#7f7f7f"/>
<circle cx="432" cy="476" r="2.5" fill="#7f7f7f"/>
<circle cx="448" cy="476" r="2.5" fill="#7f7f7f"/>
<circle cx="465" cy="476" r="2.5" fill="#7f7f7f"/>
<circle cx="481" cy="478" r="2.5" fill="#7f7f7f"/>
<circle cx="497" cy="477" r="2.5" fill="#7f7f7f"/>
<circle cx="514" cy="477" r="2.5" fill="#7f7f7f"/>
<circle cx="530" cy="477" r="2.5" fill="#7f7f7f"/>
<circle cx="547" cy="477" r="2.5" fill="#7f7f7f"/>
<circle cx="563" cy="477" r="2.5" fill="#7f7f7f"/>
<circle cx="580" cy="477" r="2.5" fill="#7f7f7f"/>
<circle cx="596" cy="477" r="2.5" fill="#7f7f7f"/>
<circle cx="613" cy="477" r="2.5" fill="#7f7f7f"/>
<circle cx="629" cy="477" r="2.5" fill="#7f7f7f"/>
<circle cx="645" cy="477" r="2.5" fill="#7f7f7f"/>
<circle cx="662" cy="477" r="2.5" fill="#7f7f7f"/>
<circle cx="678" cy="477" r="2.5" fill="#7f7f7f"/>
<circle cx="695" cy="477" r="2.5" fill="#7f7f7f"/>
<circle cx="711" cy="477" r="2.5" fill="#7f7f7f"/>
<circle cx="728" cy="477" r="2.5" fill="#7f7f7f"/>
<circle cx="744" cy="477" r="2.5" fill="#7f7f7f"/>
<circle cx="761" cy="477" r="2.5" fill="#7f7f7f"/>
<circle cx="777" cy="477" r="2.5" fill="#7f7f7f"/>
<circle cx="793" cy="477" r="2.5" fill="#7f7f7f"/>
<circle cx="810" cy="477" r="2.5" fill="#7f7f7f"/>
<circle cx="826" cy="477" r="2.5" fill="#7f7f7f"/>
<circle cx="843" cy="477" r="2.5" fill="#7f7f7f"/>
<circle cx="859" cy="477" r="2.5" fill="#7f7f7f"/>
<circle cx="876" cy="477" r="2.5" fill="#7f7f7f"/>
<circle cx="892" cy="477" r="2.5" fill="#7f7f7f"/>
<circle cx="908" cy="477" r="2.5" fill="#7f7f7f"/>
<circle cx="925" cy="477" r="2.5" fill="#7f7f7f"/>
<circle cx="941" cy="477" r="2.5" fill="#7f7f7f"/>
<circle cx="958" cy="477" r="2.5" fill="#7f7f7f"/>
<circle cx="974" cy="477" r="2.5" fill="#7f7f7f"/>
<circle cx="991" cy="477" r="2.5" fill="#7f7f7f"/>
<circle cx="1007" cy="477" r="2.5" fill="#7f7f7f"/>
<circle cx="1024" cy="477" r="2.5" fill="#7f7f7f"/>
<circle cx="1040" cy="477" r="2.5" fill="#7f7f7f"/>
<line x1="1060" y1="214" x2="1082" y2="214" stroke="#7f7f7f" stroke-width="2.5"/>
<text x="1088" y="218" font-size="11" font-family="Arial" fill="#111">Deverbal form matches both verb and noun entries in DULAT</text>
<text x="555" y="540" font-size="11" font-family="Arial" fill="#444">Run sequence</text>
</svg>
