<svg xmlns="http://www.w3.org/2000/svg" width="1300" height="560">
<rect x="0" y="0" width="1300" height="560" fill="#ffffff"/>
<text x="70" y="30" font-size="20" font-family="Arial" fill="#111">Morphology Lint Trend by Issue Type</text>
<line x1="70" y1="490" x2="1040" y2="490" stroke="#e6e6e6" stroke-width="1"/>
<text x="62" y="494" font-size="11" font-family="Arial" fill="#333" text-anchor="end">0</text>
<line x1="70" y1="402" x2="1040" y2="402" stroke="#e6e6e6" stroke-width="1"/>
<text x="62" y="406" font-size="11" font-family="Arial" fill="#333" text-anchor="end">1210</text>
<line x1="70" y1="314" x2="1040" y2="314" stroke="#e6e6e6" stroke-width="1"/>
<text x="62" y="318" font-size="11" font-family="Arial" fill="#333" text-anchor="end">2420</text>
<line x1="70" y1="226" x2="1040" y2="226" stroke="#e6e6e6" stroke-width="1"/>
<text x="62" y="230" font-size="11" font-family="Arial" fill="#333" text-anchor="end">3631</text>
<line x1="70" y1="138" x2="1040" y2="138" stroke="#e6e6e6" stroke-width="1"/>
<text x="62" y="142" font-size="11" font-family="Arial" fill="#333" text-anchor="end">4841</text>
<line x1="70" y1="50" x2="1040" y2="50" stroke="#e6e6e6" stroke-width="1"/>
<text x="62" y="54" font-size="11" font-family="Arial" fill="#333" text-anchor="end">6051</text>
<line x1="70" y1="490" x2="1040" y2="490" stroke="#333" stroke-width="1.2"/>
<line x1="70" y1="50" x2="70" y2="490" stroke="#333" stroke-width="1.2"/>
<line x1="70" y1="490" x2="70" y2="494" stroke="#666" stroke-width="1"/>
<text x="70" y="508" font-size="10" font-family="Arial" fill="#333" text-anchor="middle">1</text>
<line x1="146" y1="490" x2="146" y2="494" stroke="#666" stroke-width="1"/>
<text x="146" y="508" font-size="10" font-family="Arial" fill="#333" text-anchor="middle">5</text>
<line x1="222" y1="490" x2="222" y2="494" stroke="#666" stroke-width="1"/>
<text x="222" y="508" font-size="10" font-family="Arial" fill="#333" text-anchor="middle">9</text>
<line x1="298" y1="490" x2="298" y2="494" stroke="#666" stroke-width="1"/>
<text x="298" y="508" font-size="10" font-family="Arial" fill="#333" text-anchor="middle">13</text>
<line x1="374" y1="490" x2="374" y2="494" stroke="#666" stroke-width="1"/>
<text x="374" y="508" font-size="10" font-family="Arial" fill="#333" text-anchor="middle">17</text>
<line x1="450" y1="490" x2="450" y2="494" stroke="#666" stroke-width="1"/>
<text x="450" y="508" font-size="10" font-family="Arial" fill="#333" text-anchor="middle">21</text>
<line x1="526" y1="490" x2="526" y2="494" stroke="#666" stroke-width="1"/>
<text x="526" y="508" font-size="10" font-family="Arial" fill="#333" text-anchor="middle">25</text>
<line x1="603" y1="490" x2="603" y2="494" stroke="#666" stroke-width="1"/>
<text x="603" y="508" font-size="10" font-family="Arial" fill="#333" text-anchor="middle">29</text>
<line x1="679" y1="490" x2="679" y2="494" stroke="#666" stroke-width="1"/>
<text x="679" y="508" font-size="10" font-family="Arial" fill="#333" text-anchor="middle">33</text>
<line x1="755" y1="490" x2="755" y2="494" stroke="#666" stroke-width="1"/>
<text x="755" y="508" font-size="10" font-family="Arial" fill="#333" text-anchor="middle">37</text>
<line x1="831" y1="490" x2="831" y2="494" stroke="#666" stroke-width="1"/>
<text x="831" y="508" font-size="10" font-family="Arial" fill="#333" text-anchor="middle">41</text>
<line x1="907" y1="490" x2="907" y2="494" stroke="#666" stroke-width="1"/>
<text x="907" y="508" font-size="10" font-family="Arial" fill="#333" text-anchor="middle">45</text>
<line x1="983" y1="490" x2="983" y2="494" stroke="#666" stroke-width="1"/>
<text x="983" y="508" font-size="10" font-family="Arial" fill="#333" text-anchor="middle">49</text>
<line x1="1040" y1="490" x2="1040" y2="494" stroke="#666" stroke-width="1"/>
<text x="1040" y="508" font-size="10" font-family="Arial" fill="#333" text-anchor="middle">52</text>
<polyline fill="none" stroke="#d62728" stroke-width="2.2" points="70,477 89,477 108,175 127,175 146,175 165,175 184,175 203,175 222,175 241,175 260,50 279,175 298,213 317,213 336,214 355,246 374,246 393,246 412,246 431,248 450,248 469,248 488,248 507,248 526,248 545,248 565,248 584,248 603,248 622,248 641,248 660,251 679,251 698,251 717,251 736,251 755,251 774,251 793,251 812,251 831,251 850,237 869,251 888,251 907,251 926,251 945,251 964,251 983,252 1002,252 1021,252 1040,251"/>
<circle cx="70" cy="477" r="2.5" fill="#d62728"/>
<circle cx="89" cy="477" r="2.5" fill="#d62728"/>
<circle cx="108" cy="175" r="2.5" fill="#d62728"/>
<circle cx="127" cy="175" r="2.5" fill="#d62728"/>
<circle cx="146" cy="175" r="2.5" fill="#d62728"/>
<circle cx="165" cy="175" r="2.5" fill="#d62728"/>
<circle cx="184" cy="175" r="2.5" fill="#d62728"/>
<circle cx="203" cy="175" r="2.5" fill="#d62728"/>
<circle cx="222" cy="175" r="2.5" fill="#d62728"/>
<circle cx="241" cy="175" r="2.5" fill="#d62728"/>
<circle cx="260" cy="50" r="2.5" fill="#d62728"/>
<circle cx="279" cy="175" r="2.5" fill="#d62728"/>
<circle cx="298" cy="213" r="2.5" fill="#d62728"/>
<circle cx="317" cy="213" r="2.5" fill="#d62728"/>
<circle cx="336" cy="214" r="2.5" fill="#d62728"/>
<circle cx="355" cy="246" r="2.5" fill="#d62728"/>
<circle cx="374" cy="246" r="2.5" fill="#d62728"/>
<circle cx="393" cy="246" r="2.5" fill="#d62728"/>
<circle cx="412" cy="246" r="2.5" fill="#d62728"/>
<circle cx="431" cy="248" r="2.5" fill="#d62728"/>
<circle cx="450" cy="248" r="2.5" fill="#d62728"/>
<circle cx="469" cy="248" r="2.5" fill="#d62728"/>
<circle cx="488" cy="248" r="2.5" fill="#d62728"/>
<circle cx="507" cy="248" r="2.5" fill="#d62728"/>
<circle cx="526" cy="248" r="2.5" fill="#d62728"/>
<circle cx="545" cy="248" r="2.5" fill="#d62728"/>
<circle cx="565" cy="248" r="2.5" fill="#d62728"/>
<circle cx="584" cy="248" r="2.5" fill="#d62728"/>
<circle cx="603" cy="248" r="2.5" fill="#d62728"/>
<circle cx="622" cy="248" r="2.5" fill="#d62728"/>
<circle cx="641" cy="248" r="2.5" fill="#d62728"/>
<circle cx="660" cy="251" r="2.5" fill="#d62728"/>
<circle cx="679" cy="251" r="2.5" fill="#d62728"/>
<circle cx="698" cy="251" r="2.5" fill="#d62728"/>
<circle cx="717" cy="251" r="2.5" fill="#d62728"/>
<circle cx="736" cy="251" r="2.5" fill="#d62728"/>
<circle cx="755" cy="251" r="2.5" fill="#d62728"/>
<circle cx="774" cy="251" r="2.5" fill="#d62728"/>
<circle cx="793" cy="251" r="2.5" fill="#d62728"/>
<circle cx="812" cy="251" r="2.5" fill="#d62728"/>
<circle cx="831" cy="251" r="2.5" fill="#d62728"/>
<circle cx="850" cy="237" r="2.5" fill="#d62728"/>
<circle cx="869" cy="251" r="2.5" fill="#d62728"/>
<circle cx="888" cy="251" r="2.5" fill="#d62728"/>
<circle cx="907" cy="251" r="2.5" fill="#d62728"/>
<circle cx="926" cy="251" r="2.5" fill="#d62728"/>
<circle cx="945" cy="251" r="2.5" fill="#d62728"/>
<circle cx="964" cy="251" r="2.5" fill="#d62728"/>
<circle cx="983" cy="252" r="2.5" fill="#d62728"/>
<circle cx="1002" cy="252" r="2.5" fill="#d62728"/>
<circle cx="1021" cy="252" r="2.5" fill="#d62728"/>
<circle cx="1040" cy="251" r="2.5" fill="#d62728"/>
<line x1="1060" y1="74" x2="1082" y2="74" stroke="#d62728" stroke-width="2.5"/>
<text x="1088" y="78" font-size="11" font-family="Arial" fill="#111">Analysis does not reconstruct to surface</text>
<polyline fill="none" stroke="#ff7f0e" stroke-width="2.2" points="70,478 89,403 108,403 127,403 146,403 165,403 184,403 203,403 222,403 241,403 260,403 279,403 298,403 317,403 336,403 355,403 374,403 393,403 412,403 431,403 450,403 469,403 488,403 507,403 526,403 545,403 565,403 584,403 603,403 622,403 641,403 660,403 679,403 698,403 717,403 736,403 755,403 774,403 793,403 812,403 831,403 850,403 869,403 888,403 907,403 926,403 945,403 964,403 983,403 1002,403 1021,403 1040,403"/>
<circle cx="70" cy="478" r="2.5" fill="#ff7f0e"/>
<circle cx="89" cy="403" r="2.5" fill="#ff7f0e"/>
<circle cx="108" cy="403" r="2.5" fill="#ff7f0e"/>
<circle cx="127" cy="403" r="2.5" fill="#ff7f0e"/>
<circle cx="146" cy="403" r="2.5" fill="#ff7f0e"/>
<circle cx="165" cy="403" r="2.5" fill="#ff7f0e"/>
<circle cx="184" cy="403" r="2.5" fill="#ff7f0e"/>
<circle cx="203" cy="403" r="2.5" fill="#ff7f0e"/>
<circle cx="222" cy="403" r="2.5" fill="#ff7f0e"/>
<circle cx="241" cy="403" r="2.5" fill="#ff7f0e"/>
<circle cx="260" cy="403" r="2.5" fill="#ff7f0e"/>
<circle cx="279" cy="403" r="2.5" fill="#ff7f0e"/>
<circle cx="298" cy="403" r="2.5" fill="#ff7f0e"/>
<circle cx="317" cy="403" r="2.5" fill="#ff7f0e"/>
<circle cx="336" cy="403" r="2.5" fill="#ff7f0e"/>
<circle cx="355" cy="403" r="2.5" fill="#ff7f0e"/>
<circle cx="374" cy="403" r="2.5" fill="#ff7f0e"/>
<circle cx="393" cy="403" r="2.5" fill="#ff7f0e"/>
<circle cx="412" cy="403" r="2.5" fill="#ff7f0e"/>
<circle cx="431" cy="403" r="2.5" fill="#ff7f0e"/>
<circle cx="450" cy="403" r="2.5" fill="#ff7f0e"/>
<circle cx="469" cy="403" r="2.5" fill="#ff7f0e"/>
<circle cx="488" cy="403" r="2.5" fill="#ff7f0e"/>
<circle cx="507" cy="403" r="2.5" fill="#ff7f0e"/>
<circle cx="526" cy="403" r="2.5" fill="#ff7f0e"/>
<circle cx="545" cy="403" r="2.5" fill="#ff7f0e"/>
<circle cx="565" cy="403" r="2.5" fill="#ff7f0e"/>
<circle cx="584" cy="403" r="2.5" fill="#ff7f0e"/>
<circle cx="603" cy="403" r="2.5" fill="#ff7f0e"/>
<circle cx="622" cy="403" r="2.5" fill="#ff7f0e"/>
<circle cx="641" cy="403" r="2.5" fill="#ff7f0e"/>
<circle cx="660" cy="403" r="2.5" fill="#ff7f0e"/>
<circle cx="679" cy="403" r="2.5" fill="#ff7f0e"/>
<circle cx="698" cy="403" r="2.5" fill="#ff7f0e"/>
<circle cx="717" cy="403" r="2.5" fill="#ff7f0e"/>
<circle cx="736" cy="403" r="2.5" fill="#ff7f0e"/>
<circle cx="755" cy="403" r="2.5" fill="#ff7f0e"/>
<circle cx="774" cy="403" r="2.5" fill="#ff7f0e"/>
<circle cx="793" cy="403" r="2.5" fill="#ff7f0e"/>
<circle cx="812" cy="403" r="2.5" fill="#ff7f0e"/>
<circle cx="831" cy="403" r="2.5" fill="#ff7f0e"/>
<circle cx="850" cy="403" r="2.5" fill="#ff7f0e"/>
<circle cx="869" cy="403" r="2.5" fill="#ff7f0e"/>
<circle cx="888" cy="403" r="2.5" fill="#ff7f0e"/>
<circle cx="907" cy="403" r="2.5" fill="#ff7f0e"/>
<circle cx="926" cy="403" r="2.5" fill="#ff7f0e"/>
<circle cx="945" cy="403" r="2.5" fill="#ff7f0e"/>
<circle cx="964" cy="403" r="2.5" fill="#ff7f0e"/>
<circle cx="983" cy="403" r="2.5" fill="#ff7f0e"/>
<circle cx="1002" cy="403" r="2.5" fill="#ff7f0e"/>
<circle cx="1021" cy="403" r="2.5" fill="#ff7f0e"/>
<circle cx="1040" cy="403" r="2.5" fill="#ff7f0e"/>
<line x1="1060" y1="94" x2="1082" y2="94" stroke="#ff7f0e" stroke-width="2.5"/>
<text x="1088" y="98" font-size="11" font-family="Arial" fill="#111">Surface not found in UDB concordance</text>
<polyline fill="none" stroke="#1f77b4" stroke-width="2.2" points="70,462 89,144 108,373 127,373 146,457 165,457 184,457 203,381 222,383 241,384 260,452 279,433 298,433 317,438 336,438 355,445 374,445 393,444 412,444 431,444 450,444 469,444 488,444 507,444 526,444 545,444 565,443 584,443 603,444 622,444 641,444 660,450 679,450 698,450 717,483 736,483 755,483 774,483 793,483 812,483 831,483 850,483 869,483 888,483 907,483 926,483 945,483 964,483 983,483 1002,484 1021,483 1040,484"/>
<circle cx="70" cy="462" r="2.5" fill="#1f77b4"/>
<circle cx="89" cy="144" r="2.5" fill="#1f77b4"/>
<circle cx="108" cy="373" r="2.5" fill="#1f77b4"/>
<circle cx="127" cy="373" r="2.5" fill="#1f77b4"/>
<circle cx="146" cy="457" r="2.5" fill="#1f77b4"/>
<circle cx="165" cy="457" r="2.5" fill="#1f77b4"/>
<circle cx="184" cy="457" r="2.5" fill="#1f77b4"/>
<circle cx="203" cy="381" r="2.5" fill="#1f77b4"/>
<circle cx="222" cy="383" r="2.5" fill="#1f77b4"/>
<circle cx="241" cy="384" r="2.5" fill="#1f77b4"/>
<circle cx="260" cy="452" r="2.5" fill="#1f77b4"/>
<circle cx="279" cy="433" r="2.5" fill="#1f77b4"/>
<circle cx="298" cy="433" r="2.5" fill="#1f77b4"/>
<circle cx="317" cy="438" r="2.5" fill="#1f77b4"/>
<circle cx="336" cy="438" r="2.5" fill="#1f77b4"/>
<circle cx="355" cy="445" r="2.5" fill="#1f77b4"/>
<circle cx="374" cy="445" r="2.5" fill="#1f77b4"/>
<circle cx="393" cy="444" r="2.5" fill="#1f77b4"/>
<circle cx="412" cy="444" r="2.5" fill="#1f77b4"/>
<circle cx="431" cy="444" r="2.5" fill="#1f77b4"/>
<circle cx="450" cy="444" r="2.5" fill="#1f77b4"/>
<circle cx="469" cy="444" r="2.5" fill="#1f77b4"/>
<circle cx="488" cy="444" r="2.5" fill="#1f77b4"/>
<circle cx="507" cy="444" r="2.5" fill="#1f77b4"/>
<circle cx="526" cy="444" r="2.5" fill="#1f77b4"/>
<circle cx="545" cy="444" r="2.5" fill="#1f77b4"/>
<circle cx="565" cy="443" r="2.5" fill="#1f77b4"/>
<circle cx="584" cy="443" r="2.5" fill="#1f77b4"/>
<circle cx="603" cy="444" r="2.5" fill="#1f77b4"/>
<circle cx="622" cy="444" r="2.5" fill="#1f77b4"/>
<circle cx="641" cy="444" r="2.5" fill="#1f77b4"/>
<circle cx="660" cy="450" r="2.5" fill="#1f77b4"/>
<circle cx="679" cy="450" r="2.5" fill="#1f77b4"/>
<circle cx="698" cy="450" r="2.5" fill="#1f77b4"/>
<circle cx="717" cy="483" r="2.5" fill="#1f77b4"/>
<circle cx="736" cy="483" r="2.5" fill="#1f77b4"/>
<circle cx="755" cy="483" r="2.5" fill="#1f77b4"/>
<circle cx="774" cy="483" r="2.5" fill="#1f77b4"/>
<circle cx="793" cy="483" r="2.5" fill="#1f77b4"/>
<circle cx="812" cy="483" r="2.5" fill="#1f77b4"/>
<circle cx="831" cy="483" r="2.5" fill="#1f77b4"/>
<circle cx="850" cy="483" r="2.5" fill="#1f77b4"/>
<circle cx="869" cy="483" r="2.5" fill="#1f77b4"/>
<circle cx="888" cy="483" r="2.5" fill="#1f77b4"/>
<circle cx="907" cy="483" r="2.5" fill="#1f77b4"/>
<circle cx="926" cy="483" r="2.5" fill="#1f77b4"/>
<circle cx="945" cy="483" r="2.5" fill="#1f77b4"/>
<circle cx="964" cy="483" r="2.5" fill="#1f77b4"/>
<circle cx="983" cy="483" r="2.5" fill="#1f77b4"/>
<circle cx="1002" cy="484" r="2.5" fill="#1f77b4"/>
<circle cx="1021" cy="483" r="2.5" fill="#1f77b4"/>
<circle cx="1040" cy="484" r="2.5" fill="#1f77b4"/>
<line x1="1060" y1="114" x2="1082" y2="114" stroke="#1f77b4" stroke-width="2.5"/>
<text x="1088" y="118" font-size="11" font-family="Arial" fill="#111">No DULAT entry found for lexeme/surface</text>
<polyline fill="none" stroke="#2ca02c" stroke-width="2.2" points="70,481 89,474 108,402 127,402 146,402 165,402 184,402 203,418 222,418 241,418 260,378 279,407 298,448 317,448 336,448 355,447 374,488 393,488 412,488 431,488 450,488 469,488 488,488 507,488 526,488 545,488 565,487 584,487 603,487 622,487 641,487 660,487 679,487 698,487 717,487 736,487 755,487 774,487 793,487 812,487 831,487 850,487 869,487 888,487 907,487 926,487 945,487 964,487 983,487 1002,487 1021,487 1040,487"/>
<circle cx="70" cy="481" r="2.5" fill="#2ca02c"/>
<circle cx="89" cy="474" r="2.5" fill="#2ca02c"/>
<circle cx="108" cy="402" r="2.5" fill="#2ca02c"/>
<circle cx="127" cy="402" r="2.5" fill="#2ca02c"/>
<circle cx="146" cy="402" r="2.5" fill="#2ca02c"/>
<circle cx="165" cy="402" r="2.5" fill="#2ca02c"/>
<circle cx="184" cy="402" r="2.5" fill="#2ca02c"/>
<circle cx="203" cy="418" r="2.5" fill="#2ca02c"/>
<circle cx="222" cy="418" r="2.5" fill="#2ca02c"/>
<circle cx="241" cy="418" r="2.5" fill="#2ca02c"/>
<circle cx="260" cy="378" r="2.5" fill="#2ca02c"/>
<circle cx="279" cy="407" r="2.5" fill="#2ca02c"/>
<circle cx="298" cy="448" r="2.5" fill="#2ca02c"/>
<circle cx="317" cy="448" r="2.5" fill="#2ca02c"/>
<circle cx="336" cy="448" r="2.5" fill="#2ca02c"/>
<circle cx="355" cy="447" r="2.5" fill="#2ca02c"/>
<circle cx="374" cy="488" r="2.5" fill="#2ca02c"/>
<circle cx="393" cy="488" r="2.5" fill="#2ca02c"/>
<circle cx="412" cy="488" r="2.5" fill="#2ca02c"/>
<circle cx="431" cy="488" r="2.5" fill="#2ca02c"/>
<circle cx="450" cy="488" r="2.5" fill="#2ca02c"/>
<circle cx="469" cy="488" r="2.5" fill="#2ca02c"/>
<circle cx="488" cy="488" r="2.5" fill="#2ca02c"/>
<circle cx="507" cy="488" r="2.5" fill="#2ca02c"/>
<circle cx="526" cy="488" r="2.5" fill="#2ca02c"/>
<circle cx="545" cy="488" r="2.5" fill="#2ca02c"/>
<circle cx="565" cy="487" r="2.5" fill="#2ca02c"/>
<circle cx="584" cy="487" r="2.5" fill="#2ca02c"/>
<circle cx="603" cy="487" r="2.5" fill="#2ca02c"/>
<circle cx="622" cy="487" r="2.5" fill="#2ca02c"/>
<circle cx="641" cy="487" r="2.5" fill="#2ca02c"/>
<circle cx="660" cy="487" r="2.5" fill="#2ca02c"/>
<circle cx="679" cy="487" r="2.5" fill="#2ca02c"/>
<circle cx="698" cy="487" r="2.5" fill="#2ca02c"/>
<circle cx="717" cy="487" r="2.5" fill="#2ca02c"/>
<circle cx="736" cy="487" r="2.5" fill="#2ca02c"/>
<circle cx="755" cy="487" r="2.5" fill="#2ca02c"/>
<circle cx="774" cy="487" r="2.5" fill="#2ca02c"/>
<circle cx="793" cy="487" r="2.5" fill="#2ca02c"/>
<circle cx="812" cy="487" r="2.5" fill="#2ca02c"/>
<circle cx="831" cy="487" r="2.5" fill="#2ca02c"/>
<circle cx="850" cy="487" r="2.5" fill="#2ca02c"/>
<circle cx="869" cy="487" r="2.5" fill="#2ca02c"/>
<circle cx="888" cy="487" r="2.5" fill="#2ca02c"/>
<circle cx="907" cy="487" r="2.5" fill="#2ca02c"/>
<circle cx="926" cy="487" r="2.5" fill="#2ca02c"/>
<circle cx="945" cy="487" r="2.5" fill="#2ca02c"/>
<circle cx="964" cy="487" r="2.5" fill="#2ca02c"/>
<circle cx="983" cy="487" r="2.5" fill="#2ca02c"/>
<circle cx="1002" cy="487" r="2.5" fill="#2ca02c"/>
<circle cx="1021" cy="487" r="2.5" fill="#2ca02c"/>
<circle cx="1040" cy="487" r="2.5" fill="#2ca02c"/>
<line x1="1060" y1="134" x2="1082" y2="134" stroke="#2ca02c" stroke-width="2.5"/>
<text x="1088" y="138" font-size="11" font-family="Arial" fill="#111">Suffix form without '+'</text>
<polyline fill="none" stroke="#9467bd" stroke-width="2.2" points="70,477 89,296 108,331 127,331 146,477 165,477 184,477 203,477 222,477 241,477 260,490 279,477 298,477 317,477 336,477 355,477 374,477 393,477 412,477 431,477 450,477 469,477 488,477 507,477 526,477 545,477 565,477 584,477 603,478 622,478 641,478 660,478 679,478 698,478 717,478 736,478 755,478 774,478 793,478 812,478 831,478 850,481 869,478 888,478 907,478 926,478 945,478 964,478 983,478 1002,479 1021,479 1040,483"/>
<circle cx="70" cy="477" r="2.5" fill="#9467bd"/>
<circle cx="89" cy="296" r="2.5" fill="#9467bd"/>
<circle cx="108" cy="331" r="2.5" fill="#9467bd"/>
<circle cx="127" cy="331" r="2.5" fill="#9467bd"/>
<circle cx="146" cy="477" r="2.5" fill="#9467bd"/>
<circle cx="165" cy="477" r="2.5" fill="#9467bd"/>
<circle cx="184" cy="477" r="2.5" fill="#9467bd"/>
<circle cx="203" cy="477" r="2.5" fill="#9467bd"/>
<circle cx="222" cy="477" r="2.5" fill="#9467bd"/>
<circle cx="241" cy="477" r="2.5" fill="#9467bd"/>
<circle cx="260" cy="490" r="2.5" fill="#9467bd"/>
<circle cx="279" cy="477" r="2.5" fill="#9467bd"/>
<circle cx="298" cy="477" r="2.5" fill="#9467bd"/>
<circle cx="317" cy="477" r="2.5" fill="#9467bd"/>
<circle cx="336" cy="477" r="2.5" fill="#9467bd"/>
<circle cx="355" cy="477" r="2.5" fill="#9467bd"/>
<circle cx="374" cy="477" r="2.5" fill="#9467bd"/>
<circle cx="393" cy="477" r="2.5" fill="#9467bd"/>
<circle cx="412" cy="477" r="2.5" fill="#9467bd"/>
<circle cx="431" cy="477" r="2.5" fill="#9467bd"/>
<circle cx="450" cy="477" r="2.5" fill="#9467bd"/>
<circle cx="469" cy="477" r="2.5" fill="#9467bd"/>
<circle cx="488" cy="477" r="2.5" fill="#9467bd"/>
<circle cx="507" cy="477" r="2.5" fill="#9467bd"/>
<circle cx="526" cy="477" r="2.5" fill="#9467bd"/>
<circle cx="545" cy="477" r="2.5" fill="#9467bd"/>
<circle cx="565" cy="477" r="2.5" fill="#9467bd"/>
<circle cx="584" cy="477" r="2.5" fill="#9467bd"/>
<circle cx="603" cy="478" r="2.5" fill="#9467bd"/>
<circle cx="622" cy="478" r="2.5" fill="#9467bd"/>
<circle cx="641" cy="478" r="2.5" fill="#9467bd"/>
<circle cx="660" cy="478" r="2.5" fill="#9467bd"/>
<circle cx="679" cy="478" r="2.5" fill="#9467bd"/>
<circle cx="698" cy="478" r="2.5" fill="#9467bd"/>
<circle cx="717" cy="478" r="2.5" fill="#9467bd"/>
<circle cx="736" cy="478" r="2.5" fill="#9467bd"/>
<circle cx="755" cy="478" r="2.5" fill="#9467bd"/>
<circle cx="774" cy="478" r="2.5" fill="#9467bd"/>
<circle cx="793" cy="478" r="2.5" fill="#9467bd"/>
<circle cx="812" cy="478" r="2.5" fill="#9467bd"/>
<circle cx="831" cy="478" r="2.5" fill="#9467bd"/>
<circle cx="850" cy="481" r="2.5" fill="#9467bd"/>
<circle cx="869" cy="478" r="2.5" fill="#9467bd"/>
<circle cx="888" cy="478" r="2.5" fill="#9467bd"/>
<circle cx="907" cy="478" r="2.5" fill="#9467bd"/>
<circle cx="926" cy="478" r="2.5" fill="#9467bd"/>
<circle cx="945" cy="478" r="2.5" fill="#9467bd"/>
<circle cx="964" cy="478" r="2.5" fill="#9467bd"/>
<circle cx="983" cy="478" r="2.5" fill="#9467bd"/>
<circle cx="1002" cy="479" r="2.5" fill="#9467bd"/>
<circle cx="1021" cy="479" r="2.5" fill="#9467bd"/>
<circle cx="1040" cy="483" r="2.5" fill="#9467bd"/>
<line x1="1060" y1="154" x2="1082" y2="154" stroke="#9467bd" stroke-width="2.5"/>
<text x="1088" y="158" font-size="11" font-family="Arial" fill="#111">Missing DULAT entry token(s) in column 4</text>
<polyline fill="none" stroke="#8c564b" stroke-width="2.2" points="70,490 89,490 108,470 127,470 146,470 165,470 184,470 203,470 222,470 241,470 260,463 279,470 298,470 317,470 336,470 355,470 374,470 393,470 412,470 431,470 450,470 469,470 488,470 507,470 526,470 545,470 565,468 584,468 603,468 622,468 641,468 660,468 679,468 698,468 717,468 736,468 755,468 774,468 793,468 812,468 831,468 850,467 869,468 888,468 907,468 926,468 945,468 964,468 983,468 1002,468 1021,468 1040,468"/>
<circle cx="70" cy="490" r="2.5" fill="#8c564b"/>
<circle cx="89" cy="490" r="2.5" fill="#8c564b"/>
<circle cx="108" cy="470" r="2.5" fill="#8c564b"/>
<circle cx="127" cy="470" r="2.5" fill="#8c564b"/>
<circle cx="146" cy="470" r="2.5" fill="#8c564b"/>
<circle cx="165" cy="470" r="2.5" fill="#8c564b"/>
<circle cx="184" cy="470" r="2.5" fill="#8c564b"/>
<circle cx="203" cy="470" r="2.5" fill="#8c564b"/>
<circle cx="222" cy="470" r="2.5" fill="#8c564b"/>
<circle cx="241" cy="470" r="2.5" fill="#8c564b"/>
<circle cx="260" cy="463" r="2.5" fill="#8c564b"/>
<circle cx="279" cy="470" r="2.5" fill="#8c564b"/>
<circle cx="298" cy="470" r="2.5" fill="#8c564b"/>
<circle cx="317" cy="470" r="2.5" fill="#8c564b"/>
<circle cx="336" cy="470" r="2.5" fill="#8c564b"/>
<circle cx="355" cy="470" r="2.5" fill="#8c564b"/>
<circle cx="374" cy="470" r="2.5" fill="#8c564b"/>
<circle cx="393" cy="470" r="2.5" fill="#8c564b"/>
<circle cx="412" cy="470" r="2.5" fill="#8c564b"/>
<circle cx="431" cy="470" r="2.5" fill="#8c564b"/>
<circle cx="450" cy="470" r="2.5" fill="#8c564b"/>
<circle cx="469" cy="470" r="2.5" fill="#8c564b"/>
<circle cx="488" cy="470" r="2.5" fill="#8c564b"/>
<circle cx="507" cy="470" r="2.5" fill="#8c564b"/>
<circle cx="526" cy="470" r="2.5" fill="#8c564b"/>
<circle cx="545" cy="470" r="2.5" fill="#8c564b"/>
<circle cx="565" cy="468" r="2.5" fill="#8c564b"/>
<circle cx="584" cy="468" r="2.5" fill="#8c564b"/>
<circle cx="603" cy="468" r="2.5" fill="#8c564b"/>
<circle cx="622" cy="468" r="2.5" fill="#8c564b"/>
<circle cx="641" cy="468" r="2.5" fill="#8c564b"/>
<circle cx="660" cy="468" r="2.5" fill="#8c564b"/>
<circle cx="679" cy="468" r="2.5" fill="#8c564b"/>
<circle cx="698" cy="468" r="2.5" fill="#8c564b"/>
<circle cx="717" cy="468" r="2.5" fill="#8c564b"/>
<circle cx="736" cy="468" r="2.5" fill="#8c564b"/>
<circle cx="755" cy="468" r="2.5" fill="#8c564b"/>
<circle cx="774" cy="468" r="2.5" fill="#8c564b"/>
<circle cx="793" cy="468" r="2.5" fill="#8c564b"/>
<circle cx="812" cy="468" r="2.5" fill="#8c564b"/>
<circle cx="831" cy="468" r="2.5" fill="#8c564b"/>
<circle cx="850" cy="467" r="2.5" fill="#8c564b"/>
<circle cx="869" cy="468" r="2.5" fill="#8c564b"/>
<circle cx="888" cy="468" r="2.5" fill="#8c564b"/>
<circle cx="907" cy="468" r="2.5" fill="#8c564b"/>
<circle cx="926" cy="468" r="2.5" fill="#8c564b"/>
<circle cx="945" cy="468" r="2.5" fill="#8c564b"/>
<circle cx="964" cy="468" r="2.5" fill="#8c564b"/>
<circle cx="983" cy="468" r="2.5" fill="#8c564b"/>
<circle cx="1002" cy="468" r="2.5" fill="#8c564b"/>
<circle cx="1021" cy="468" r="2.5" fill="#8c564b"/>
<circle cx="1040" cy="468" r="2.5" fill="#8c564b"/>
<line x1="1060" y1="174" x2="1082" y2="174" stroke="#8c564b" stroke-width="2.5"/>
<text x="1088" y="178" font-size="11" font-family="Arial" fill="#111">ʔ must be preceded by '(' in column 3</text>
<polyline fill="none" stroke="#e377c2" stroke-width="2.2" points="70,485 89,461 108,426 127,426 146,426 165,426 184,426 203,454 222,454 241,454 260,438 279,454 298,454 317,454 336,454 355,477 374,489 393,489 412,489 431,489 450,489 469,489 488,489 507,489 526,489 545,489 565,489 584,489 603,489 622,489 641,489 660,489 679,489 698,489 717,489 736,489 755,489 774,489 793,489 812,489 831,489 850,489 869,489 888,489 907,489 926,489 945,489 964,489 983,489 1002,489 1021,489 1040,489"/>
<circle cx="70" cy="485" r="2.5" fill="#e377c2"/>
<circle cx="89" cy="461" r="2.5" fill="#e377c2"/>
<circle cx="108" cy="426" r="2.5" fill="#e377c2"/>
<circle cx="127" cy="426" r="2.5" fill="#e377c2"/>
<circle cx="146" cy="426" r="2.5" fill="#e377c2"/>
<circle cx="165" cy="426" r="2.5" fill="#e377c2"/>
<circle cx="184" cy="426" r="2.5" fill="#e377c2"/>
<circle cx="203" cy="454" r="2.5" fill="#e377c2"/>
<circle cx="222" cy="454" r="2.5" fill="#e377c2"/>
<circle cx="241" cy="454" r="2.5" fill="#e377c2"/>
<circle cx="260" cy="438" r="2.5" fill="#e377c2"/>
<circle cx="279" cy="454" r="2.5" fill="#e377c2"/>
<circle cx="298" cy="454" r="2.5" fill="#e377c2"/>
<circle cx="317" cy="454" r="2.5" fill="#e377c2"/>
<circle cx="336" cy="454" r="2.5" fill="#e377c2"/>
<circle cx="355" cy="477" r="2.5" fill="#e377c2"/>
<circle cx="374" cy="489" r="2.5" fill="#e377c2"/>
<circle cx="393" cy="489" r="2.5" fill="#e377c2"/>
<circle cx="412" cy="489" r="2.5" fill="#e377c2"/>
<circle cx="431" cy="489" r="2.5" fill="#e377c2"/>
<circle cx="450" cy="489" r="2.5" fill="#e377c2"/>
<circle cx="469" cy="489" r="2.5" fill="#e377c2"/>
<circle cx="488" cy="489" r="2.5" fill="#e377c2"/>
<circle cx="507" cy="489" r="2.5" fill="#e377c2"/>
<circle cx="526" cy="489" r="2.5" fill="#e377c2"/>
<circle cx="545" cy="489" r="2.5" fill="#e377c2"/>
<circle cx="565" cy="489" r="2.5" fill="#e377c2"/>
<circle cx="584" cy="489" r="2.5" fill="#e377c2"/>
<circle cx="603" cy="489" r="2.5" fill="#e377c2"/>
<circle cx="622" cy="489" r="2.5" fill="#e377c2"/>
<circle cx="641" cy="489" r="2.5" fill="#e377c2"/>
<circle cx="660" cy="489" r="2.5" fill="#e377c2"/>
<circle cx="679" cy="489" r="2.5" fill="#e377c2"/>
<circle cx="698" cy="489" r="2.5" fill="#e377c2"/>
<circle cx="717" cy="489" r="2.5" fill="#e377c2"/>
<circle cx="736" cy="489" r="2.5" fill="#e377c2"/>
<circle cx="755" cy="489" r="2.5" fill="#e377c2"/>
<circle cx="774" cy="489" r="2.5" fill="#e377c2"/>
<circle cx="793" cy="489" r="2.5" fill="#e377c2"/>
<circle cx="812" cy="489" r="2.5" fill="#e377c2"/>
<circle cx="831" cy="489" r="2.5" fill="#e377c2"/>
<circle cx="850" cy="489" r="2.5" fill="#e377c2"/>
<circle cx="869" cy="489" r="2.5" fill="#e377c2"/>
<circle cx="888" cy="489" r="2.5" fill="#e377c2"/>
<circle cx="907" cy="489" r="2.5" fill="#e377c2"/>
<circle cx="926" cy="489" r="2.5" fill="#e377c2"/>
<circle cx="945" cy="489" r="2.5" fill="#e377c2"/>
<circle cx="964" cy="489" r="2.5" fill="#e377c2"/>
<circle cx="983" cy="489" r="2.5" fill="#e377c2"/>
<circle cx="1002" cy="489" r="2.5" fill="#e377c2"/>
<circle cx="1021" cy="489" r="2.5" fill="#e377c2"/>
<circle cx="1040" cy="489" r="2.5" fill="#e377c2"/>
<line x1="1060" y1="194" x2="1082" y2="194" stroke="#e377c2" stroke-width="2.5"/>
<text x="1088" y="198" font-size="11" font-family="Arial" fill="#111">Plural form missing split ending</text>
<polyline fill="none" stroke="#7f7f7f" stroke-width="2.2" points="70,488 89,486 108,482 127,482 146,482 165,482 184,482 203,480 222,480 241,480 260,478 279,480 298,480 317,482 336,482 355,482 374,482 393,482 412,482 431,482 450,482 469,482 488,482 507,482 526,482 545,482 565,483 584,483 603,483 622,483 641,483 660,480 679,483 698,483 717,483 736,483 755,483 774,483 793,483 812,483 831,483 850,483 869,483 888,483 907,483 926,483 945,483 964,483 983,483 1002,483 1021,483 1040,483"/>
<circle cx="70" cy="488" r="2.5" fill="#7f7f7f"/>
<circle cx="89" cy="486" r="2.5" fill="#7f7f7f"/>
<circle cx="108" cy="482" r="2.5" fill="#7f7f7f"/>
<circle cx="127" cy="482" r="2.5" fill="#7f7f7f"/>
<circle cx="146" cy="482" r="2.5" fill="#7f7f7f"/>
<circle cx="165" cy="482" r="2.5" fill="#7f7f7f"/>
<circle cx="184" cy="482" r="2.5" fill="#7f7f7f"/>
<circle cx="203" cy="480" r="2.5" fill="#7f7f7f"/>
<circle cx="222" cy="480" r="2.5" fill="#7f7f7f"/>
<circle cx="241" cy="480" r="2.5" fill="#7f7f7f"/>
<circle cx="260" cy="478" r="2.5" fill="#7f7f7f"/>
<circle cx="279" cy="480" r="2.5" fill="#7f7f7f"/>
<circle cx="298" cy="480" r="2.5" fill="#7f7f7f"/>
<circle cx="317" cy="482" r="2.5" fill="#7f7f7f"/>
<circle cx="336" cy="482" r="2.5" fill="#7f7f7f"/>
<circle cx="355" cy="482" r="2.5" fill="#7f7f7f"/>
<circle cx="374" cy="482" r="2.5" fill="#7f7f7f"/>
<circle cx="393" cy="482" r="2.5" fill="#7f7f7f"/>
<circle cx="412" cy="482" r="2.5" fill="#7f7f7f"/>
<circle cx="431" cy="482" r="2.5" fill="#7f7f7f"/>
<circle cx="450" cy="482" r="2.5" fill="#7f7f7f"/>
<circle cx="469" cy="482" r="2.5" fill="#7f7f7f"/>
<circle cx="488" cy="482" r="2.5" fill="#7f7f7f"/>
<circle cx="507" cy="482" r="2.5" fill="#7f7f7f"/>
<circle cx="526" cy="482" r="2.5" fill="#7f7f7f"/>
<circle cx="545" cy="482" r="2.5" fill="#7f7f7f"/>
<circle cx="565" cy="483" r="2.5" fill="#7f7f7f"/>
<circle cx="584" cy="483" r="2.5" fill="#7f7f7f"/>
<circle cx="603" cy="483" r="2.5" fill="#7f7f7f"/>
<circle cx="622" cy="483" r="2.5" fill="#7f7f7f"/>
<circle cx="641" cy="483" r="2.5" fill="#7f7f7f"/>
<circle cx="660" cy="480" r="2.5" fill="#7f7f7f"/>
<circle cx="679" cy="483" r="2.5" fill="#7f7f7f"/>
<circle cx="698" cy="483" r="2.5" fill="#7f7f7f"/>
<circle cx="717" cy="483" r="2.5" fill="#7f7f7f"/>
<circle cx="736" cy="483" r="2.5" fill="#7f7f7f"/>
<circle cx="755" cy="483" r="2.5" fill="#7f7f7f"/>
<circle cx="774" cy="483" r="2.5" fill="#7f7f7f"/>
<circle cx="793" cy="483" r="2.5" fill="#7f7f7f"/>
<circle cx="812" cy="483" r="2.5" fill="#7f7f7f"/>
<circle cx="831" cy="483" r="2.5" fill="#7f7f7f"/>
<circle cx="850" cy="483" r="2.5" fill="#7f7f7f"/>
<circle cx="869" cy="483" r="2.5" fill="#7f7f7f"/>
<circle cx="888" cy="483" r="2.5" fill="#7f7f7f"/>
<circle cx="907" cy="483" r="2.5" fill="#7f7f7f"/>
<circle cx="926" cy="483" r="2.5" fill="#7f7f7f"/>
<circle cx="945" cy="483" r="2.5" fill="#7f7f7f"/>
<circle cx="964" cy="483" r="2.5" fill="#7f7f7f"/>
<circle cx="983" cy="483" r="2.5" fill="#7f7f7f"/>
<circle cx="1002" cy="483" r="2.5" fill="#7f7f7f"/>
<circle cx="1021" cy="483" r="2.5" fill="#7f7f7f"/>
<circle cx="1040" cy="483" r="2.5" fill="#7f7f7f"/>
<line x1="1060" y1="214" x2="1082" y2="214" stroke="#7f7f7f" stroke-width="2.5"/>
<text x="1088" y="218" font-size="11" font-family="Arial" fill="#111">Non-G stem in DULAT requires stem marker</text>
<text x="555" y="540" font-size="11" font-family="Arial" fill="#444">Run sequence</text>
</svg>
