<svg xmlns="http://www.w3.org/2000/svg" width="1100" height="520">
<rect x="0" y="0" width="1100" height="520" fill="#ffffff"/>
<text x="70" y="30" font-size="20" font-family="Arial" fill="#111">Morphology Lint Trend by Severity</text>
<line x1="70" y1="450" x2="840" y2="450" stroke="#e6e6e6" stroke-width="1"/>
<text x="62" y="454" font-size="11" font-family="Arial" fill="#333" text-anchor="end">0</text>
<line x1="70" y1="370" x2="840" y2="370" stroke="#e6e6e6" stroke-width="1"/>
<text x="62" y="374" font-size="11" font-family="Arial" fill="#333" text-anchor="end">2377</text>
<line x1="70" y1="290" x2="840" y2="290" stroke="#e6e6e6" stroke-width="1"/>
<text x="62" y="294" font-size="11" font-family="Arial" fill="#333" text-anchor="end">4754</text>
<line x1="70" y1="210" x2="840" y2="210" stroke="#e6e6e6" stroke-width="1"/>
<text x="62" y="214" font-size="11" font-family="Arial" fill="#333" text-anchor="end">7131</text>
<line x1="70" y1="130" x2="840" y2="130" stroke="#e6e6e6" stroke-width="1"/>
<text x="62" y="134" font-size="11" font-family="Arial" fill="#333" text-anchor="end">9508</text>
<line x1="70" y1="50" x2="840" y2="50" stroke="#e6e6e6" stroke-width="1"/>
<text x="62" y="54" font-size="11" font-family="Arial" fill="#333" text-anchor="end">11885</text>
<line x1="70" y1="450" x2="840" y2="450" stroke="#333" stroke-width="1.2"/>
<line x1="70" y1="50" x2="70" y2="450" stroke="#333" stroke-width="1.2"/>
<line x1="70" y1="450" x2="70" y2="454" stroke="#666" stroke-width="1"/>
<text x="70" y="468" font-size="10" font-family="Arial" fill="#333" text-anchor="middle">1</text>
<line x1="122" y1="450" x2="122" y2="454" stroke="#666" stroke-width="1"/>
<text x="122" y="468" font-size="10" font-family="Arial" fill="#333" text-anchor="middle">4</text>
<line x1="175" y1="450" x2="175" y2="454" stroke="#666" stroke-width="1"/>
<text x="175" y="468" font-size="10" font-family="Arial" fill="#333" text-anchor="middle">7</text>
<line x1="228" y1="450" x2="228" y2="454" stroke="#666" stroke-width="1"/>
<text x="228" y="468" font-size="10" font-family="Arial" fill="#333" text-anchor="middle">10</text>
<line x1="280" y1="450" x2="280" y2="454" stroke="#666" stroke-width="1"/>
<text x="280" y="468" font-size="10" font-family="Arial" fill="#333" text-anchor="middle">13</text>
<line x1="332" y1="450" x2="332" y2="454" stroke="#666" stroke-width="1"/>
<text x="332" y="468" font-size="10" font-family="Arial" fill="#333" text-anchor="middle">16</text>
<line x1="385" y1="450" x2="385" y2="454" stroke="#666" stroke-width="1"/>
<text x="385" y="468" font-size="10" font-family="Arial" fill="#333" text-anchor="middle">19</text>
<line x1="438" y1="450" x2="438" y2="454" stroke="#666" stroke-width="1"/>
<text x="438" y="468" font-size="10" font-family="Arial" fill="#333" text-anchor="middle">22</text>
<line x1="490" y1="450" x2="490" y2="454" stroke="#666" stroke-width="1"/>
<text x="490" y="468" font-size="10" font-family="Arial" fill="#333" text-anchor="middle">25</text>
<line x1="542" y1="450" x2="542" y2="454" stroke="#666" stroke-width="1"/>
<text x="542" y="468" font-size="10" font-family="Arial" fill="#333" text-anchor="middle">28</text>
<line x1="595" y1="450" x2="595" y2="454" stroke="#666" stroke-width="1"/>
<text x="595" y="468" font-size="10" font-family="Arial" fill="#333" text-anchor="middle">31</text>
<line x1="648" y1="450" x2="648" y2="454" stroke="#666" stroke-width="1"/>
<text x="648" y="468" font-size="10" font-family="Arial" fill="#333" text-anchor="middle">34</text>
<line x1="700" y1="450" x2="700" y2="454" stroke="#666" stroke-width="1"/>
<text x="700" y="468" font-size="10" font-family="Arial" fill="#333" text-anchor="middle">37</text>
<line x1="752" y1="450" x2="752" y2="454" stroke="#666" stroke-width="1"/>
<text x="752" y="468" font-size="10" font-family="Arial" fill="#333" text-anchor="middle">40</text>
<line x1="805" y1="450" x2="805" y2="454" stroke="#666" stroke-width="1"/>
<text x="805" y="468" font-size="10" font-family="Arial" fill="#333" text-anchor="middle">43</text>
<line x1="840" y1="450" x2="840" y2="454" stroke="#666" stroke-width="1"/>
<text x="840" y="468" font-size="10" font-family="Arial" fill="#333" text-anchor="middle">45</text>
<polyline fill="none" stroke="#d62728" stroke-width="2.2" points="70,415 88,50 105,109 122,109 140,250 158,250 175,250 192,196 210,197 228,198 245,182 262,228 280,249 298,261 315,261 332,280 350,280 368,279 385,280 402,280 420,280 438,280 455,280 472,280 490,280 508,280 525,279 542,279 560,280 578,280 595,280 612,283 630,285 648,285 665,300 682,300 700,300 718,300 735,300 752,300 770,300 788,296 805,300 822,300 840,300"/>
<circle cx="70" cy="415" r="2.5" fill="#d62728"/>
<circle cx="88" cy="50" r="2.5" fill="#d62728"/>
<circle cx="105" cy="109" r="2.5" fill="#d62728"/>
<circle cx="122" cy="109" r="2.5" fill="#d62728"/>
<circle cx="140" cy="250" r="2.5" fill="#d62728"/>
<circle cx="158" cy="250" r="2.5" fill="#d62728"/>
<circle cx="175" cy="250" r="2.5" fill="#d62728"/>
<circle cx="192" cy="196" r="2.5" fill="#d62728"/>
<circle cx="210" cy="197" r="2.5" fill="#d62728"/>
<circle cx="228" cy="198" r="2.5" fill="#d62728"/>
<circle cx="245" cy="182" r="2.5" fill="#d62728"/>
<circle cx="262" cy="228" r="2.5" fill="#d62728"/>
<circle cx="280" cy="249" r="2.5" fill="#d62728"/>
<circle cx="298" cy="261" r="2.5" fill="#d62728"/>
<circle cx="315" cy="261" r="2.5" fill="#d62728"/>
<circle cx="332" cy="280" r="2.5" fill="#d62728"/>
<circle cx="350" cy="280" r="2.5" fill="#d62728"/>
<circle cx="368" cy="279" r="2.5" fill="#d62728"/>
<circle cx="385" cy="280" r="2.5" fill="#d62728"/>
<circle cx="402" cy="280" r="2.5" fill="#d62728"/>
<circle cx="420" cy="280" r="2.5" fill="#d62728"/>
<circle cx="438" cy="280" r="2.5" fill="#d62728"/>
<circle cx="455" cy="280" r="2.5" fill="#d62728"/>
<circle cx="472" cy="280" r="2.5" fill="#d62728"/>
<circle cx="490" cy="280" r="2.5" fill="#d62728"/>
<circle cx="508" cy="280" r="2.5" fill="#d62728"/>
<circle cx="525" cy="279" r="2.5" fill="#d62728"/>
<circle cx="542" cy="279" r="2.5" fill="#d62728"/>
<circle cx="560" cy="280" r="2.5" fill="#d62728"/>
<circle cx="578" cy="280" r="2.5" fill="#d62728"/>
<circle cx="595" cy="280" r="2.5" fill="#d62728"/>
<circle cx="612" cy="283" r="2.5" fill="#d62728"/>
<circle cx="630" cy="285" r="2.5" fill="#d62728"/>
<circle cx="648" cy="285" r="2.5" fill="#d62728"/>
<circle cx="665" cy="300" r="2.5" fill="#d62728"/>
<circle cx="682" cy="300" r="2.5" fill="#d62728"/>
<circle cx="700" cy="300" r="2.5" fill="#d62728"/>
<circle cx="718" cy="300" r="2.5" fill="#d62728"/>
<circle cx="735" cy="300" r="2.5" fill="#d62728"/>
<circle cx="752" cy="300" r="2.5" fill="#d62728"/>
<circle cx="770" cy="300" r="2.5" fill="#d62728"/>
<circle cx="788" cy="296" r="2.5" fill="#d62728"/>
<circle cx="805" cy="300" r="2.5" fill="#d62728"/>
<circle cx="822" cy="300" r="2.5" fill="#d62728"/>
<circle cx="840" cy="300" r="2.5" fill="#d62728"/>
<line x1="860" y1="74" x2="882" y2="74" stroke="#d62728" stroke-width="2.5"/>
<text x="888" y="78" font-size="11" font-family="Arial" fill="#111">ERROR</text>
<polyline fill="none" stroke="#ff7f0e" stroke-width="2.2" points="70,441 88,71 105,94 122,94 140,94 158,375 175,375 192,396 210,396 228,396 245,372 262,391 280,410 298,410 315,411 332,421 350,446 368,445 385,446 402,446 420,446 438,446 455,446 472,446 490,446 508,446 525,445 542,445 560,445 578,445 595,445 612,445 630,445 648,445 665,429 682,429 700,429 718,429 735,429 752,429 770,429 788,428 805,429 822,429 840,429"/>
<circle cx="70" cy="441" r="2.5" fill="#ff7f0e"/>
<circle cx="88" cy="71" r="2.5" fill="#ff7f0e"/>
<circle cx="105" cy="94" r="2.5" fill="#ff7f0e"/>
<circle cx="122" cy="94" r="2.5" fill="#ff7f0e"/>
<circle cx="140" cy="94" r="2.5" fill="#ff7f0e"/>
<circle cx="158" cy="375" r="2.5" fill="#ff7f0e"/>
<circle cx="175" cy="375" r="2.5" fill="#ff7f0e"/>
<circle cx="192" cy="396" r="2.5" fill="#ff7f0e"/>
<circle cx="210" cy="396" r="2.5" fill="#ff7f0e"/>
<circle cx="228" cy="396" r="2.5" fill="#ff7f0e"/>
<circle cx="245" cy="372" r="2.5" fill="#ff7f0e"/>
<circle cx="262" cy="391" r="2.5" fill="#ff7f0e"/>
<circle cx="280" cy="410" r="2.5" fill="#ff7f0e"/>
<circle cx="298" cy="410" r="2.5" fill="#ff7f0e"/>
<circle cx="315" cy="411" r="2.5" fill="#ff7f0e"/>
<circle cx="332" cy="421" r="2.5" fill="#ff7f0e"/>
<circle cx="350" cy="446" r="2.5" fill="#ff7f0e"/>
<circle cx="368" cy="445" r="2.5" fill="#ff7f0e"/>
<circle cx="385" cy="446" r="2.5" fill="#ff7f0e"/>
<circle cx="402" cy="446" r="2.5" fill="#ff7f0e"/>
<circle cx="420" cy="446" r="2.5" fill="#ff7f0e"/>
<circle cx="438" cy="446" r="2.5" fill="#ff7f0e"/>
<circle cx="455" cy="446" r="2.5" fill="#ff7f0e"/>
<circle cx="472" cy="446" r="2.5" fill="#ff7f0e"/>
<circle cx="490" cy="446" r="2.5" fill="#ff7f0e"/>
<circle cx="508" cy="446" r="2.5" fill="#ff7f0e"/>
<circle cx="525" cy="445" r="2.5" fill="#ff7f0e"/>
<circle cx="542" cy="445" r="2.5" fill="#ff7f0e"/>
<circle cx="560" cy="445" r="2.5" fill="#ff7f0e"/>
<circle cx="578" cy="445" r="2.5" fill="#ff7f0e"/>
<circle cx="595" cy="445" r="2.5" fill="#ff7f0e"/>
<circle cx="612" cy="445" r="2.5" fill="#ff7f0e"/>
<circle cx="630" cy="445" r="2.5" fill="#ff7f0e"/>
<circle cx="648" cy="445" r="2.5" fill="#ff7f0e"/>
<circle cx="665" cy="429" r="2.5" fill="#ff7f0e"/>
<circle cx="682" cy="429" r="2.5" fill="#ff7f0e"/>
<circle cx="700" cy="429" r="2.5" fill="#ff7f0e"/>
<circle cx="718" cy="429" r="2.5" fill="#ff7f0e"/>
<circle cx="735" cy="429" r="2.5" fill="#ff7f0e"/>
<circle cx="752" cy="429" r="2.5" fill="#ff7f0e"/>
<circle cx="770" cy="429" r="2.5" fill="#ff7f0e"/>
<circle cx="788" cy="428" r="2.5" fill="#ff7f0e"/>
<circle cx="805" cy="429" r="2.5" fill="#ff7f0e"/>
<circle cx="822" cy="429" r="2.5" fill="#ff7f0e"/>
<circle cx="840" cy="429" r="2.5" fill="#ff7f0e"/>
<line x1="860" y1="94" x2="882" y2="94" stroke="#ff7f0e" stroke-width="2.5"/>
<text x="888" y="98" font-size="11" font-family="Arial" fill="#111">WARNING</text>
<polyline fill="none" stroke="#1f77b4" stroke-width="2.2" points="70,445 88,410 105,410 122,410 140,410 158,410 175,410 192,410 210,410 228,410 245,410 262,410 280,410 298,410 315,410 332,410 350,410 368,410 385,410 402,410 420,410 438,410 455,410 472,410 490,410 508,410 525,410 542,410 560,410 578,410 595,410 612,410 630,410 648,410 665,410 682,410 700,410 718,410 735,410 752,410 770,410 788,410 805,410 822,410 840,410"/>
<circle cx="70" cy="445" r="2.5" fill="#1f77b4"/>
<circle cx="88" cy="410" r="2.5" fill="#1f77b4"/>
<circle cx="105" cy="410" r="2.5" fill="#1f77b4"/>
<circle cx="122" cy="410" r="2.5" fill="#1f77b4"/>
<circle cx="140" cy="410" r="2.5" fill="#1f77b4"/>
<circle cx="158" cy="410" r="2.5" fill="#1f77b4"/>
<circle cx="175" cy="410" r="2.5" fill="#1f77b4"/>
<circle cx="192" cy="410" r="2.5" fill="#1f77b4"/>
<circle cx="210" cy="410" r="2.5" fill="#1f77b4"/>
<circle cx="228" cy="410" r="2.5" fill="#1f77b4"/>
<circle cx="245" cy="410" r="2.5" fill="#1f77b4"/>
<circle cx="262" cy="410" r="2.5" fill="#1f77b4"/>
<circle cx="280" cy="410" r="2.5" fill="#1f77b4"/>
<circle cx="298" cy="410" r="2.5" fill="#1f77b4"/>
<circle cx="315" cy="410" r="2.5" fill="#1f77b4"/>
<circle cx="332" cy="410" r="2.5" fill="#1f77b4"/>
<circle cx="350" cy="410" r="2.5" fill="#1f77b4"/>
<circle cx="368" cy="410" r="2.5" fill="#1f77b4"/>
<circle cx="385" cy="410" r="2.5" fill="#1f77b4"/>
<circle cx="402" cy="410" r="2.5" fill="#1f77b4"/>
<circle cx="420" cy="410" r="2.5" fill="#1f77b4"/>
<circle cx="438" cy="410" r="2.5" fill="#1f77b4"/>
<circle cx="455" cy="410" r="2.5" fill="#1f77b4"/>
<circle cx="472" cy="410" r="2.5" fill="#1f77b4"/>
<circle cx="490" cy="410" r="2.5" fill="#1f77b4"/>
<circle cx="508" cy="410" r="2.5" fill="#1f77b4"/>
<circle cx="525" cy="410" r="2.5" fill="#1f77b4"/>
<circle cx="542" cy="410" r="2.5" fill="#1f77b4"/>
<circle cx="560" cy="410" r="2.5" fill="#1f77b4"/>
<circle cx="578" cy="410" r="2.5" fill="#1f77b4"/>
<circle cx="595" cy="410" r="2.5" fill="#1f77b4"/>
<circle cx="612" cy="410" r="2.5" fill="#1f77b4"/>
<circle cx="630" cy="410" r="2.5" fill="#1f77b4"/>
<circle cx="648" cy="410" r="2.5" fill="#1f77b4"/>
<circle cx="665" cy="410" r="2.5" fill="#1f77b4"/>
<circle cx="682" cy="410" r="2.5" fill="#1f77b4"/>
<circle cx="700" cy="410" r="2.5" fill="#1f77b4"/>
<circle cx="718" cy="410" r="2.5" fill="#1f77b4"/>
<circle cx="735" cy="410" r="2.5" fill="#1f77b4"/>
<circle cx="752" cy="410" r="2.5" fill="#1f77b4"/>
<circle cx="770" cy="410" r="2.5" fill="#1f77b4"/>
<circle cx="788" cy="410" r="2.5" fill="#1f77b4"/>
<circle cx="805" cy="410" r="2.5" fill="#1f77b4"/>
<circle cx="822" cy="410" r="2.5" fill="#1f77b4"/>
<circle cx="840" cy="410" r="2.5" fill="#1f77b4"/>
<line x1="860" y1="114" x2="882" y2="114" stroke="#1f77b4" stroke-width="2.5"/>
<text x="888" y="118" font-size="11" font-family="Arial" fill="#111">INFO</text>
<text x="455" y="500" font-size="11" font-family="Arial" fill="#444">Run sequence</text>
</svg>
