<svg xmlns="http://www.w3.org/2000/svg" width="1100" height="520">
<rect x="0" y="0" width="1100" height="520" fill="#ffffff"/>
<text x="70" y="30" font-size="20" font-family="Arial" fill="#111">Morphology Lint Trend by Severity</text>
<line x1="70" y1="450" x2="840" y2="450" stroke="#e6e6e6" stroke-width="1"/>
<text x="62" y="454" font-size="11" font-family="Arial" fill="#333" text-anchor="end">0</text>
<line x1="70" y1="370" x2="840" y2="370" stroke="#e6e6e6" stroke-width="1"/>
<text x="62" y="374" font-size="11" font-family="Arial" fill="#333" text-anchor="end">2377</text>
<line x1="70" y1="290" x2="840" y2="290" stroke="#e6e6e6" stroke-width="1"/>
<text x="62" y="294" font-size="11" font-family="Arial" fill="#333" text-anchor="end">4754</text>
<line x1="70" y1="210" x2="840" y2="210" stroke="#e6e6e6" stroke-width="1"/>
<text x="62" y="214" font-size="11" font-family="Arial" fill="#333" text-anchor="end">7131</text>
<line x1="70" y1="130" x2="840" y2="130" stroke="#e6e6e6" stroke-width="1"/>
<text x="62" y="134" font-size="11" font-family="Arial" fill="#333" text-anchor="end">9508</text>
<line x1="70" y1="50" x2="840" y2="50" stroke="#e6e6e6" stroke-width="1"/>
<text x="62" y="54" font-size="11" font-family="Arial" fill="#333" text-anchor="end">11885</text>
<line x1="70" y1="450" x2="840" y2="450" stroke="#333" stroke-width="1.2"/>
<line x1="70" y1="50" x2="70" y2="450" stroke="#333" stroke-width="1.2"/>
<line x1="70" y1="450" x2="70" y2="454" stroke="#666" stroke-width="1"/>
<text x="70" y="468" font-size="10" font-family="Arial" fill="#333" text-anchor="middle">1</text>
<line x1="108" y1="450" x2="108" y2="454" stroke="#666" stroke-width="1"/>
<text x="108" y="468" font-size="10" font-family="Arial" fill="#333" text-anchor="middle">2</text>
<line x1="147" y1="450" x2="147" y2="454" stroke="#666" stroke-width="1"/>
<text x="147" y="468" font-size="10" font-family="Arial" fill="#333" text-anchor="middle">3</text>
<line x1="186" y1="450" x2="186" y2="454" stroke="#666" stroke-width="1"/>
<text x="186" y="468" font-size="10" font-family="Arial" fill="#333" text-anchor="middle">4</text>
<line x1="224" y1="450" x2="224" y2="454" stroke="#666" stroke-width="1"/>
<text x="224" y="468" font-size="10" font-family="Arial" fill="#333" text-anchor="middle">5</text>
<line x1="262" y1="450" x2="262" y2="454" stroke="#666" stroke-width="1"/>
<text x="262" y="468" font-size="10" font-family="Arial" fill="#333" text-anchor="middle">6</text>
<line x1="301" y1="450" x2="301" y2="454" stroke="#666" stroke-width="1"/>
<text x="301" y="468" font-size="10" font-family="Arial" fill="#333" text-anchor="middle">7</text>
<line x1="340" y1="450" x2="340" y2="454" stroke="#666" stroke-width="1"/>
<text x="340" y="468" font-size="10" font-family="Arial" fill="#333" text-anchor="middle">8</text>
<line x1="378" y1="450" x2="378" y2="454" stroke="#666" stroke-width="1"/>
<text x="378" y="468" font-size="10" font-family="Arial" fill="#333" text-anchor="middle">9</text>
<line x1="416" y1="450" x2="416" y2="454" stroke="#666" stroke-width="1"/>
<text x="416" y="468" font-size="10" font-family="Arial" fill="#333" text-anchor="middle">10</text>
<line x1="455" y1="450" x2="455" y2="454" stroke="#666" stroke-width="1"/>
<text x="455" y="468" font-size="10" font-family="Arial" fill="#333" text-anchor="middle">11</text>
<line x1="494" y1="450" x2="494" y2="454" stroke="#666" stroke-width="1"/>
<text x="494" y="468" font-size="10" font-family="Arial" fill="#333" text-anchor="middle">12</text>
<line x1="532" y1="450" x2="532" y2="454" stroke="#666" stroke-width="1"/>
<text x="532" y="468" font-size="10" font-family="Arial" fill="#333" text-anchor="middle">13</text>
<line x1="570" y1="450" x2="570" y2="454" stroke="#666" stroke-width="1"/>
<text x="570" y="468" font-size="10" font-family="Arial" fill="#333" text-anchor="middle">14</text>
<line x1="609" y1="450" x2="609" y2="454" stroke="#666" stroke-width="1"/>
<text x="609" y="468" font-size="10" font-family="Arial" fill="#333" text-anchor="middle">15</text>
<line x1="648" y1="450" x2="648" y2="454" stroke="#666" stroke-width="1"/>
<text x="648" y="468" font-size="10" font-family="Arial" fill="#333" text-anchor="middle">16</text>
<line x1="686" y1="450" x2="686" y2="454" stroke="#666" stroke-width="1"/>
<text x="686" y="468" font-size="10" font-family="Arial" fill="#333" text-anchor="middle">17</text>
<line x1="724" y1="450" x2="724" y2="454" stroke="#666" stroke-width="1"/>
<text x="724" y="468" font-size="10" font-family="Arial" fill="#333" text-anchor="middle">18</text>
<line x1="763" y1="450" x2="763" y2="454" stroke="#666" stroke-width="1"/>
<text x="763" y="468" font-size="10" font-family="Arial" fill="#333" text-anchor="middle">19</text>
<line x1="802" y1="450" x2="802" y2="454" stroke="#666" stroke-width="1"/>
<text x="802" y="468" font-size="10" font-family="Arial" fill="#333" text-anchor="middle">20</text>
<line x1="840" y1="450" x2="840" y2="454" stroke="#666" stroke-width="1"/>
<text x="840" y="468" font-size="10" font-family="Arial" fill="#333" text-anchor="middle">21</text>
<polyline fill="none" stroke="#d62728" stroke-width="2.2" points="70,415 108,50 147,109 186,109 224,250 262,250 301,250 340,196 378,197 416,198 455,182 494,228 532,249 570,261 609,261 648,280 686,280 724,279 763,280 802,280 840,280"/>
<circle cx="70" cy="415" r="2.5" fill="#d62728"/>
<circle cx="108" cy="50" r="2.5" fill="#d62728"/>
<circle cx="147" cy="109" r="2.5" fill="#d62728"/>
<circle cx="186" cy="109" r="2.5" fill="#d62728"/>
<circle cx="224" cy="250" r="2.5" fill="#d62728"/>
<circle cx="262" cy="250" r="2.5" fill="#d62728"/>
<circle cx="301" cy="250" r="2.5" fill="#d62728"/>
<circle cx="340" cy="196" r="2.5" fill="#d62728"/>
<circle cx="378" cy="197" r="2.5" fill="#d62728"/>
<circle cx="416" cy="198" r="2.5" fill="#d62728"/>
<circle cx="455" cy="182" r="2.5" fill="#d62728"/>
<circle cx="494" cy="228" r="2.5" fill="#d62728"/>
<circle cx="532" cy="249" r="2.5" fill="#d62728"/>
<circle cx="570" cy="261" r="2.5" fill="#d62728"/>
<circle cx="609" cy="261" r="2.5" fill="#d62728"/>
<circle cx="648" cy="280" r="2.5" fill="#d62728"/>
<circle cx="686" cy="280" r="2.5" fill="#d62728"/>
<circle cx="724" cy="279" r="2.5" fill="#d62728"/>
<circle cx="763" cy="280" r="2.5" fill="#d62728"/>
<circle cx="802" cy="280" r="2.5" fill="#d62728"/>
<circle cx="840" cy="280" r="2.5" fill="#d62728"/>
<line x1="860" y1="74" x2="882" y2="74" stroke="#d62728" stroke-width="2.5"/>
<text x="888" y="78" font-size="11" font-family="Arial" fill="#111">ERROR</text>
<polyline fill="none" stroke="#ff7f0e" stroke-width="2.2" points="70,441 108,71 147,94 186,94 224,94 262,375 301,375 340,396 378,396 416,396 455,372 494,391 532,410 570,410 609,411 648,421 686,446 724,445 763,446 802,446 840,446"/>
<circle cx="70" cy="441" r="2.5" fill="#ff7f0e"/>
<circle cx="108" cy="71" r="2.5" fill="#ff7f0e"/>
<circle cx="147" cy="94" r="2.5" fill="#ff7f0e"/>
<circle cx="186" cy="94" r="2.5" fill="#ff7f0e"/>
<circle cx="224" cy="94" r="2.5" fill="#ff7f0e"/>
<circle cx="262" cy="375" r="2.5" fill="#ff7f0e"/>
<circle cx="301" cy="375" r="2.5" fill="#ff7f0e"/>
<circle cx="340" cy="396" r="2.5" fill="#ff7f0e"/>
<circle cx="378" cy="396" r="2.5" fill="#ff7f0e"/>
<circle cx="416" cy="396" r="2.5" fill="#ff7f0e"/>
<circle cx="455" cy="372" r="2.5" fill="#ff7f0e"/>
<circle cx="494" cy="391" r="2.5" fill="#ff7f0e"/>
<circle cx="532" cy="410" r="2.5" fill="#ff7f0e"/>
<circle cx="570" cy="410" r="2.5" fill="#ff7f0e"/>
<circle cx="609" cy="411" r="2.5" fill="#ff7f0e"/>
<circle cx="648" cy="421" r="2.5" fill="#ff7f0e"/>
<circle cx="686" cy="446" r="2.5" fill="#ff7f0e"/>
<circle cx="724" cy="445" r="2.5" fill="#ff7f0e"/>
<circle cx="763" cy="446" r="2.5" fill="#ff7f0e"/>
<circle cx="802" cy="446" r="2.5" fill="#ff7f0e"/>
<circle cx="840" cy="446" r="2.5" fill="#ff7f0e"/>
<line x1="860" y1="94" x2="882" y2="94" stroke="#ff7f0e" stroke-width="2.5"/>
<text x="888" y="98" font-size="11" font-family="Arial" fill="#111">WARNING</text>
<polyline fill="none" stroke="#1f77b4" stroke-width="2.2" points="70,445 108,410 147,410 186,410 224,410 262,410 301,410 340,410 378,410 416,410 455,410 494,410 532,410 570,410 609,410 648,410 686,410 724,410 763,410 802,410 840,410"/>
<circle cx="70" cy="445" r="2.5" fill="#1f77b4"/>
<circle cx="108" cy="410" r="2.5" fill="#1f77b4"/>
<circle cx="147" cy="410" r="2.5" fill="#1f77b4"/>
<circle cx="186" cy="410" r="2.5" fill="#1f77b4"/>
<circle cx="224" cy="410" r="2.5" fill="#1f77b4"/>
<circle cx="262" cy="410" r="2.5" fill="#1f77b4"/>
<circle cx="301" cy="410" r="2.5" fill="#1f77b4"/>
<circle cx="340" cy="410" r="2.5" fill="#1f77b4"/>
<circle cx="378" cy="410" r="2.5" fill="#1f77b4"/>
<circle cx="416" cy="410" r="2.5" fill="#1f77b4"/>
<circle cx="455" cy="410" r="2.5" fill="#1f77b4"/>
<circle cx="494" cy="410" r="2.5" fill="#1f77b4"/>
<circle cx="532" cy="410" r="2.5" fill="#1f77b4"/>
<circle cx="570" cy="410" r="2.5" fill="#1f77b4"/>
<circle cx="609" cy="410" r="2.5" fill="#1f77b4"/>
<circle cx="648" cy="410" r="2.5" fill="#1f77b4"/>
<circle cx="686" cy="410" r="2.5" fill="#1f77b4"/>
<circle cx="724" cy="410" r="2.5" fill="#1f77b4"/>
<circle cx="763" cy="410" r="2.5" fill="#1f77b4"/>
<circle cx="802" cy="410" r="2.5" fill="#1f77b4"/>
<circle cx="840" cy="410" r="2.5" fill="#1f77b4"/>
<line x1="860" y1="114" x2="882" y2="114" stroke="#1f77b4" stroke-width="2.5"/>
<text x="888" y="118" font-size="11" font-family="Arial" fill="#111">INFO</text>
<text x="455" y="500" font-size="11" font-family="Arial" fill="#444">Run sequence</text>
</svg>
