<svg xmlns="http://www.w3.org/2000/svg" width="1100" height="520">
<rect x="0" y="0" width="1100" height="520" fill="#ffffff"/>
<text x="70" y="30" font-size="20" font-family="Arial" fill="#111">Morphology Lint Trend by Severity</text>
<line x1="70" y1="450" x2="840" y2="450" stroke="#e6e6e6" stroke-width="1"/>
<text x="62" y="454" font-size="11" font-family="Arial" fill="#333" text-anchor="end">0</text>
<line x1="70" y1="370" x2="840" y2="370" stroke="#e6e6e6" stroke-width="1"/>
<text x="62" y="374" font-size="11" font-family="Arial" fill="#333" text-anchor="end">3186</text>
<line x1="70" y1="290" x2="840" y2="290" stroke="#e6e6e6" stroke-width="1"/>
<text x="62" y="294" font-size="11" font-family="Arial" fill="#333" text-anchor="end">6372</text>
<line x1="70" y1="210" x2="840" y2="210" stroke="#e6e6e6" stroke-width="1"/>
<text x="62" y="214" font-size="11" font-family="Arial" fill="#333" text-anchor="end">9557</text>
<line x1="70" y1="130" x2="840" y2="130" stroke="#e6e6e6" stroke-width="1"/>
<text x="62" y="134" font-size="11" font-family="Arial" fill="#333" text-anchor="end">12743</text>
<line x1="70" y1="50" x2="840" y2="50" stroke="#e6e6e6" stroke-width="1"/>
<text x="62" y="54" font-size="11" font-family="Arial" fill="#333" text-anchor="end">15929</text>
<line x1="70" y1="450" x2="840" y2="450" stroke="#333" stroke-width="1.2"/>
<line x1="70" y1="50" x2="70" y2="450" stroke="#333" stroke-width="1.2"/>
<line x1="70" y1="450" x2="70" y2="454" stroke="#666" stroke-width="1"/>
<text x="70" y="468" font-size="10" font-family="Arial" fill="#333" text-anchor="middle">1</text>
<line x1="135" y1="450" x2="135" y2="454" stroke="#666" stroke-width="1"/>
<text x="135" y="468" font-size="10" font-family="Arial" fill="#333" text-anchor="middle">6</text>
<line x1="201" y1="450" x2="201" y2="454" stroke="#666" stroke-width="1"/>
<text x="201" y="468" font-size="10" font-family="Arial" fill="#333" text-anchor="middle">11</text>
<line x1="266" y1="450" x2="266" y2="454" stroke="#666" stroke-width="1"/>
<text x="266" y="468" font-size="10" font-family="Arial" fill="#333" text-anchor="middle">16</text>
<line x1="331" y1="450" x2="331" y2="454" stroke="#666" stroke-width="1"/>
<text x="331" y="468" font-size="10" font-family="Arial" fill="#333" text-anchor="middle">21</text>
<line x1="396" y1="450" x2="396" y2="454" stroke="#666" stroke-width="1"/>
<text x="396" y="468" font-size="10" font-family="Arial" fill="#333" text-anchor="middle">26</text>
<line x1="462" y1="450" x2="462" y2="454" stroke="#666" stroke-width="1"/>
<text x="462" y="468" font-size="10" font-family="Arial" fill="#333" text-anchor="middle">31</text>
<line x1="527" y1="450" x2="527" y2="454" stroke="#666" stroke-width="1"/>
<text x="527" y="468" font-size="10" font-family="Arial" fill="#333" text-anchor="middle">36</text>
<line x1="592" y1="450" x2="592" y2="454" stroke="#666" stroke-width="1"/>
<text x="592" y="468" font-size="10" font-family="Arial" fill="#333" text-anchor="middle">41</text>
<line x1="657" y1="450" x2="657" y2="454" stroke="#666" stroke-width="1"/>
<text x="657" y="468" font-size="10" font-family="Arial" fill="#333" text-anchor="middle">46</text>
<line x1="723" y1="450" x2="723" y2="454" stroke="#666" stroke-width="1"/>
<text x="723" y="468" font-size="10" font-family="Arial" fill="#333" text-anchor="middle">51</text>
<line x1="788" y1="450" x2="788" y2="454" stroke="#666" stroke-width="1"/>
<text x="788" y="468" font-size="10" font-family="Arial" fill="#333" text-anchor="middle">56</text>
<line x1="840" y1="450" x2="840" y2="454" stroke="#666" stroke-width="1"/>
<text x="840" y="468" font-size="10" font-family="Arial" fill="#333" text-anchor="middle">60</text>
<polyline fill="none" stroke="#d62728" stroke-width="2.2" points="70,293 83,293 96,293 109,293 122,293 135,293 148,292 161,291 174,291 187,288 201,145 214,147 227,290 240,273 253,293 266,293 279,293 292,293 305,288 318,281 331,295 344,295 357,308 370,308 383,304 396,304 409,304 422,306 435,307 448,312 462,312 475,312 488,312 501,312 514,312 527,305 540,231 553,231 566,310 579,309 592,309 605,311 618,311 631,318 644,318 657,319 670,319 683,321 696,321 709,322 723,321 736,321 749,179 762,179 775,158 788,138 801,138 814,307 827,321 840,321"/>
<circle cx="70" cy="293" r="2.5" fill="#d62728"/>
<circle cx="83" cy="293" r="2.5" fill="#d62728"/>
<circle cx="96" cy="293" r="2.5" fill="#d62728"/>
<circle cx="109" cy="293" r="2.5" fill="#d62728"/>
<circle cx="122" cy="293" r="2.5" fill="#d62728"/>
<circle cx="135" cy="293" r="2.5" fill="#d62728"/>
<circle cx="148" cy="292" r="2.5" fill="#d62728"/>
<circle cx="161" cy="291" r="2.5" fill="#d62728"/>
<circle cx="174" cy="291" r="2.5" fill="#d62728"/>
<circle cx="187" cy="288" r="2.5" fill="#d62728"/>
<circle cx="201" cy="145" r="2.5" fill="#d62728"/>
<circle cx="214" cy="147" r="2.5" fill="#d62728"/>
<circle cx="227" cy="290" r="2.5" fill="#d62728"/>
<circle cx="240" cy="273" r="2.5" fill="#d62728"/>
<circle cx="253" cy="293" r="2.5" fill="#d62728"/>
<circle cx="266" cy="293" r="2.5" fill="#d62728"/>
<circle cx="279" cy="293" r="2.5" fill="#d62728"/>
<circle cx="292" cy="293" r="2.5" fill="#d62728"/>
<circle cx="305" cy="288" r="2.5" fill="#d62728"/>
<circle cx="318" cy="281" r="2.5" fill="#d62728"/>
<circle cx="331" cy="295" r="2.5" fill="#d62728"/>
<circle cx="344" cy="295" r="2.5" fill="#d62728"/>
<circle cx="357" cy="308" r="2.5" fill="#d62728"/>
<circle cx="370" cy="308" r="2.5" fill="#d62728"/>
<circle cx="383" cy="304" r="2.5" fill="#d62728"/>
<circle cx="396" cy="304" r="2.5" fill="#d62728"/>
<circle cx="409" cy="304" r="2.5" fill="#d62728"/>
<circle cx="422" cy="306" r="2.5" fill="#d62728"/>
<circle cx="435" cy="307" r="2.5" fill="#d62728"/>
<circle cx="448" cy="312" r="2.5" fill="#d62728"/>
<circle cx="462" cy="312" r="2.5" fill="#d62728"/>
<circle cx="475" cy="312" r="2.5" fill="#d62728"/>
<circle cx="488" cy="312" r="2.5" fill="#d62728"/>
<circle cx="501" cy="312" r="2.5" fill="#d62728"/>
<circle cx="514" cy="312" r="2.5" fill="#d62728"/>
<circle cx="527" cy="305" r="2.5" fill="#d62728"/>
<circle cx="540" cy="231" r="2.5" fill="#d62728"/>
<circle cx="553" cy="231" r="2.5" fill="#d62728"/>
<circle cx="566" cy="310" r="2.5" fill="#d62728"/>
<circle cx="579" cy="309" r="2.5" fill="#d62728"/>
<circle cx="592" cy="309" r="2.5" fill="#d62728"/>
<circle cx="605" cy="311" r="2.5" fill="#d62728"/>
<circle cx="618" cy="311" r="2.5" fill="#d62728"/>
<circle cx="631" cy="318" r="2.5" fill="#d62728"/>
<circle cx="644" cy="318" r="2.5" fill="#d62728"/>
<circle cx="657" cy="319" r="2.5" fill="#d62728"/>
<circle cx="670" cy="319" r="2.5" fill="#d62728"/>
<circle cx="683" cy="321" r="2.5" fill="#d62728"/>
<circle cx="696" cy="321" r="2.5" fill="#d62728"/>
<circle cx="709" cy="322" r="2.5" fill="#d62728"/>
<circle cx="723" cy="321" r="2.5" fill="#d62728"/>
<circle cx="736" cy="321" r="2.5" fill="#d62728"/>
<circle cx="749" cy="179" r="2.5" fill="#d62728"/>
<circle cx="762" cy="179" r="2.5" fill="#d62728"/>
<circle cx="775" cy="158" r="2.5" fill="#d62728"/>
<circle cx="788" cy="138" r="2.5" fill="#d62728"/>
<circle cx="801" cy="138" r="2.5" fill="#d62728"/>
<circle cx="814" cy="307" r="2.5" fill="#d62728"/>
<circle cx="827" cy="321" r="2.5" fill="#d62728"/>
<circle cx="840" cy="321" r="2.5" fill="#d62728"/>
<line x1="860" y1="74" x2="882" y2="74" stroke="#d62728" stroke-width="2.5"/>
<text x="888" y="78" font-size="11" font-family="Arial" fill="#111">ERROR</text>
<polyline fill="none" stroke="#ff7f0e" stroke-width="2.2" points="70,426 83,427 96,427 109,427 122,427 135,427 148,427 161,427 174,426 187,426 201,426 214,427 227,427 240,441 253,441 266,439 279,439 292,439 305,426 318,429 331,440 344,440 357,440 370,440 383,439 396,439 409,439 422,439 435,439 448,439 462,439 475,439 488,439 501,439 514,439 527,439 540,438 553,438 566,439 579,439 592,439 605,439 618,439 631,440 644,440 657,440 670,440 683,440 696,440 709,440 723,439 736,439 749,64 762,64 775,57 788,50 801,82 814,419 827,440 840,440"/>
<circle cx="70" cy="426" r="2.5" fill="#ff7f0e"/>
<circle cx="83" cy="427" r="2.5" fill="#ff7f0e"/>
<circle cx="96" cy="427" r="2.5" fill="#ff7f0e"/>
<circle cx="109" cy="427" r="2.5" fill="#ff7f0e"/>
<circle cx="122" cy="427" r="2.5" fill="#ff7f0e"/>
<circle cx="135" cy="427" r="2.5" fill="#ff7f0e"/>
<circle cx="148" cy="427" r="2.5" fill="#ff7f0e"/>
<circle cx="161" cy="427" r="2.5" fill="#ff7f0e"/>
<circle cx="174" cy="426" r="2.5" fill="#ff7f0e"/>
<circle cx="187" cy="426" r="2.5" fill="#ff7f0e"/>
<circle cx="201" cy="426" r="2.5" fill="#ff7f0e"/>
<circle cx="214" cy="427" r="2.5" fill="#ff7f0e"/>
<circle cx="227" cy="427" r="2.5" fill="#ff7f0e"/>
<circle cx="240" cy="441" r="2.5" fill="#ff7f0e"/>
<circle cx="253" cy="441" r="2.5" fill="#ff7f0e"/>
<circle cx="266" cy="439" r="2.5" fill="#ff7f0e"/>
<circle cx="279" cy="439" r="2.5" fill="#ff7f0e"/>
<circle cx="292" cy="439" r="2.5" fill="#ff7f0e"/>
<circle cx="305" cy="426" r="2.5" fill="#ff7f0e"/>
<circle cx="318" cy="429" r="2.5" fill="#ff7f0e"/>
<circle cx="331" cy="440" r="2.5" fill="#ff7f0e"/>
<circle cx="344" cy="440" r="2.5" fill="#ff7f0e"/>
<circle cx="357" cy="440" r="2.5" fill="#ff7f0e"/>
<circle cx="370" cy="440" r="2.5" fill="#ff7f0e"/>
<circle cx="383" cy="439" r="2.5" fill="#ff7f0e"/>
<circle cx="396" cy="439" r="2.5" fill="#ff7f0e"/>
<circle cx="409" cy="439" r="2.5" fill="#ff7f0e"/>
<circle cx="422" cy="439" r="2.5" fill="#ff7f0e"/>
<circle cx="435" cy="439" r="2.5" fill="#ff7f0e"/>
<circle cx="448" cy="439" r="2.5" fill="#ff7f0e"/>
<circle cx="462" cy="439" r="2.5" fill="#ff7f0e"/>
<circle cx="475" cy="439" r="2.5" fill="#ff7f0e"/>
<circle cx="488" cy="439" r="2.5" fill="#ff7f0e"/>
<circle cx="501" cy="439" r="2.5" fill="#ff7f0e"/>
<circle cx="514" cy="439" r="2.5" fill="#ff7f0e"/>
<circle cx="527" cy="439" r="2.5" fill="#ff7f0e"/>
<circle cx="540" cy="438" r="2.5" fill="#ff7f0e"/>
<circle cx="553" cy="438" r="2.5" fill="#ff7f0e"/>
<circle cx="566" cy="439" r="2.5" fill="#ff7f0e"/>
<circle cx="579" cy="439" r="2.5" fill="#ff7f0e"/>
<circle cx="592" cy="439" r="2.5" fill="#ff7f0e"/>
<circle cx="605" cy="439" r="2.5" fill="#ff7f0e"/>
<circle cx="618" cy="439" r="2.5" fill="#ff7f0e"/>
<circle cx="631" cy="440" r="2.5" fill="#ff7f0e"/>
<circle cx="644" cy="440" r="2.5" fill="#ff7f0e"/>
<circle cx="657" cy="440" r="2.5" fill="#ff7f0e"/>
<circle cx="670" cy="440" r="2.5" fill="#ff7f0e"/>
<circle cx="683" cy="440" r="2.5" fill="#ff7f0e"/>
<circle cx="696" cy="440" r="2.5" fill="#ff7f0e"/>
<circle cx="709" cy="440" r="2.5" fill="#ff7f0e"/>
<circle cx="723" cy="439" r="2.5" fill="#ff7f0e"/>
<circle cx="736" cy="439" r="2.5" fill="#ff7f0e"/>
<circle cx="749" cy="64" r="2.5" fill="#ff7f0e"/>
<circle cx="762" cy="64" r="2.5" fill="#ff7f0e"/>
<circle cx="775" cy="57" r="2.5" fill="#ff7f0e"/>
<circle cx="788" cy="50" r="2.5" fill="#ff7f0e"/>
<circle cx="801" cy="82" r="2.5" fill="#ff7f0e"/>
<circle cx="814" cy="419" r="2.5" fill="#ff7f0e"/>
<circle cx="827" cy="440" r="2.5" fill="#ff7f0e"/>
<circle cx="840" cy="440" r="2.5" fill="#ff7f0e"/>
<line x1="860" y1="94" x2="882" y2="94" stroke="#ff7f0e" stroke-width="2.5"/>
<text x="888" y="98" font-size="11" font-family="Arial" fill="#111">WARNING</text>
<polyline fill="none" stroke="#1f77b4" stroke-width="2.2" points="70,409 83,409 96,409 109,409 122,409 135,409 148,409 161,409 174,409 187,409 201,409 214,409 227,409 240,409 253,409 266,409 279,409 292,409 305,409 318,409 331,409 344,409 357,409 370,409 383,409 396,409 409,409 422,409 435,409 448,409 462,409 475,409 488,409 501,409 514,409 527,409 540,408 553,408 566,409 579,409 592,409 605,409 618,409 631,409 644,409 657,409 670,409 683,409 696,409 709,409 723,409 736,409 749,402 762,402 775,395 788,388 801,388 814,388 827,409 840,409"/>
<circle cx="70" cy="409" r="2.5" fill="#1f77b4"/>
<circle cx="83" cy="409" r="2.5" fill="#1f77b4"/>
<circle cx="96" cy="409" r="2.5" fill="#1f77b4"/>
<circle cx="109" cy="409" r="2.5" fill="#1f77b4"/>
<circle cx="122" cy="409" r="2.5" fill="#1f77b4"/>
<circle cx="135" cy="409" r="2.5" fill="#1f77b4"/>
<circle cx="148" cy="409" r="2.5" fill="#1f77b4"/>
<circle cx="161" cy="409" r="2.5" fill="#1f77b4"/>
<circle cx="174" cy="409" r="2.5" fill="#1f77b4"/>
<circle cx="187" cy="409" r="2.5" fill="#1f77b4"/>
<circle cx="201" cy="409" r="2.5" fill="#1f77b4"/>
<circle cx="214" cy="409" r="2.5" fill="#1f77b4"/>
<circle cx="227" cy="409" r="2.5" fill="#1f77b4"/>
<circle cx="240" cy="409" r="2.5" fill="#1f77b4"/>
<circle cx="253" cy="409" r="2.5" fill="#1f77b4"/>
<circle cx="266" cy="409" r="2.5" fill="#1f77b4"/>
<circle cx="279" cy="409" r="2.5" fill="#1f77b4"/>
<circle cx="292" cy="409" r="2.5" fill="#1f77b4"/>
<circle cx="305" cy="409" r="2.5" fill="#1f77b4"/>
<circle cx="318" cy="409" r="2.5" fill="#1f77b4"/>
<circle cx="331" cy="409" r="2.5" fill="#1f77b4"/>
<circle cx="344" cy="409" r="2.5" fill="#1f77b4"/>
<circle cx="357" cy="409" r="2.5" fill="#1f77b4"/>
<circle cx="370" cy="409" r="2.5" fill="#1f77b4"/>
<circle cx="383" cy="409" r="2.5" fill="#1f77b4"/>
<circle cx="396" cy="409" r="2.5" fill="#1f77b4"/>
<circle cx="409" cy="409" r="2.5" fill="#1f77b4"/>
<circle cx="422" cy="409" r="2.5" fill="#1f77b4"/>
<circle cx="435" cy="409" r="2.5" fill="#1f77b4"/>
<circle cx="448" cy="409" r="2.5" fill="#1f77b4"/>
<circle cx="462" cy="409" r="2.5" fill="#1f77b4"/>
<circle cx="475" cy="409" r="2.5" fill="#1f77b4"/>
<circle cx="488" cy="409" r="2.5" fill="#1f77b4"/>
<circle cx="501" cy="409" r="2.5" fill="#1f77b4"/>
<circle cx="514" cy="409" r="2.5" fill="#1f77b4"/>
<circle cx="527" cy="409" r="2.5" fill="#1f77b4"/>
<circle cx="540" cy="408" r="2.5" fill="#1f77b4"/>
<circle cx="553" cy="408" r="2.5" fill="#1f77b4"/>
<circle cx="566" cy="409" r="2.5" fill="#1f77b4"/>
<circle cx="579" cy="409" r="2.5" fill="#1f77b4"/>
<circle cx="592" cy="409" r="2.5" fill="#1f77b4"/>
<circle cx="605" cy="409" r="2.5" fill="#1f77b4"/>
<circle cx="618" cy="409" r="2.5" fill="#1f77b4"/>
<circle cx="631" cy="409" r="2.5" fill="#1f77b4"/>
<circle cx="644" cy="409" r="2.5" fill="#1f77b4"/>
<circle cx="657" cy="409" r="2.5" fill="#1f77b4"/>
<circle cx="670" cy="409" r="2.5" fill="#1f77b4"/>
<circle cx="683" cy="409" r="2.5" fill="#1f77b4"/>
<circle cx="696" cy="409" r="2.5" fill="#1f77b4"/>
<circle cx="709" cy="409" r="2.5" fill="#1f77b4"/>
<circle cx="723" cy="409" r="2.5" fill="#1f77b4"/>
<circle cx="736" cy="409" r="2.5" fill="#1f77b4"/>
<circle cx="749" cy="402" r="2.5" fill="#1f77b4"/>
<circle cx="762" cy="402" r="2.5" fill="#1f77b4"/>
<circle cx="775" cy="395" r="2.5" fill="#1f77b4"/>
<circle cx="788" cy="388" r="2.5" fill="#1f77b4"/>
<circle cx="801" cy="388" r="2.5" fill="#1f77b4"/>
<circle cx="814" cy="388" r="2.5" fill="#1f77b4"/>
<circle cx="827" cy="409" r="2.5" fill="#1f77b4"/>
<circle cx="840" cy="409" r="2.5" fill="#1f77b4"/>
<line x1="860" y1="114" x2="882" y2="114" stroke="#1f77b4" stroke-width="2.5"/>
<text x="888" y="118" font-size="11" font-family="Arial" fill="#111">INFO</text>
<text x="455" y="500" font-size="11" font-family="Arial" fill="#444">Run sequence</text>
</svg>
