<svg xmlns="http://www.w3.org/2000/svg" width="1100" height="520">
<rect x="0" y="0" width="1100" height="520" fill="#ffffff"/>
<text x="70" y="30" font-size="20" font-family="Arial" fill="#111">Morphology Lint Trend by Severity</text>
<line x1="70" y1="450" x2="840" y2="450" stroke="#e6e6e6" stroke-width="1"/>
<text x="62" y="454" font-size="11" font-family="Arial" fill="#333" text-anchor="end">0</text>
<line x1="70" y1="370" x2="840" y2="370" stroke="#e6e6e6" stroke-width="1"/>
<text x="62" y="374" font-size="11" font-family="Arial" fill="#333" text-anchor="end">3186</text>
<line x1="70" y1="290" x2="840" y2="290" stroke="#e6e6e6" stroke-width="1"/>
<text x="62" y="294" font-size="11" font-family="Arial" fill="#333" text-anchor="end">6372</text>
<line x1="70" y1="210" x2="840" y2="210" stroke="#e6e6e6" stroke-width="1"/>
<text x="62" y="214" font-size="11" font-family="Arial" fill="#333" text-anchor="end">9557</text>
<line x1="70" y1="130" x2="840" y2="130" stroke="#e6e6e6" stroke-width="1"/>
<text x="62" y="134" font-size="11" font-family="Arial" fill="#333" text-anchor="end">12743</text>
<line x1="70" y1="50" x2="840" y2="50" stroke="#e6e6e6" stroke-width="1"/>
<text x="62" y="54" font-size="11" font-family="Arial" fill="#333" text-anchor="end">15929</text>
<line x1="70" y1="450" x2="840" y2="450" stroke="#333" stroke-width="1.2"/>
<line x1="70" y1="50" x2="70" y2="450" stroke="#333" stroke-width="1.2"/>
<line x1="70" y1="450" x2="70" y2="454" stroke="#666" stroke-width="1"/>
<text x="70" y="468" font-size="10" font-family="Arial" fill="#333" text-anchor="middle">1</text>
<line x1="135" y1="450" x2="135" y2="454" stroke="#666" stroke-width="1"/>
<text x="135" y="468" font-size="10" font-family="Arial" fill="#333" text-anchor="middle">6</text>
<line x1="201" y1="450" x2="201" y2="454" stroke="#666" stroke-width="1"/>
<text x="201" y="468" font-size="10" font-family="Arial" fill="#333" text-anchor="middle">11</text>
<line x1="266" y1="450" x2="266" y2="454" stroke="#666" stroke-width="1"/>
<text x="266" y="468" font-size="10" font-family="Arial" fill="#333" text-anchor="middle">16</text>
<line x1="331" y1="450" x2="331" y2="454" stroke="#666" stroke-width="1"/>
<text x="331" y="468" font-size="10" font-family="Arial" fill="#333" text-anchor="middle">21</text>
<line x1="396" y1="450" x2="396" y2="454" stroke="#666" stroke-width="1"/>
<text x="396" y="468" font-size="10" font-family="Arial" fill="#333" text-anchor="middle">26</text>
<line x1="462" y1="450" x2="462" y2="454" stroke="#666" stroke-width="1"/>
<text x="462" y="468" font-size="10" font-family="Arial" fill="#333" text-anchor="middle">31</text>
<line x1="527" y1="450" x2="527" y2="454" stroke="#666" stroke-width="1"/>
<text x="527" y="468" font-size="10" font-family="Arial" fill="#333" text-anchor="middle">36</text>
<line x1="592" y1="450" x2="592" y2="454" stroke="#666" stroke-width="1"/>
<text x="592" y="468" font-size="10" font-family="Arial" fill="#333" text-anchor="middle">41</text>
<line x1="657" y1="450" x2="657" y2="454" stroke="#666" stroke-width="1"/>
<text x="657" y="468" font-size="10" font-family="Arial" fill="#333" text-anchor="middle">46</text>
<line x1="723" y1="450" x2="723" y2="454" stroke="#666" stroke-width="1"/>
<text x="723" y="468" font-size="10" font-family="Arial" fill="#333" text-anchor="middle">51</text>
<line x1="788" y1="450" x2="788" y2="454" stroke="#666" stroke-width="1"/>
<text x="788" y="468" font-size="10" font-family="Arial" fill="#333" text-anchor="middle">56</text>
<line x1="840" y1="450" x2="840" y2="454" stroke="#666" stroke-width="1"/>
<text x="840" y="468" font-size="10" font-family="Arial" fill="#333" text-anchor="middle">60</text>
<polyline fill="none" stroke="#d62728" stroke-width="2.2" points="70,291 83,288 96,145 109,147 122,290 135,273 148,293 161,293 174,293 187,293 201,288 214,281 227,295 240,295 253,308 266,308 279,304 292,304 305,304 318,306 331,307 344,312 357,312 370,312 383,312 396,312 409,312 422,305 435,231 448,231 462,310 475,309 488,309 501,311 514,311 527,318 540,318 553,319 566,319 579,321 592,321 605,322 618,321 631,321 644,179 657,179 670,158 683,138 696,138 709,307 723,321 736,321 749,321 762,329 775,329 788,329 801,328 814,328 827,298 840,300"/>
<circle cx="70" cy="291" r="2.5" fill="#d62728"/>
<circle cx="83" cy="288" r="2.5" fill="#d62728"/>
<circle cx="96" cy="145" r="2.5" fill="#d62728"/>
<circle cx="109" cy="147" r="2.5" fill="#d62728"/>
<circle cx="122" cy="290" r="2.5" fill="#d62728"/>
<circle cx="135" cy="273" r="2.5" fill="#d62728"/>
<circle cx="148" cy="293" r="2.5" fill="#d62728"/>
<circle cx="161" cy="293" r="2.5" fill="#d62728"/>
<circle cx="174" cy="293" r="2.5" fill="#d62728"/>
<circle cx="187" cy="293" r="2.5" fill="#d62728"/>
<circle cx="201" cy="288" r="2.5" fill="#d62728"/>
<circle cx="214" cy="281" r="2.5" fill="#d62728"/>
<circle cx="227" cy="295" r="2.5" fill="#d62728"/>
<circle cx="240" cy="295" r="2.5" fill="#d62728"/>
<circle cx="253" cy="308" r="2.5" fill="#d62728"/>
<circle cx="266" cy="308" r="2.5" fill="#d62728"/>
<circle cx="279" cy="304" r="2.5" fill="#d62728"/>
<circle cx="292" cy="304" r="2.5" fill="#d62728"/>
<circle cx="305" cy="304" r="2.5" fill="#d62728"/>
<circle cx="318" cy="306" r="2.5" fill="#d62728"/>
<circle cx="331" cy="307" r="2.5" fill="#d62728"/>
<circle cx="344" cy="312" r="2.5" fill="#d62728"/>
<circle cx="357" cy="312" r="2.5" fill="#d62728"/>
<circle cx="370" cy="312" r="2.5" fill="#d62728"/>
<circle cx="383" cy="312" r="2.5" fill="#d62728"/>
<circle cx="396" cy="312" r="2.5" fill="#d62728"/>
<circle cx="409" cy="312" r="2.5" fill="#d62728"/>
<circle cx="422" cy="305" r="2.5" fill="#d62728"/>
<circle cx="435" cy="231" r="2.5" fill="#d62728"/>
<circle cx="448" cy="231" r="2.5" fill="#d62728"/>
<circle cx="462" cy="310" r="2.5" fill="#d62728"/>
<circle cx="475" cy="309" r="2.5" fill="#d62728"/>
<circle cx="488" cy="309" r="2.5" fill="#d62728"/>
<circle cx="501" cy="311" r="2.5" fill="#d62728"/>
<circle cx="514" cy="311" r="2.5" fill="#d62728"/>
<circle cx="527" cy="318" r="2.5" fill="#d62728"/>
<circle cx="540" cy="318" r="2.5" fill="#d62728"/>
<circle cx="553" cy="319" r="2.5" fill="#d62728"/>
<circle cx="566" cy="319" r="2.5" fill="#d62728"/>
<circle cx="579" cy="321" r="2.5" fill="#d62728"/>
<circle cx="592" cy="321" r="2.5" fill="#d62728"/>
<circle cx="605" cy="322" r="2.5" fill="#d62728"/>
<circle cx="618" cy="321" r="2.5" fill="#d62728"/>
<circle cx="631" cy="321" r="2.5" fill="#d62728"/>
<circle cx="644" cy="179" r="2.5" fill="#d62728"/>
<circle cx="657" cy="179" r="2.5" fill="#d62728"/>
<circle cx="670" cy="158" r="2.5" fill="#d62728"/>
<circle cx="683" cy="138" r="2.5" fill="#d62728"/>
<circle cx="696" cy="138" r="2.5" fill="#d62728"/>
<circle cx="709" cy="307" r="2.5" fill="#d62728"/>
<circle cx="723" cy="321" r="2.5" fill="#d62728"/>
<circle cx="736" cy="321" r="2.5" fill="#d62728"/>
<circle cx="749" cy="321" r="2.5" fill="#d62728"/>
<circle cx="762" cy="329" r="2.5" fill="#d62728"/>
<circle cx="775" cy="329" r="2.5" fill="#d62728"/>
<circle cx="788" cy="329" r="2.5" fill="#d62728"/>
<circle cx="801" cy="328" r="2.5" fill="#d62728"/>
<circle cx="814" cy="328" r="2.5" fill="#d62728"/>
<circle cx="827" cy="298" r="2.5" fill="#d62728"/>
<circle cx="840" cy="300" r="2.5" fill="#d62728"/>
<line x1="860" y1="74" x2="882" y2="74" stroke="#d62728" stroke-width="2.5"/>
<text x="888" y="78" font-size="11" font-family="Arial" fill="#111">ERROR</text>
<polyline fill="none" stroke="#ff7f0e" stroke-width="2.2" points="70,426 83,426 96,426 109,427 122,427 135,441 148,441 161,439 174,439 187,439 201,426 214,429 227,440 240,440 253,440 266,440 279,439 292,439 305,439 318,439 331,439 344,439 357,439 370,439 383,439 396,439 409,439 422,439 435,438 448,438 462,439 475,439 488,439 501,439 514,439 527,440 540,440 553,440 566,440 579,440 592,440 605,440 618,439 631,439 644,64 657,64 670,57 683,50 696,82 709,419 723,440 736,440 749,440 762,440 775,440 788,440 801,439 814,440 827,440 840,437"/>
<circle cx="70" cy="426" r="2.5" fill="#ff7f0e"/>
<circle cx="83" cy="426" r="2.5" fill="#ff7f0e"/>
<circle cx="96" cy="426" r="2.5" fill="#ff7f0e"/>
<circle cx="109" cy="427" r="2.5" fill="#ff7f0e"/>
<circle cx="122" cy="427" r="2.5" fill="#ff7f0e"/>
<circle cx="135" cy="441" r="2.5" fill="#ff7f0e"/>
<circle cx="148" cy="441" r="2.5" fill="#ff7f0e"/>
<circle cx="161" cy="439" r="2.5" fill="#ff7f0e"/>
<circle cx="174" cy="439" r="2.5" fill="#ff7f0e"/>
<circle cx="187" cy="439" r="2.5" fill="#ff7f0e"/>
<circle cx="201" cy="426" r="2.5" fill="#ff7f0e"/>
<circle cx="214" cy="429" r="2.5" fill="#ff7f0e"/>
<circle cx="227" cy="440" r="2.5" fill="#ff7f0e"/>
<circle cx="240" cy="440" r="2.5" fill="#ff7f0e"/>
<circle cx="253" cy="440" r="2.5" fill="#ff7f0e"/>
<circle cx="266" cy="440" r="2.5" fill="#ff7f0e"/>
<circle cx="279" cy="439" r="2.5" fill="#ff7f0e"/>
<circle cx="292" cy="439" r="2.5" fill="#ff7f0e"/>
<circle cx="305" cy="439" r="2.5" fill="#ff7f0e"/>
<circle cx="318" cy="439" r="2.5" fill="#ff7f0e"/>
<circle cx="331" cy="439" r="2.5" fill="#ff7f0e"/>
<circle cx="344" cy="439" r="2.5" fill="#ff7f0e"/>
<circle cx="357" cy="439" r="2.5" fill="#ff7f0e"/>
<circle cx="370" cy="439" r="2.5" fill="#ff7f0e"/>
<circle cx="383" cy="439" r="2.5" fill="#ff7f0e"/>
<circle cx="396" cy="439" r="2.5" fill="#ff7f0e"/>
<circle cx="409" cy="439" r="2.5" fill="#ff7f0e"/>
<circle cx="422" cy="439" r="2.5" fill="#ff7f0e"/>
<circle cx="435" cy="438" r="2.5" fill="#ff7f0e"/>
<circle cx="448" cy="438" r="2.5" fill="#ff7f0e"/>
<circle cx="462" cy="439" r="2.5" fill="#ff7f0e"/>
<circle cx="475" cy="439" r="2.5" fill="#ff7f0e"/>
<circle cx="488" cy="439" r="2.5" fill="#ff7f0e"/>
<circle cx="501" cy="439" r="2.5" fill="#ff7f0e"/>
<circle cx="514" cy="439" r="2.5" fill="#ff7f0e"/>
<circle cx="527" cy="440" r="2.5" fill="#ff7f0e"/>
<circle cx="540" cy="440" r="2.5" fill="#ff7f0e"/>
<circle cx="553" cy="440" r="2.5" fill="#ff7f0e"/>
<circle cx="566" cy="440" r="2.5" fill="#ff7f0e"/>
<circle cx="579" cy="440" r="2.5" fill="#ff7f0e"/>
<circle cx="592" cy="440" r="2.5" fill="#ff7f0e"/>
<circle cx="605" cy="440" r="2.5" fill="#ff7f0e"/>
<circle cx="618" cy="439" r="2.5" fill="#ff7f0e"/>
<circle cx="631" cy="439" r="2.5" fill="#ff7f0e"/>
<circle cx="644" cy="64" r="2.5" fill="#ff7f0e"/>
<circle cx="657" cy="64" r="2.5" fill="#ff7f0e"/>
<circle cx="670" cy="57" r="2.5" fill="#ff7f0e"/>
<circle cx="683" cy="50" r="2.5" fill="#ff7f0e"/>
<circle cx="696" cy="82" r="2.5" fill="#ff7f0e"/>
<circle cx="709" cy="419" r="2.5" fill="#ff7f0e"/>
<circle cx="723" cy="440" r="2.5" fill="#ff7f0e"/>
<circle cx="736" cy="440" r="2.5" fill="#ff7f0e"/>
<circle cx="749" cy="440" r="2.5" fill="#ff7f0e"/>
<circle cx="762" cy="440" r="2.5" fill="#ff7f0e"/>
<circle cx="775" cy="440" r="2.5" fill="#ff7f0e"/>
<circle cx="788" cy="440" r="2.5" fill="#ff7f0e"/>
<circle cx="801" cy="439" r="2.5" fill="#ff7f0e"/>
<circle cx="814" cy="440" r="2.5" fill="#ff7f0e"/>
<circle cx="827" cy="440" r="2.5" fill="#ff7f0e"/>
<circle cx="840" cy="437" r="2.5" fill="#ff7f0e"/>
<line x1="860" y1="94" x2="882" y2="94" stroke="#ff7f0e" stroke-width="2.5"/>
<text x="888" y="98" font-size="11" font-family="Arial" fill="#111">WARNING</text>
<polyline fill="none" stroke="#1f77b4" stroke-width="2.2" points="70,409 83,409 96,409 109,409 122,409 135,409 148,409 161,409 174,409 187,409 201,409 214,409 227,409 240,409 253,409 266,409 279,409 292,409 305,409 318,409 331,409 344,409 357,409 370,409 383,409 396,409 409,409 422,409 435,408 448,408 462,409 475,409 488,409 501,409 514,409 527,409 540,409 553,409 566,409 579,409 592,409 605,409 618,409 631,409 644,402 657,402 670,395 683,388 696,388 709,388 723,409 736,409 749,409 762,409 775,409 788,409 801,409 814,409 827,409 840,409"/>
<circle cx="70" cy="409" r="2.5" fill="#1f77b4"/>
<circle cx="83" cy="409" r="2.5" fill="#1f77b4"/>
<circle cx="96" cy="409" r="2.5" fill="#1f77b4"/>
<circle cx="109" cy="409" r="2.5" fill="#1f77b4"/>
<circle cx="122" cy="409" r="2.5" fill="#1f77b4"/>
<circle cx="135" cy="409" r="2.5" fill="#1f77b4"/>
<circle cx="148" cy="409" r="2.5" fill="#1f77b4"/>
<circle cx="161" cy="409" r="2.5" fill="#1f77b4"/>
<circle cx="174" cy="409" r="2.5" fill="#1f77b4"/>
<circle cx="187" cy="409" r="2.5" fill="#1f77b4"/>
<circle cx="201" cy="409" r="2.5" fill="#1f77b4"/>
<circle cx="214" cy="409" r="2.5" fill="#1f77b4"/>
<circle cx="227" cy="409" r="2.5" fill="#1f77b4"/>
<circle cx="240" cy="409" r="2.5" fill="#1f77b4"/>
<circle cx="253" cy="409" r="2.5" fill="#1f77b4"/>
<circle cx="266" cy="409" r="2.5" fill="#1f77b4"/>
<circle cx="279" cy="409" r="2.5" fill="#1f77b4"/>
<circle cx="292" cy="409" r="2.5" fill="#1f77b4"/>
<circle cx="305" cy="409" r="2.5" fill="#1f77b4"/>
<circle cx="318" cy="409" r="2.5" fill="#1f77b4"/>
<circle cx="331" cy="409" r="2.5" fill="#1f77b4"/>
<circle cx="344" cy="409" r="2.5" fill="#1f77b4"/>
<circle cx="357" cy="409" r="2.5" fill="#1f77b4"/>
<circle cx="370" cy="409" r="2.5" fill="#1f77b4"/>
<circle cx="383" cy="409" r="2.5" fill="#1f77b4"/>
<circle cx="396" cy="409" r="2.5" fill="#1f77b4"/>
<circle cx="409" cy="409" r="2.5" fill="#1f77b4"/>
<circle cx="422" cy="409" r="2.5" fill="#1f77b4"/>
<circle cx="435" cy="408" r="2.5" fill="#1f77b4"/>
<circle cx="448" cy="408" r="2.5" fill="#1f77b4"/>
<circle cx="462" cy="409" r="2.5" fill="#1f77b4"/>
<circle cx="475" cy="409" r="2.5" fill="#1f77b4"/>
<circle cx="488" cy="409" r="2.5" fill="#1f77b4"/>
<circle cx="501" cy="409" r="2.5" fill="#1f77b4"/>
<circle cx="514" cy="409" r="2.5" fill="#1f77b4"/>
<circle cx="527" cy="409" r="2.5" fill="#1f77b4"/>
<circle cx="540" cy="409" r="2.5" fill="#1f77b4"/>
<circle cx="553" cy="409" r="2.5" fill="#1f77b4"/>
<circle cx="566" cy="409" r="2.5" fill="#1f77b4"/>
<circle cx="579" cy="409" r="2.5" fill="#1f77b4"/>
<circle cx="592" cy="409" r="2.5" fill="#1f77b4"/>
<circle cx="605" cy="409" r="2.5" fill="#1f77b4"/>
<circle cx="618" cy="409" r="2.5" fill="#1f77b4"/>
<circle cx="631" cy="409" r="2.5" fill="#1f77b4"/>
<circle cx="644" cy="402" r="2.5" fill="#1f77b4"/>
<circle cx="657" cy="402" r="2.5" fill="#1f77b4"/>
<circle cx="670" cy="395" r="2.5" fill="#1f77b4"/>
<circle cx="683" cy="388" r="2.5" fill="#1f77b4"/>
<circle cx="696" cy="388" r="2.5" fill="#1f77b4"/>
<circle cx="709" cy="388" r="2.5" fill="#1f77b4"/>
<circle cx="723" cy="409" r="2.5" fill="#1f77b4"/>
<circle cx="736" cy="409" r="2.5" fill="#1f77b4"/>
<circle cx="749" cy="409" r="2.5" fill="#1f77b4"/>
<circle cx="762" cy="409" r="2.5" fill="#1f77b4"/>
<circle cx="775" cy="409" r="2.5" fill="#1f77b4"/>
<circle cx="788" cy="409" r="2.5" fill="#1f77b4"/>
<circle cx="801" cy="409" r="2.5" fill="#1f77b4"/>
<circle cx="814" cy="409" r="2.5" fill="#1f77b4"/>
<circle cx="827" cy="409" r="2.5" fill="#1f77b4"/>
<circle cx="840" cy="409" r="2.5" fill="#1f77b4"/>
<line x1="860" y1="114" x2="882" y2="114" stroke="#1f77b4" stroke-width="2.5"/>
<text x="888" y="118" font-size="11" font-family="Arial" fill="#111">INFO</text>
<text x="455" y="500" font-size="11" font-family="Arial" fill="#444">Run sequence</text>
</svg>
