<svg xmlns="http://www.w3.org/2000/svg" width="1100" height="520">
<rect x="0" y="0" width="1100" height="520" fill="#ffffff"/>
<text x="70" y="30" font-size="20" font-family="Arial" fill="#111">Morphology Lint Trend by Severity</text>
<line x1="70" y1="450" x2="840" y2="450" stroke="#e6e6e6" stroke-width="1"/>
<text x="62" y="454" font-size="11" font-family="Arial" fill="#333" text-anchor="end">0</text>
<line x1="70" y1="370" x2="840" y2="370" stroke="#e6e6e6" stroke-width="1"/>
<text x="62" y="374" font-size="11" font-family="Arial" fill="#333" text-anchor="end">2377</text>
<line x1="70" y1="290" x2="840" y2="290" stroke="#e6e6e6" stroke-width="1"/>
<text x="62" y="294" font-size="11" font-family="Arial" fill="#333" text-anchor="end">4754</text>
<line x1="70" y1="210" x2="840" y2="210" stroke="#e6e6e6" stroke-width="1"/>
<text x="62" y="214" font-size="11" font-family="Arial" fill="#333" text-anchor="end">7131</text>
<line x1="70" y1="130" x2="840" y2="130" stroke="#e6e6e6" stroke-width="1"/>
<text x="62" y="134" font-size="11" font-family="Arial" fill="#333" text-anchor="end">9508</text>
<line x1="70" y1="50" x2="840" y2="50" stroke="#e6e6e6" stroke-width="1"/>
<text x="62" y="54" font-size="11" font-family="Arial" fill="#333" text-anchor="end">11885</text>
<line x1="70" y1="450" x2="840" y2="450" stroke="#333" stroke-width="1.2"/>
<line x1="70" y1="50" x2="70" y2="450" stroke="#333" stroke-width="1.2"/>
<line x1="70" y1="450" x2="70" y2="454" stroke="#666" stroke-width="1"/>
<text x="70" y="468" font-size="10" font-family="Arial" fill="#333" text-anchor="middle">1</text>
<line x1="132" y1="450" x2="132" y2="454" stroke="#666" stroke-width="1"/>
<text x="132" y="468" font-size="10" font-family="Arial" fill="#333" text-anchor="middle">3</text>
<line x1="193" y1="450" x2="193" y2="454" stroke="#666" stroke-width="1"/>
<text x="193" y="468" font-size="10" font-family="Arial" fill="#333" text-anchor="middle">5</text>
<line x1="255" y1="450" x2="255" y2="454" stroke="#666" stroke-width="1"/>
<text x="255" y="468" font-size="10" font-family="Arial" fill="#333" text-anchor="middle">7</text>
<line x1="316" y1="450" x2="316" y2="454" stroke="#666" stroke-width="1"/>
<text x="316" y="468" font-size="10" font-family="Arial" fill="#333" text-anchor="middle">9</text>
<line x1="378" y1="450" x2="378" y2="454" stroke="#666" stroke-width="1"/>
<text x="378" y="468" font-size="10" font-family="Arial" fill="#333" text-anchor="middle">11</text>
<line x1="440" y1="450" x2="440" y2="454" stroke="#666" stroke-width="1"/>
<text x="440" y="468" font-size="10" font-family="Arial" fill="#333" text-anchor="middle">13</text>
<line x1="501" y1="450" x2="501" y2="454" stroke="#666" stroke-width="1"/>
<text x="501" y="468" font-size="10" font-family="Arial" fill="#333" text-anchor="middle">15</text>
<line x1="563" y1="450" x2="563" y2="454" stroke="#666" stroke-width="1"/>
<text x="563" y="468" font-size="10" font-family="Arial" fill="#333" text-anchor="middle">17</text>
<line x1="624" y1="450" x2="624" y2="454" stroke="#666" stroke-width="1"/>
<text x="624" y="468" font-size="10" font-family="Arial" fill="#333" text-anchor="middle">19</text>
<line x1="686" y1="450" x2="686" y2="454" stroke="#666" stroke-width="1"/>
<text x="686" y="468" font-size="10" font-family="Arial" fill="#333" text-anchor="middle">21</text>
<line x1="748" y1="450" x2="748" y2="454" stroke="#666" stroke-width="1"/>
<text x="748" y="468" font-size="10" font-family="Arial" fill="#333" text-anchor="middle">23</text>
<line x1="809" y1="450" x2="809" y2="454" stroke="#666" stroke-width="1"/>
<text x="809" y="468" font-size="10" font-family="Arial" fill="#333" text-anchor="middle">25</text>
<line x1="840" y1="450" x2="840" y2="454" stroke="#666" stroke-width="1"/>
<text x="840" y="468" font-size="10" font-family="Arial" fill="#333" text-anchor="middle">26</text>
<polyline fill="none" stroke="#d62728" stroke-width="2.2" points="70,415 101,50 132,109 162,109 193,250 224,250 255,250 286,196 316,197 347,198 378,182 409,228 440,249 470,261 501,261 532,280 563,280 594,279 624,280 655,280 686,280 717,280 748,280 778,280 809,280 840,280"/>
<circle cx="70" cy="415" r="2.5" fill="#d62728"/>
<circle cx="101" cy="50" r="2.5" fill="#d62728"/>
<circle cx="132" cy="109" r="2.5" fill="#d62728"/>
<circle cx="162" cy="109" r="2.5" fill="#d62728"/>
<circle cx="193" cy="250" r="2.5" fill="#d62728"/>
<circle cx="224" cy="250" r="2.5" fill="#d62728"/>
<circle cx="255" cy="250" r="2.5" fill="#d62728"/>
<circle cx="286" cy="196" r="2.5" fill="#d62728"/>
<circle cx="316" cy="197" r="2.5" fill="#d62728"/>
<circle cx="347" cy="198" r="2.5" fill="#d62728"/>
<circle cx="378" cy="182" r="2.5" fill="#d62728"/>
<circle cx="409" cy="228" r="2.5" fill="#d62728"/>
<circle cx="440" cy="249" r="2.5" fill="#d62728"/>
<circle cx="470" cy="261" r="2.5" fill="#d62728"/>
<circle cx="501" cy="261" r="2.5" fill="#d62728"/>
<circle cx="532" cy="280" r="2.5" fill="#d62728"/>
<circle cx="563" cy="280" r="2.5" fill="#d62728"/>
<circle cx="594" cy="279" r="2.5" fill="#d62728"/>
<circle cx="624" cy="280" r="2.5" fill="#d62728"/>
<circle cx="655" cy="280" r="2.5" fill="#d62728"/>
<circle cx="686" cy="280" r="2.5" fill="#d62728"/>
<circle cx="717" cy="280" r="2.5" fill="#d62728"/>
<circle cx="748" cy="280" r="2.5" fill="#d62728"/>
<circle cx="778" cy="280" r="2.5" fill="#d62728"/>
<circle cx="809" cy="280" r="2.5" fill="#d62728"/>
<circle cx="840" cy="280" r="2.5" fill="#d62728"/>
<line x1="860" y1="74" x2="882" y2="74" stroke="#d62728" stroke-width="2.5"/>
<text x="888" y="78" font-size="11" font-family="Arial" fill="#111">ERROR</text>
<polyline fill="none" stroke="#ff7f0e" stroke-width="2.2" points="70,441 101,71 132,94 162,94 193,94 224,375 255,375 286,396 316,396 347,396 378,372 409,391 440,410 470,410 501,411 532,421 563,446 594,445 624,446 655,446 686,446 717,446 748,446 778,446 809,446 840,446"/>
<circle cx="70" cy="441" r="2.5" fill="#ff7f0e"/>
<circle cx="101" cy="71" r="2.5" fill="#ff7f0e"/>
<circle cx="132" cy="94" r="2.5" fill="#ff7f0e"/>
<circle cx="162" cy="94" r="2.5" fill="#ff7f0e"/>
<circle cx="193" cy="94" r="2.5" fill="#ff7f0e"/>
<circle cx="224" cy="375" r="2.5" fill="#ff7f0e"/>
<circle cx="255" cy="375" r="2.5" fill="#ff7f0e"/>
<circle cx="286" cy="396" r="2.5" fill="#ff7f0e"/>
<circle cx="316" cy="396" r="2.5" fill="#ff7f0e"/>
<circle cx="347" cy="396" r="2.5" fill="#ff7f0e"/>
<circle cx="378" cy="372" r="2.5" fill="#ff7f0e"/>
<circle cx="409" cy="391" r="2.5" fill="#ff7f0e"/>
<circle cx="440" cy="410" r="2.5" fill="#ff7f0e"/>
<circle cx="470" cy="410" r="2.5" fill="#ff7f0e"/>
<circle cx="501" cy="411" r="2.5" fill="#ff7f0e"/>
<circle cx="532" cy="421" r="2.5" fill="#ff7f0e"/>
<circle cx="563" cy="446" r="2.5" fill="#ff7f0e"/>
<circle cx="594" cy="445" r="2.5" fill="#ff7f0e"/>
<circle cx="624" cy="446" r="2.5" fill="#ff7f0e"/>
<circle cx="655" cy="446" r="2.5" fill="#ff7f0e"/>
<circle cx="686" cy="446" r="2.5" fill="#ff7f0e"/>
<circle cx="717" cy="446" r="2.5" fill="#ff7f0e"/>
<circle cx="748" cy="446" r="2.5" fill="#ff7f0e"/>
<circle cx="778" cy="446" r="2.5" fill="#ff7f0e"/>
<circle cx="809" cy="446" r="2.5" fill="#ff7f0e"/>
<circle cx="840" cy="446" r="2.5" fill="#ff7f0e"/>
<line x1="860" y1="94" x2="882" y2="94" stroke="#ff7f0e" stroke-width="2.5"/>
<text x="888" y="98" font-size="11" font-family="Arial" fill="#111">WARNING</text>
<polyline fill="none" stroke="#1f77b4" stroke-width="2.2" points="70,445 101,410 132,410 162,410 193,410 224,410 255,410 286,410 316,410 347,410 378,410 409,410 440,410 470,410 501,410 532,410 563,410 594,410 624,410 655,410 686,410 717,410 748,410 778,410 809,410 840,410"/>
<circle cx="70" cy="445" r="2.5" fill="#1f77b4"/>
<circle cx="101" cy="410" r="2.5" fill="#1f77b4"/>
<circle cx="132" cy="410" r="2.5" fill="#1f77b4"/>
<circle cx="162" cy="410" r="2.5" fill="#1f77b4"/>
<circle cx="193" cy="410" r="2.5" fill="#1f77b4"/>
<circle cx="224" cy="410" r="2.5" fill="#1f77b4"/>
<circle cx="255" cy="410" r="2.5" fill="#1f77b4"/>
<circle cx="286" cy="410" r="2.5" fill="#1f77b4"/>
<circle cx="316" cy="410" r="2.5" fill="#1f77b4"/>
<circle cx="347" cy="410" r="2.5" fill="#1f77b4"/>
<circle cx="378" cy="410" r="2.5" fill="#1f77b4"/>
<circle cx="409" cy="410" r="2.5" fill="#1f77b4"/>
<circle cx="440" cy="410" r="2.5" fill="#1f77b4"/>
<circle cx="470" cy="410" r="2.5" fill="#1f77b4"/>
<circle cx="501" cy="410" r="2.5" fill="#1f77b4"/>
<circle cx="532" cy="410" r="2.5" fill="#1f77b4"/>
<circle cx="563" cy="410" r="2.5" fill="#1f77b4"/>
<circle cx="594" cy="410" r="2.5" fill="#1f77b4"/>
<circle cx="624" cy="410" r="2.5" fill="#1f77b4"/>
<circle cx="655" cy="410" r="2.5" fill="#1f77b4"/>
<circle cx="686" cy="410" r="2.5" fill="#1f77b4"/>
<circle cx="717" cy="410" r="2.5" fill="#1f77b4"/>
<circle cx="748" cy="410" r="2.5" fill="#1f77b4"/>
<circle cx="778" cy="410" r="2.5" fill="#1f77b4"/>
<circle cx="809" cy="410" r="2.5" fill="#1f77b4"/>
<circle cx="840" cy="410" r="2.5" fill="#1f77b4"/>
<line x1="860" y1="114" x2="882" y2="114" stroke="#1f77b4" stroke-width="2.5"/>
<text x="888" y="118" font-size="11" font-family="Arial" fill="#111">INFO</text>
<text x="455" y="500" font-size="11" font-family="Arial" fill="#444">Run sequence</text>
</svg>
